<svg width="19" height="14" viewBox="0 0 19 14" fill="none" xmlns="http://www.w3.org/2000/svg">
<path d="M18.2014 1.95175C18.1227 1.55514 17.9468 1.19221 17.7012 0.89238C17.6494 0.827052 17.5953 0.768547 17.5367 0.710042C17.1016 0.272773 16.4909 0 15.8237 0H3.20306C2.5359 0 1.92738 0.272773 1.49021 0.710042C1.43171 0.768547 1.3776 0.827052 1.32568 0.89238C1.07996 1.19217 0.904106 1.55514 0.827555 1.95175C0.796102 2.10481 0.780273 2.263 0.780273 2.42292V11.2868C0.780273 11.6268 0.85239 11.9537 0.980998 12.2489C1.10029 12.5307 1.27618 12.7856 1.49018 12.9994C1.54442 13.0535 1.59829 13.1033 1.65706 13.1527C2.07618 13.4998 2.61719 13.7095 3.20306 13.7095H15.8237C16.4098 13.7095 16.9531 13.4998 17.3698 13.1506C17.4284 13.1033 17.4826 13.0535 17.5367 12.9994C17.7506 12.7856 17.9264 12.5307 18.0482 12.2489V12.2467C18.1768 11.9515 18.2464 11.6268 18.2464 11.2868V2.42292C18.2465 2.263 18.2309 2.10481 18.2014 1.95175ZM2.36687 1.58659C2.58332 1.37038 2.874 1.23949 3.20306 1.23949H15.8237C16.1528 1.23949 16.446 1.37038 16.6599 1.58659C16.6982 1.62511 16.7342 1.66802 16.7661 1.71067L10.1512 7.47571C9.96873 7.6356 9.74337 7.71457 9.51338 7.71457C9.2857 7.71457 9.06048 7.6356 8.87562 7.47571L2.26326 1.70821C2.29253 1.66557 2.32859 1.62511 2.36687 1.58659ZM2.01976 11.2868V2.99085L6.80673 7.16688L2.02218 11.3385C2.01976 11.3226 2.01976 11.3048 2.01976 11.2868ZM15.8237 12.4697H3.20306C2.98879 12.4697 2.78831 12.4134 2.61719 12.3145L7.66527 7.91519L8.13655 8.32517C8.53094 8.66788 9.02446 8.84145 9.51338 8.84145C10.0048 8.84145 10.4983 8.66788 10.8927 8.32517L11.3637 7.91519L16.4098 12.3145C16.2384 12.4134 16.038 12.4697 15.8237 12.4697ZM17.007 11.2868C17.007 11.3048 17.007 11.3226 17.0047 11.3385L12.2202 7.1693L17.007 2.99307V11.2868Z" fill="white"/>
</svg>
