<svg width="512" height="512" viewBox="0 0 512 512" fill="none" xmlns="http://www.w3.org/2000/svg">
<path d="M302.904 93.4597C297.366 90.2727 291.188 88.6787 285.012 88.6787C278.788 88.6787 272.555 90.3037 266.978 93.5467L148.633 162.372H72.794C32.661 162.372 0 194.978 0 235.047V276.962C0 317.039 32.661 349.644 72.794 349.644H148.633L266.978 418.461C272.555 421.704 278.788 423.32 285.012 423.32C291.189 423.32 297.366 421.727 302.904 418.54C314.028 412.134 320.891 400.284 320.891 387.44V124.559C320.891 111.724 314.028 99.8577 302.904 93.4597ZM137.374 313.764H72.794C52.408 313.764 35.88 297.284 35.88 276.962V235.047C35.88 214.725 52.408 198.244 72.794 198.244H137.374V313.764ZM285.012 387.441L158.304 313.764V198.244H158.312L285.012 124.56V387.441Z" fill="white"/>
<path d="M459.992 255.999L508.029 207.955C513.323 202.653 513.323 194.078 508.029 188.776C502.728 183.483 494.153 183.483 488.851 188.776L440.814 236.813L392.77 188.776C387.468 183.483 378.893 183.483 373.591 188.776C368.298 194.078 368.298 202.653 373.591 207.955L421.628 255.999L373.591 304.036C368.298 309.338 368.298 317.921 373.591 323.214C378.893 328.508 387.468 328.508 392.77 323.214L440.814 275.178L488.851 323.214C494.153 328.508 502.729 328.508 508.029 323.214C513.323 317.921 513.323 309.338 508.029 304.036L459.992 255.999Z" fill="white"/>
</svg>
