<svg width="20" height="20" viewBox="0 0 20 20" fill="none" xmlns="http://www.w3.org/2000/svg">
<path d="M10.2 1C8.30283 0.999905 6.48232 1.74858 5.13411 3.08331C3.7859 4.41803 3.01897 6.23093 3 8.12798C3 13.06 9.34498 18.5499 9.61498 18.7839C9.778 18.9234 9.98546 19 10.2 19C10.4145 19 10.622 18.9234 10.785 18.7839C11.1 18.5499 17.4 13.06 17.4 8.12798C17.381 6.23093 16.614 4.41803 15.2658 3.08331C13.9176 1.74858 12.0971 0.999905 10.2 1ZM10.2 16.8849C8.69698 15.454 4.79999 11.485 4.79999 8.12798C4.79999 6.69581 5.36892 5.32231 6.38161 4.30961C7.39431 3.29692 8.76781 2.72799 10.2 2.72799C11.6321 2.72799 13.0056 3.29692 14.0183 4.30961C15.031 5.32231 15.6 6.69581 15.6 8.12798C15.6 11.458 11.703 15.454 10.2 16.8849Z" fill="white"/>
<path d="M10.2 4.59985C9.57703 4.59985 8.96801 4.7846 8.45 5.13072C7.93199 5.47685 7.52824 5.96881 7.28983 6.54439C7.05141 7.11998 6.98903 7.75334 7.11058 8.36438C7.23212 8.97541 7.53213 9.53669 7.97266 9.97722C8.4132 10.4178 8.97447 10.7178 9.58551 10.8393C10.1965 10.9609 10.8299 10.8985 11.4055 10.6601C11.9811 10.4216 12.473 10.0179 12.8192 9.49988C13.1653 8.98187 13.35 8.37285 13.35 7.74984C13.35 6.91441 13.0182 6.1132 12.4274 5.52246C11.8367 4.93173 11.0355 4.59985 10.2 4.59985ZM10.2 9.09984C9.93304 9.09984 9.67203 9.02066 9.45002 8.87232C9.22802 8.72398 9.05498 8.51314 8.95281 8.26646C8.85063 8.01978 8.82389 7.74835 8.87598 7.48647C8.92807 7.2246 9.05665 6.98405 9.24545 6.79525C9.43425 6.60645 9.6748 6.47788 9.93667 6.42579C10.1985 6.3737 10.47 6.40043 10.7167 6.50261C10.9633 6.60479 11.1742 6.77782 11.3225 6.99983C11.4709 7.22183 11.55 7.48284 11.55 7.74984C11.55 8.10788 11.4078 8.45126 11.1546 8.70443C10.9015 8.95761 10.5581 9.09984 10.2 9.09984Z" fill="white"/>
</svg>
