<svg width="512" height="512" viewBox="0 0 512 512" fill="none" xmlns="http://www.w3.org/2000/svg">
<path d="M300.488 94.7557C294.994 91.5937 288.866 90.0127 282.738 90.0127C276.563 90.0127 270.38 91.6247 264.848 94.8407L147.447 163.118H72.213C32.401 163.119 0 195.464 0 235.214V276.794C0 316.552 32.401 348.898 72.213 348.898H147.447L264.848 417.166C270.381 420.382 276.564 421.986 282.738 421.986C288.866 421.986 294.994 420.406 300.488 417.243C311.524 410.889 318.332 399.134 318.332 386.392V125.607C318.332 112.874 311.524 101.104 300.488 94.7557ZM136.278 313.304H72.213C51.989 313.304 35.593 296.956 35.593 276.794V235.214C35.593 215.053 51.989 198.704 72.213 198.704H136.278V313.304ZM282.738 386.393L157.041 313.304V198.704H157.049L282.738 125.607V386.393Z" fill="white"/>
<path d="M415.205 168.691C410.478 163.431 402.37 163.009 397.119 167.752C391.859 172.479 391.437 180.579 396.172 185.838C414.086 205.717 423.031 230.808 423.031 255.992C423.031 281.185 414.085 306.276 396.18 326.146C391.437 331.398 391.86 339.505 397.119 344.241C402.37 348.976 410.478 348.553 415.205 343.302C437.502 318.564 448.67 287.235 448.662 255.992C448.67 224.758 437.502 193.422 415.205 168.691Z" fill="white"/>
<path d="M462.311 126.288C457.576 121.028 449.484 120.614 444.225 125.349C438.958 130.084 438.543 138.183 443.278 143.443C472.016 175.335 486.37 215.616 486.377 255.992C486.37 296.368 472.017 336.649 443.278 368.549C438.543 373.8 438.958 381.901 444.225 386.644C449.484 391.379 457.576 390.964 462.327 385.697C495.431 348.937 512.008 302.418 512 255.993C512.008 209.567 495.432 163.048 462.311 126.288Z" fill="white"/>
<path d="M349.966 210.193C344.706 214.92 344.284 223.028 349.019 228.279C356.125 236.168 359.647 246.037 359.663 255.992C359.648 265.947 356.125 275.816 349.019 283.713C344.284 288.965 344.707 297.064 349.966 301.8C355.217 306.543 363.326 306.112 368.052 300.861C379.525 288.135 385.293 272.021 385.285 255.993C385.293 239.965 379.525 223.859 368.052 211.133C363.326 205.873 355.217 205.45 349.966 210.193Z" fill="white"/>
</svg>
