<?xml version="1.0" encoding="UTF-8"?>
<svg id="_グループ_159" data-name="グループ 159" xmlns="http://www.w3.org/2000/svg" width="190.88" height="43.05" viewBox="0 0 190.88 43.05">
  <path id="_パス_142" data-name="パス 142" d="M0,3.22c2.01-.24,3.86-.45,5.56-.62,1.7-.17,3.33-.32,4.89-.44,1.56-.12,3.08-.21,4.57-.26,1.49-.05,3.02-.08,4.57-.08,1.91,0,3.82,.11,5.72,.36,1.64,.2,3.25,.65,4.76,1.33,1.29,.58,2.41,1.48,3.25,2.62,.84,1.24,1.26,2.72,1.2,4.21,.12,3.33-2.35,6.19-5.67,6.55v.21c2.32,.21,4.51,1.17,6.24,2.73,1.39,1.4,2.14,3.31,2.08,5.28,.06,1.77-.45,3.51-1.46,4.96-.98,1.34-2.28,2.43-3.77,3.17-1.64,.81-3.39,1.37-5.2,1.66-1.9,.33-3.82,.49-5.74,.49-2.36,0-4.45-.03-6.26-.1-1.82-.07-3.53-.17-5.13-.32-1.59-.14-3.15-.3-4.68-.49-1.52-.19-3.17-.41-4.94-.65l.26-3.17,5.15-.42V6.96L.26,6.55l-.26-3.33ZM11.7,15.23h10.71c1.46,.07,2.92-.25,4.21-.94,1.1-.73,1.7-2.01,1.56-3.33,.03-.83-.2-1.65-.65-2.34-.47-.65-1.09-1.17-1.82-1.51-.9-.42-1.85-.69-2.83-.81-1.24-.16-2.49-.24-3.74-.23-1.21,0-2.42,.04-3.61,.13-1.28,.1-2.56,.27-3.82,.5V15.23Zm0,15.08c1.56,.28,2.98,.47,4.26,.57,1.28,.1,2.56,.16,3.85,.16,1.33,0,2.66-.08,3.98-.23,1.21-.13,2.39-.43,3.51-.88,.98-.39,1.84-1.01,2.52-1.82,.68-.88,1.02-1.98,.96-3.09,.03-.89-.19-1.76-.65-2.52-.44-.68-1.04-1.24-1.74-1.64-.8-.44-1.67-.75-2.57-.91-1.04-.2-2.09-.29-3.15-.29H11.7v10.66ZM54.17,8.58l.26,3.22-4.21,.73,8.94,16.69h.57l7.69-16.69-3.95-.73,.21-3.22h12.63l.26,3.22-3.28,.73-11.9,24.12c-.85,1.92-2.2,3.58-3.9,4.81-1.68,1.09-3.66,1.65-5.67,1.59-1.32,.04-2.64-.19-3.87-.68-1.07-.46-2.02-1.15-2.78-2.03l1.97-3.43c1.21,.63,2.54,.98,3.9,1.04,1.3,.07,2.59-.24,3.72-.88,.94-.61,1.69-1.48,2.16-2.5l.68-1.4-3.59-.94-11.28-19.5-4-.94,.21-3.22h15.23Zm46.55,9.52l-.73-4.68c-1.12-.56-2.31-.98-3.54-1.25-1.35-.29-2.73-.43-4.11-.42-1.05,0-2.1,.05-3.14,.15-.85,.08-1.69,.26-2.5,.52-.63,.19-1.2,.53-1.66,.99-.41,.44-.62,1.02-.6,1.61-.01,.56,.17,1.1,.52,1.54,.55,.53,1.27,.85,2.03,.91l10.97,1.77c2.24,.3,4.37,1.17,6.19,2.52,1.61,1.31,2.5,3.31,2.39,5.38,.14,2.75-1.35,5.32-3.79,6.58-1.38,.73-2.87,1.23-4.42,1.46-1.93,.31-3.87,.46-5.82,.44-2.44,.01-4.87-.18-7.28-.57-2.24-.38-4.43-1.04-6.5-1.98l.26-7.8h3.59l.78,4.21c2.87,1.3,6,1.96,9.15,1.92,1.31,.02,2.63-.07,3.93-.26,.87-.12,1.72-.36,2.52-.73,.54-.24,1-.63,1.33-1.12,.26-.45,.4-.96,.39-1.48,0-1.77-1.21-2.82-3.64-3.17l-10.55-1.66c-2.07-.23-4.01-1.09-5.59-2.44-1.34-1.26-2.07-3.05-2-4.89-.05-1.37,.31-2.73,1.04-3.9,.72-1.07,1.71-1.93,2.86-2.5,1.35-.67,2.8-1.11,4.29-1.32,1.75-.27,3.51-.4,5.28-.39,2.26-.02,4.51,.17,6.73,.57,1.94,.36,3.85,.9,5.69,1.61l-.52,8.37h-3.53Zm18.14,12.8V8.73l-.42-.37-9.41,.52,.26,3.12,3.22,.31V30.88l-3.74,.52,.26,3.17h13.31l.21-3.17-3.69-.52Zm35.75-.62l3.69,1.15v3.17h-6.34l-1.66-2.65c-1.46,1.3-3.18,2.26-5.04,2.83-2.03,.59-4.13,.88-6.24,.86-2.12,.03-4.24-.31-6.24-1.01-1.75-.62-3.35-1.61-4.71-2.88-1.3-1.25-2.32-2.77-2.99-4.45-.71-1.81-1.06-3.75-1.04-5.69-.02-1.94,.36-3.86,1.12-5.64,.74-1.71,1.85-3.23,3.25-4.45,1.52-1.3,3.27-2.29,5.17-2.91,2.24-.73,4.59-1.08,6.94-1.04,1.45-.01,2.89,.13,4.31,.42,1.2,.25,2.37,.63,3.48,1.15V4.32l-3.64-.52-.31-3.17,9.83-.62,.42,.26V30.25Zm-6.29-17.16c-1.26-.45-2.57-.78-3.9-.96-1.29-.16-2.6-.24-3.9-.23-2.65-.14-5.26,.67-7.36,2.29-1.82,1.52-2.73,3.99-2.73,7.38-.04,1.5,.2,3,.7,4.42,.41,1.12,1.06,2.14,1.9,2.99,.81,.79,1.79,1.37,2.86,1.72,1.16,.37,2.37,.56,3.59,.55,1.78,.03,3.56-.24,5.25-.81,1.35-.43,2.58-1.17,3.59-2.16V13.1Zm28.63,10.87l-10.76-.57c.11,2.29,1.12,4.44,2.81,6,1.88,1.46,4.22,2.19,6.6,2.05,1.09,0,2.17-.05,3.25-.16,.9-.09,1.78-.26,2.65-.49,.82-.23,1.61-.54,2.37-.93,.83-.44,1.63-.94,2.39-1.48l2.23,3.74c-1.75,1.26-3.73,2.19-5.82,2.73-2.32,.54-4.69,.79-7.07,.75-2.3,.04-4.59-.33-6.76-1.09-1.85-.65-3.55-1.68-4.99-3.01-1.33-1.25-2.38-2.78-3.07-4.47-.7-1.73-1.05-3.59-1.04-5.46-.01-1.88,.36-3.75,1.09-5.48,.72-1.7,1.8-3.23,3.17-4.47,1.49-1.32,3.22-2.34,5.1-2.99,2.21-.76,4.53-1.13,6.86-1.09,2.13-.03,4.24,.29,6.26,.96,1.74,.57,3.34,1.5,4.71,2.73,1.3,1.2,2.3,2.69,2.94,4.34,.7,1.83,1.04,3.78,1.01,5.74,0,.38-.02,.77-.05,1.17-.03,.4-.1,.79-.21,1.17l-.31,.31h-13.36Zm7.59-4.31c-.14-2.84-.98-4.88-2.52-6.11-1.75-1.3-3.89-1.95-6.06-1.85-2.42-.14-4.82,.57-6.76,2.03-1.72,1.52-2.8,3.64-3.02,5.93h18.35Z" style="fill: #fff;"/>
</svg>