<svg width="144" height="30" viewBox="0 0 144 30" fill="none" xmlns="http://www.w3.org/2000/svg">
<path d="M102.833 3.27454L98.0088 4.09916L102.009 8.09892L102.833 3.27454Z" fill="white"/>
<mask id="mask0_323_5116" style="mask-type:luminance" maskUnits="userSpaceOnUse" x="0" y="0" width="144" height="30">
<path d="M143.78 0H0V30H143.78V0Z" fill="white"/>
</mask>
<g mask="url(#mask0_323_5116)">
<path d="M35.2656 6.25229C36.4083 6.11415 37.4624 5.99668 38.428 5.89989C39.3936 5.8031 40.3197 5.71946 41.2064 5.64898C42.093 5.57991 42.9599 5.53081 43.8071 5.50167C44.6543 5.47254 45.5212 5.45774 46.4078 5.45727C47.4947 5.45389 48.5807 5.52311 49.6584 5.66448C50.5922 5.77577 51.5036 6.02864 52.3613 6.4144C53.0958 6.74356 53.7323 7.25767 54.2086 7.90647C54.6841 8.61268 54.9221 9.4521 54.888 10.3028C54.9202 11.2154 54.606 12.1063 54.0086 12.7969C53.4112 13.4875 52.5748 13.9267 51.6671 14.0263V14.1447C52.9857 14.2643 54.2299 14.8084 55.2129 15.6953C55.6027 16.0892 55.9085 16.5582 56.1118 17.0738C56.3151 17.5894 56.4117 18.1409 56.3956 18.6949C56.431 19.7004 56.1408 20.6904 55.5682 21.5177C55.0092 22.2819 54.2742 22.9 53.4256 23.3198C52.4933 23.7812 51.4972 24.1 50.4703 24.2657C49.3915 24.4518 48.2989 24.5461 47.2043 24.5476C45.8642 24.5476 44.6771 24.5276 43.6429 24.4877C42.6087 24.4478 41.6384 24.3886 40.732 24.3101C39.8252 24.2311 38.9385 24.1372 38.0721 24.0282C37.2057 23.9192 36.2697 23.796 35.2642 23.6588L35.4122 21.8553L38.3378 21.6191V8.37939L35.4122 8.14328L35.2656 6.25229ZM41.9154 13.079H48.0035C48.8356 13.1203 49.6634 12.9365 50.3998 12.5469C50.7059 12.3424 50.9503 12.0582 51.1065 11.7249C51.2628 11.3916 51.325 11.022 51.2865 10.6559C51.304 10.185 51.175 9.72034 50.9172 9.32594C50.6523 8.95579 50.2961 8.66052 49.8832 8.4689C49.3734 8.23281 48.8298 8.07822 48.272 8.01078C47.5667 7.91745 46.8557 7.87318 46.1442 7.87828C45.4545 7.87828 44.7699 7.90177 44.0904 7.94876C43.362 8.00497 42.6369 8.09907 41.9182 8.23068L41.9154 13.079ZM41.9154 21.6502C42.802 21.8085 43.6098 21.9168 44.3385 21.9751C45.0673 22.0333 45.7956 22.0629 46.5234 22.0639C47.2791 22.0646 48.0341 22.0201 48.7844 21.9307C49.4695 21.8562 50.141 21.6873 50.7797 21.4288C51.3356 21.2078 51.8279 20.8523 52.2126 20.3942C52.5965 19.8909 52.79 19.268 52.7588 18.6357C52.7769 18.1324 52.6486 17.6347 52.3895 17.2028C52.1415 16.8166 51.8027 16.4969 51.4028 16.2718C50.9467 16.0203 50.4524 15.8455 49.9396 15.7545C49.3501 15.6436 48.7514 15.5891 48.1515 15.5917H41.9154V21.6502Z" fill="white"/>
<path d="M66.0593 9.29565L66.2073 11.1281L63.8109 11.5419L68.894 21.0292H69.2189L73.5936 11.5419L71.3474 11.1281L71.4658 9.29565H78.6478L78.7958 11.1281L76.9337 11.5419L70.1676 25.2552C69.6833 26.3464 68.9184 27.2898 67.951 27.9892C67.1422 28.4746 66.235 28.7729 65.296 28.8623C64.357 28.9517 63.4098 28.8299 62.524 28.5058C61.917 28.2455 61.3766 27.8516 60.9431 27.3534L62.0658 25.4033C62.7522 25.761 63.5091 25.9629 64.2825 25.9946C65.0208 26.0321 65.7544 25.8578 66.3969 25.4921C66.9304 25.1433 67.3553 24.6517 67.6232 24.0733L68.0073 23.2754L65.9683 22.7433L59.5546 11.6603L57.2788 11.1288L57.3965 9.29636L66.0593 9.29565Z" fill="white"/>
<path d="M92.5218 14.7043L92.1081 12.0443C91.4698 11.7266 90.7949 11.4882 90.0987 11.3346C89.3312 11.1712 88.5483 11.092 87.7637 11.0985C87.1665 11.0959 86.5696 11.1255 85.9756 11.1873C85.4932 11.2336 85.0174 11.3328 84.5568 11.4833C84.2007 11.5924 83.8762 11.7858 83.6109 12.0471C83.4966 12.1698 83.4076 12.314 83.3493 12.4712C83.291 12.6285 83.2645 12.7958 83.2712 12.9634C83.2648 13.2799 83.3695 13.5887 83.5672 13.8359C83.8787 14.1382 84.2867 14.3211 84.7196 14.3526L90.9557 15.3576C92.2313 15.5267 93.4422 16.02 94.4727 16.7905C94.9249 17.1566 95.2839 17.6248 95.5202 18.1565C95.7565 18.6882 95.8635 19.2683 95.8323 19.8493C95.87 20.6135 95.6865 21.3723 95.3039 22.0349C94.9212 22.6974 94.3556 23.2356 93.6749 23.5848C92.8903 24.0006 92.041 24.2804 91.1629 24.4122C90.0677 24.5882 88.9596 24.6722 87.8503 24.6631C86.4646 24.6704 85.0807 24.5617 83.7131 24.3382C82.4386 24.1233 81.197 23.7457 80.0186 23.2148L80.1666 18.7822H82.2056L82.6489 21.1786C84.2816 21.9198 86.0573 22.2933 87.8503 22.2724C88.5969 22.2825 89.3431 22.233 90.0818 22.1244C90.5771 22.0575 91.0599 21.9181 91.5146 21.7107C91.821 21.5752 92.0823 21.3551 92.2681 21.0764C92.4186 20.8204 92.4952 20.5276 92.4894 20.2306C92.4894 19.226 91.7998 18.6251 90.4208 18.4277L84.4208 17.4826C83.2462 17.349 82.1391 16.865 81.2435 16.0934C80.8665 15.7384 80.57 15.3067 80.3738 14.8275C80.1775 14.3482 80.0862 13.8326 80.106 13.3151C80.0769 12.5337 80.2829 11.7616 80.6973 11.0985C81.1073 10.493 81.6672 10.0042 82.3226 9.6797C83.09 9.30071 83.913 9.04638 84.7605 8.92626C85.753 8.77384 86.756 8.69961 87.7601 8.70425C89.0431 8.6942 90.3243 8.80297 91.5872 9.02916C92.6923 9.23268 93.7759 9.53944 94.8237 9.94541L94.5277 14.7035L92.5218 14.7043Z" fill="white"/>
<path d="M102.832 21.9744V9.38446L102.596 9.17725L97.2467 9.47326L97.3947 11.2473L99.2272 11.4242V21.9744L97.0994 22.2704L97.2474 24.0726H104.813L104.931 22.2704L102.832 21.9744Z" fill="white"/>
<path d="M123.157 21.6212L125.256 22.271V24.0739H121.651L120.705 22.5664C119.877 23.3043 118.898 23.854 117.838 24.1775C116.686 24.515 115.491 24.6793 114.292 24.6653C113.084 24.684 111.883 24.4886 110.744 24.088C109.748 23.7338 108.837 23.1754 108.07 22.4487C107.329 21.7371 106.75 20.8753 106.37 19.9212C105.966 18.891 105.765 17.7921 105.78 16.6855C105.767 15.5842 105.983 14.4922 106.414 13.4786C106.834 12.509 107.465 11.6457 108.262 10.9519C109.123 10.2121 110.123 9.64967 111.202 9.29701C112.476 8.88461 113.81 8.68506 115.149 8.70638C115.972 8.69813 116.795 8.77728 117.601 8.94249C118.284 9.08501 118.948 9.30295 119.582 9.59232V6.86966L117.513 6.57435L117.336 4.77428L122.923 4.42188L123.159 4.56918L123.157 21.6212ZM119.581 11.8681C118.863 11.6098 118.12 11.4268 117.365 11.3219C116.63 11.2304 115.889 11.1859 115.149 11.1887C113.644 11.1086 112.16 11.5702 110.966 12.4898C109.933 13.3567 109.416 14.7555 109.416 16.6862C109.394 17.5409 109.53 18.3923 109.815 19.1981C110.048 19.836 110.416 20.416 110.894 20.8981C111.353 21.3443 111.909 21.6782 112.519 21.8735C113.178 22.0845 113.866 22.1892 114.558 22.1837C115.572 22.2009 116.582 22.046 117.544 21.7255C118.31 21.4817 119.008 21.0617 119.583 20.4992L119.581 11.8681Z" fill="white"/>
<path d="M135.859 18.0436L129.742 17.7187C129.806 19.0216 130.379 20.2473 131.337 21.1321C132.405 21.964 133.739 22.3791 135.09 22.2999C135.707 22.3037 136.324 22.2741 136.938 22.2111C137.447 22.158 137.951 22.0638 138.445 21.9292C138.911 21.8005 139.361 21.6223 139.789 21.3978C140.261 21.1469 140.715 20.8643 141.149 20.552L142.418 22.6798C141.419 23.3979 140.296 23.9238 139.105 24.2304C137.788 24.5351 136.439 24.679 135.088 24.6589C133.78 24.6808 132.48 24.4705 131.246 24.038C130.193 23.6671 129.227 23.084 128.409 22.3246C127.652 21.6125 127.057 20.7456 126.665 19.7831C126.267 18.7979 126.067 17.7444 126.074 16.682C126.067 15.6113 126.279 14.5504 126.695 13.5639C127.104 12.5955 127.719 11.7281 128.498 11.0224C129.341 10.2703 130.326 9.69275 131.394 9.32309C132.648 8.89095 133.969 8.68083 135.296 8.70216C136.505 8.68467 137.709 8.86953 138.857 9.24909C139.846 9.57547 140.757 10.1034 141.532 10.7997C142.27 11.4829 142.842 12.327 143.202 13.2665C143.598 14.3091 143.794 15.4172 143.779 16.5325C143.779 16.7489 143.768 16.9709 143.749 17.1972C143.73 17.422 143.69 17.6447 143.631 17.8625L143.454 18.0401L135.859 18.0436ZM140.174 15.5909C140.095 13.9755 139.618 12.818 138.741 12.1183C137.749 11.3819 136.533 11.0111 135.298 11.0689C133.922 10.9877 132.561 11.3959 131.457 12.2212C130.479 13.0868 129.866 14.2911 129.742 15.5909H140.174Z" fill="white"/>
<path d="M14.9968 30C12.0292 30.0002 9.12832 29.1204 6.66084 27.4718C4.19337 25.8233 2.2702 23.48 1.13455 20.7384C-0.00109812 17.9968 -0.298213 14.98 0.280783 12.0695C0.859779 9.15902 2.28888 6.4856 4.38734 4.38737C7.20797 1.60702 11.0135 0.0547052 14.9741 0.0689448C18.9346 0.0831844 22.7289 1.66282 25.5295 4.46338C28.33 7.26394 29.9097 11.0582 29.9239 15.0188C29.9381 18.9793 28.3858 22.7849 25.6055 25.6055C24.2155 27.003 22.5622 28.1109 20.7412 28.8652C18.9202 29.6195 16.9678 30.0052 14.9968 30ZM12.0951 8.31665C13.3386 8.31439 14.5332 8.80069 15.4216 9.67077C16.31 10.5408 16.8211 11.7251 16.8448 12.9684L16.849 13.146L17.0266 13.1495C17.9581 13.1679 18.8636 13.4598 19.6304 13.989C20.3973 14.5181 20.9915 15.2611 21.3393 16.1255C21.687 16.9898 21.7728 17.9374 21.5861 18.8501C21.3994 19.7629 20.9484 20.6006 20.2891 21.259L14.237 27.3104L14.6669 27.3217C14.7769 27.3217 14.8868 27.3259 14.9961 27.3259C17.4347 27.326 19.8186 26.603 21.8463 25.2482C23.874 23.8934 25.4545 21.9678 26.3878 19.7148C27.321 17.4618 27.5653 14.9827 27.0896 12.5909C26.6139 10.1991 25.4396 8.00206 23.7152 6.27765C21.9908 4.55333 19.7939 3.37905 17.4022 2.90332C15.0104 2.42758 12.5313 2.67176 10.2784 3.60496C8.0254 4.53816 6.09975 6.11848 4.74493 8.14608C3.3901 10.1737 2.66695 12.5575 2.66691 14.9961C2.66691 15.1067 2.66691 15.216 2.67114 15.3252L2.68242 15.7552L8.73387 9.70441C9.17461 9.26243 9.6986 8.91222 10.2755 8.67401C10.8525 8.43581 11.4709 8.31435 12.0951 8.31665ZM16.9265 15.8207C16.6534 15.8198 16.3827 15.8732 16.1304 15.9778C15.878 16.0823 15.6489 16.2359 15.4563 16.4297L7.27281 24.611L7.43774 24.7393C8.49983 25.5678 9.69181 26.2146 10.9653 26.6535L11.0745 26.6916L18.3953 19.3687C18.6864 19.0779 18.8847 18.7073 18.965 18.3038C19.0454 17.9003 19.0042 17.482 18.8467 17.1019C18.6892 16.7218 18.4225 16.397 18.0803 16.1685C17.7381 15.9401 17.3358 15.8183 16.9244 15.8186M12.093 10.9872C11.8198 10.9863 11.5491 11.0396 11.2966 11.144C11.0441 11.2484 10.8149 11.4018 10.622 11.5954L3.30194 18.9183L3.33859 19.0297C3.77839 20.3018 4.42542 21.4926 5.25355 22.5537L5.38253 22.7186L13.5653 14.5351C13.8564 14.2445 14.0548 13.874 14.1352 13.4706C14.2156 13.0671 14.1745 12.6489 14.0171 12.2688C13.8597 11.8887 13.593 11.5639 13.2508 11.3355C12.9087 11.1071 12.5065 10.9854 12.0951 10.9857" fill="white"/>
<path d="M21.8391 8.15527L17.427 8.90871L21.0856 12.5673L21.8391 8.15527Z" fill="white"/>
</g>
</svg>
