<svg width="200" height="175" viewBox="0 0 200 175" fill="none" xmlns="http://www.w3.org/2000/svg">
<mask id="mask0_323_5103" style="mask-type:luminance" maskUnits="userSpaceOnUse" x="0" y="0" width="200" height="175">
<path d="M200 0H0V174.41H200V0Z" fill="white"/>
</mask>
<g mask="url(#mask0_323_5103)">
<path d="M99.9996 117.73C88.3542 117.731 76.9701 114.278 67.287 107.809C57.6039 101.339 50.0567 92.1437 45.5998 81.3849C41.1428 70.6261 39.9764 58.7872 42.248 47.3655C44.5195 35.9438 50.1271 25.4521 58.3614 17.2174C69.4034 6.17546 84.3794 -0.027832 99.9951 -0.027832C115.611 -0.027832 130.587 6.17546 141.629 17.2174C152.671 28.2593 158.874 43.2354 158.874 58.8511C158.874 74.4667 152.671 89.4428 141.629 100.485C136.174 105.97 129.684 110.318 122.537 113.279C115.39 116.239 107.727 117.752 99.9906 117.73M88.6135 32.6305C93.4936 32.6234 98.1812 34.5332 101.667 37.9488C105.152 41.3643 107.157 46.0122 107.249 50.8914L107.264 51.5904L107.963 51.6053C111.618 51.6777 115.171 52.8235 118.181 54.9C121.19 56.9766 123.522 59.8923 124.886 63.2841C126.251 66.676 126.588 70.3943 125.855 73.9762C125.122 77.5581 123.353 80.8454 120.766 83.4291L97.02 107.176L98.7085 107.219C99.1379 107.231 99.5672 107.237 100.001 107.237C109.57 107.237 118.926 104.399 126.883 99.0828C134.84 93.7662 141.042 86.2094 144.704 77.368C148.366 68.5266 149.324 58.7977 147.457 49.4117C145.59 40.0257 140.982 31.4042 134.215 24.6374C127.448 17.8705 118.826 13.2622 109.441 11.3952C100.055 9.52814 90.3259 10.4863 81.4845 14.1484C72.6431 17.8105 65.0862 24.0121 59.7694 31.969C54.4526 39.9259 51.6146 49.2808 51.6144 58.8506C51.6144 59.2829 51.6204 59.7123 51.6324 60.1486L51.6754 61.8371L75.4221 38.0854C77.1512 36.3494 79.2073 34.9734 81.4716 34.0371C83.7358 33.1007 86.1633 32.6227 88.6135 32.6305ZM107.575 62.0798C106.503 62.0765 105.441 62.2858 104.451 62.6956C103.46 63.1054 102.56 63.7076 101.804 64.4672L69.6896 96.5815L70.3376 97.0868C74.5052 100.339 79.1827 102.878 84.1801 104.601L84.6085 104.749L113.346 76.0091C114.487 74.868 115.265 73.414 115.58 71.8311C115.895 70.2481 115.733 68.6072 115.115 67.1161C114.498 65.6249 113.452 64.3505 112.109 63.454C110.767 62.5575 109.189 62.0793 107.575 62.0798ZM88.6135 43.1179C87.5414 43.1145 86.4793 43.3237 85.4886 43.7335C84.4979 44.1433 83.5984 44.7456 82.8421 45.5054L54.1038 74.2437L54.2505 74.6731C55.9747 79.67 58.5136 84.3473 61.7644 88.5155L62.2696 89.1636L94.3849 57.0463C95.5267 55.9053 96.3043 54.4512 96.6193 52.8682C96.9344 51.2851 96.7728 49.6441 96.1549 48.1529C95.537 46.6618 94.4906 45.3874 93.1482 44.4911C91.8058 43.5949 90.2276 43.117 88.6135 43.1179Z" fill="white"/>
<path d="M126.851 32.0034L109.54 34.961L123.893 49.3177L126.851 32.0034Z" fill="white"/>
<path d="M124.532 127.197L115.637 128.717L123.009 136.089L124.532 127.197Z" fill="white"/>
<path d="M0 132.684C2.10621 132.43 4.04899 132.212 5.82834 132.03C7.6077 131.848 9.31483 131.694 10.9497 131.568C12.5833 131.441 14.1809 131.351 15.7426 131.296C17.3043 131.241 18.9019 131.214 20.5355 131.214C22.5388 131.207 24.5403 131.334 26.5266 131.595C28.2487 131.802 29.9292 132.271 31.5102 132.984C32.864 133.591 34.0372 134.539 34.9152 135.734C35.7904 137.035 36.2292 138.58 36.1683 140.147C36.227 141.829 35.6476 143.471 34.5463 144.744C33.445 146.017 31.9033 146.827 30.2301 147.011V147.227C32.6609 147.449 34.9545 148.453 36.7674 150.087C37.4855 150.813 38.0488 151.678 38.4233 152.628C38.7978 153.579 38.9757 154.595 38.9462 155.616C39.0108 157.469 38.4761 159.293 37.4214 160.818C36.3908 162.227 35.0363 163.367 33.4723 164.141C31.754 164.99 29.9183 165.576 28.0264 165.882C26.038 166.224 24.024 166.397 22.0063 166.399C19.536 166.399 17.3482 166.363 15.4431 166.29C13.5379 166.217 11.7492 166.109 10.077 165.964C8.40618 165.818 6.77228 165.645 5.17531 165.446C3.57835 165.247 1.85325 165.021 0 164.768L0.271597 161.446L5.66359 161.009V136.606L0.271597 136.171L0 132.684ZM12.2558 145.265H23.4781C25.01 145.341 26.5339 145.002 27.8896 144.285C28.4536 143.908 28.904 143.384 29.1921 142.769C29.4801 142.155 29.595 141.474 29.5242 140.799C29.5565 139.931 29.3185 139.074 28.8432 138.348C28.3542 137.665 27.6972 137.121 26.936 136.768C25.9956 136.334 24.9929 136.05 23.9644 135.926C22.6643 135.754 21.3537 135.672 20.0422 135.68C18.7701 135.68 17.5083 135.725 16.2569 135.815C14.9141 135.919 13.5776 136.092 12.2528 136.334L12.2558 145.265ZM12.2558 161.062C13.8907 161.353 15.3795 161.553 16.7222 161.661C18.0648 161.769 19.4085 161.823 20.7532 161.825C22.1461 161.826 23.5379 161.744 24.921 161.579C26.1836 161.441 27.4212 161.13 28.5985 160.653C29.6232 160.246 30.5307 159.591 31.2396 158.746C31.9477 157.819 32.3046 156.671 32.2471 155.506C32.2801 154.578 32.0436 153.66 31.5661 152.863C31.1068 152.151 30.4801 151.562 29.7408 151.148C28.9006 150.684 27.9897 150.362 27.0448 150.195C25.9585 149.991 24.8551 149.89 23.7497 149.895H12.2558V161.062Z" fill="white"/>
<path d="M56.7517 138.295L57.0233 141.672L52.6118 142.434L61.9809 159.917H62.58L70.642 142.432L66.5022 141.67L66.7209 138.293H79.9572L80.2308 141.67L76.7989 142.432L64.3234 167.706C63.4317 169.718 62.0217 171.456 60.2375 172.744C58.4743 173.889 56.4037 174.469 54.3023 174.406C52.9149 174.444 51.534 174.203 50.2413 173.698C49.1229 173.217 48.1271 172.49 47.3277 171.572L49.3966 167.978C50.6621 168.636 52.0571 169.008 53.4825 169.066C54.8423 169.135 56.1936 168.814 57.3767 168.14C58.3607 167.498 59.1441 166.592 59.6374 165.526L60.3463 164.056L56.5879 163.076L44.7695 142.652L40.5757 141.672L40.7944 138.295H56.7517Z" fill="white"/>
<path d="M105.526 148.264L104.763 143.362C103.587 142.776 102.343 142.337 101.06 142.054C99.6458 141.753 98.2031 141.607 96.7573 141.619C95.6568 141.614 94.5568 141.669 93.4622 141.782C92.5737 141.868 91.6972 142.051 90.8481 142.327C90.1927 142.528 89.5952 142.883 89.1057 143.363C88.8945 143.589 88.7303 143.854 88.6227 144.144C88.515 144.434 88.4661 144.743 88.4786 145.051C88.4672 145.634 88.6601 146.203 89.0238 146.658C89.5978 147.215 90.3497 147.553 91.1476 147.611L102.642 149.463C104.992 149.775 107.224 150.684 109.123 152.104C109.956 152.779 110.618 153.642 111.054 154.622C111.489 155.602 111.687 156.672 111.629 157.743C111.7 159.152 111.362 160.552 110.656 161.774C109.951 162.996 108.908 163.989 107.652 164.632C106.206 165.399 104.64 165.914 103.022 166.157C101.005 166.481 98.9647 166.635 96.9221 166.619C94.3676 166.633 91.8164 166.433 89.2954 166.02C86.9478 165.625 84.6606 164.93 82.4895 163.953L82.7611 155.784H86.5205L87.3383 160.195C90.3474 161.561 93.6198 162.249 96.9241 162.21C98.3001 162.228 99.6753 162.137 101.037 161.938C101.95 161.815 102.84 161.558 103.678 161.176C104.243 160.925 104.725 160.519 105.068 160.004C105.344 159.534 105.485 158.996 105.475 158.451C105.475 156.599 104.205 155.491 101.663 155.129L90.6045 153.385C88.4401 153.138 86.4002 152.246 84.7501 150.824C84.0552 150.17 83.5085 149.374 83.1468 148.491C82.7851 147.608 82.6168 146.657 82.6533 145.704C82.5999 144.264 82.9794 142.841 83.7426 141.62C84.4984 140.504 85.5305 139.603 86.7382 139.005C88.1528 138.307 89.6695 137.838 91.2315 137.616C93.061 137.335 94.9096 137.199 96.7603 137.207C99.1253 137.188 101.487 137.389 103.815 137.806C105.85 138.179 107.846 138.742 109.776 139.49L109.231 148.259L105.526 148.264Z" fill="white"/>
<path d="M124.531 161.664V138.459L124.096 138.077L114.235 138.622L114.509 141.89L117.886 142.217V161.664L113.964 162.209L114.235 165.531H128.18L128.398 162.209L124.531 161.664Z" fill="white"/>
<path d="M161.989 161.011L165.857 162.209V165.532H159.212L157.469 162.754C155.943 164.114 154.14 165.127 152.185 165.723C150.062 166.345 147.859 166.647 145.648 166.622C143.422 166.656 141.209 166.295 139.109 165.556C137.273 164.903 135.594 163.873 134.18 162.533C132.816 161.221 131.748 159.633 131.048 157.876C130.303 155.977 129.933 153.951 129.959 151.911C129.937 149.881 130.336 147.868 131.13 146C131.903 144.213 133.067 142.622 134.535 141.343C136.124 139.98 137.966 138.945 139.956 138.297C142.304 137.536 144.761 137.168 147.228 137.207C148.747 137.193 150.262 137.338 151.75 137.643C153.007 137.905 154.23 138.307 155.398 138.841V133.829L151.586 133.285L151.259 129.962L161.554 129.31L161.989 129.582V161.011ZM155.399 143.038C154.076 142.561 152.707 142.223 151.313 142.03C149.959 141.861 148.595 141.779 147.229 141.784C144.456 141.636 141.721 142.486 139.521 144.181C137.614 145.778 136.66 148.357 136.661 151.915C136.621 153.491 136.871 155.06 137.397 156.545C137.825 157.721 138.503 158.789 139.384 159.677C140.229 160.501 141.255 161.116 142.38 161.474C143.594 161.864 144.863 162.057 146.138 162.046C148.006 162.079 149.866 161.794 151.639 161.203C153.052 160.754 154.339 159.98 155.398 158.942L155.399 143.038Z" fill="white"/>
<path d="M185.402 154.419L174.126 153.819C174.246 156.221 175.302 158.479 177.068 160.11C179.037 161.643 181.496 162.407 183.987 162.261C185.124 162.268 186.26 162.213 187.391 162.097C188.329 162 189.258 161.827 190.169 161.58C191.027 161.342 191.858 161.014 192.648 160.6C193.517 160.139 194.354 159.62 195.154 159.047L197.495 162.969C195.656 164.292 193.588 165.261 191.395 165.829C188.966 166.39 186.479 166.655 183.987 166.617C181.577 166.658 179.179 166.271 176.904 165.473C174.963 164.79 173.183 163.715 171.675 162.315C170.28 161.002 169.184 159.404 168.462 157.63C167.728 155.813 167.358 153.87 167.372 151.91C167.36 149.937 167.749 147.982 168.517 146.164C169.27 144.379 170.404 142.78 171.839 141.479C173.394 140.092 175.209 139.028 177.178 138.347C179.49 137.551 181.923 137.164 184.367 137.203C186.596 137.171 188.814 137.512 190.931 138.211C192.754 138.813 194.432 139.787 195.86 141.07C197.221 142.331 198.274 143.887 198.939 145.619C199.668 147.541 200.029 149.583 200 151.639C200 152.038 199.982 152.447 199.946 152.864C199.91 153.278 199.836 153.689 199.727 154.09L199.401 154.417L185.402 154.419ZM193.355 149.897C193.209 146.92 192.329 144.787 190.714 143.497C188.885 142.14 186.642 141.456 184.367 141.563C181.83 141.413 179.322 142.165 177.287 143.687C175.485 145.282 174.355 147.501 174.126 149.896L193.355 149.897Z" fill="white"/>
</g>
</svg>
