<svg xmlns="http://www.w3.org/2000/svg" height="16" width="20" viewBox="0 0 448 512"><!--!Font Awesome Free 6.5.1 by @fontawesome - https://fontawesome.com License - https://fontawesome.com/license/free Copyright 2023 Fonticons, Inc.--><path opacity="1" fill="#1E3050" d="M96 0C43 0 0 43 0 96V416c0 53 43 96 96 96H384h32c17.7 0 32-14.3 32-32s-14.3-32-32-32V384c17.7 0 32-14.3 32-32V32c0-17.7-14.3-32-32-32H384 96zm0 384H352v64H96c-17.7 0-32-14.3-32-32s14.3-32 32-32zm32-240c0-8.8 7.2-16 16-16H336c8.8 0 16 7.2 16 16s-7.2 16-16 16H144c-8.8 0-16-7.2-16-16zm16 48H336c8.8 0 16 7.2 16 16s-7.2 16-16 16H144c-8.8 0-16-7.2-16-16s7.2-16 16-16z"/>
  <g id="長方形_27" data-name="長方形 27" fill="none" stroke="#fff" stroke-width="2">
    <rect width="28" height="21" stroke="none"/>
    <rect x="1" y="1" width="26" height="19" fill="none"/>
  </g>
  <path id="パス_23" data-name="パス 23" d="M7592.5-39.36l-12.929,7.8-12.928-7.8" transform="translate(-7565.721 44.667)" fill="none" stroke="#fff" stroke-width="2"/>
</svg>