<svg xmlns="http://www.w3.org/2000/svg" width="21.619" height="21.611" viewBox="0 0 21.619 21.611">
  <path id="phone" d="M22.489,24.986h-.141C6.015,24.047,3.7,10.265,3.372,6.06A2.494,2.494,0,0,1,5.666,3.375h4.58a1.662,1.662,0,0,1,1.546,1.047l1.263,3.109a1.662,1.662,0,0,1-.366,1.8l-1.77,1.787a7.788,7.788,0,0,0,6.3,6.317l1.8-1.787a1.662,1.662,0,0,1,1.8-.341l3.133,1.255A1.662,1.662,0,0,1,24.983,18.1v4.389a2.494,2.494,0,0,1-2.494,2.494ZM5.866,5.037a.831.831,0,0,0-.831.831v.066c.383,4.921,2.834,16.557,17.405,17.388a.831.831,0,0,0,.881-.781V18.1l-3.133-1.255L17.8,19.217l-.4-.05c-7.231-.906-8.212-8.137-8.212-8.212l-.05-.4L11.5,8.17,10.254,5.037Z" transform="translate(-3.364 -3.375)" fill="#0f68b7"/>
</svg>
