<svg xmlns="http://www.w3.org/2000/svg" width="199.405" height="215.169" viewBox="0 0 199.405 215.169">
  <g id="グループ_450" data-name="グループ 450" transform="translate(-172.441 -283.386)">
    <path id="パス_215" data-name="パス 215" d="M259.575,299.525c-20.427-.669-39.159-1.358-55.137,1.127A5.3,5.3,0,0,0,200.126,305a385.316,385.316,0,0,0-5.37,45.645,3.956,3.956,0,0,0,3.827,4.312h53.973a5.248,5.248,0,0,0,5.054-4.212,224.11,224.11,0,0,0,5.717-47.1A3.984,3.984,0,0,0,259.575,299.525Z" transform="translate(95.129 66.165)" fill="#356f4e"/>
    <rect id="長方形_120" data-name="長方形 120" width="3.171" height="78.764" transform="translate(357.539 366.777) rotate(8.421)" fill="#767676"/>
    <path id="パス_216" data-name="パス 216" d="M258.387,324.565c-20.374,1.411-39.059,2.722-55.042,3.148-2.169.058-3.912-.232-4.364-.721a28.1,28.1,0,0,1-6-10.013c-.184-.516,1.542-1.074,3.764-1.211l53.868-3.333c2.406-.148,4.528.116,5.107.642,3.812,3.459,5.96,6.718,6.365,10.324C262.136,323.9,260.493,324.417,258.387,324.565Z" transform="translate(87.53 123.713)" fill="#356f4e"/>
    <rect id="長方形_121" data-name="長方形 121" width="3.393" height="58.685" transform="translate(346.498 439.87)" fill="#767676"/>
    <path id="パス_217" data-name="パス 217" d="M258.4,309.275c-3.885-.142-30.346-1.211-46.508,1.016-14.457,2-18.99,7.455-18.99,7.455L188.565,328.7l15.146,60.923H221.39l-7.028-35.947a32.893,32.893,0,0,1,.453-8.134c.59-3.006,1.169-4.522,2.717-4.6s2.285,1.385,3.175,4.327c.721,2.4,3.017,4.586,3.132,7.434l10.7,37.058,15.11-.095s4.754-25.766,6.038-34.4c.827-5.549,2.717-22.28,2.717-22.28,8.992,0,17.147-5.67,16.278-11.856C273.579,313.324,275.016,309.886,258.4,309.275Z" transform="translate(68.764 108.788)" fill="#00337b"/>
    <path id="パス_218" data-name="パス 218" d="M201.366,310.084l16.917-1.427,1.223,9.682h-18.14Z" transform="translate(123.354 107.774)" fill="#00337b"/>
    <rect id="長方形_122" data-name="長方形 122" width="9.172" height="83.705" transform="translate(269.302 414.717)" fill="#1a1311"/>
    <rect id="長方形_123" data-name="長方形 123" width="12.739" height="2.038" transform="translate(323.598 363.096) rotate(5.877)" fill="#b3e1f9"/>
    <path id="パス_219" data-name="パス 219" d="M252.882,309.838H182.109l-2.817,15.941,93.19.032-5.575-8.429A16.807,16.807,0,0,0,252.882,309.838Z" transform="translate(29.217 112.811)" fill="#002f4b"/>
    <path id="パス_220" data-name="パス 220" d="M216.577,310.826H190.488l5.02,70.563,21.069.114Z" transform="translate(76.965 117.026)" fill="#002f4b"/>
    <path id="パス_221" data-name="パス 221" d="M303.337,324.65c1.163-6.286-.653-12.425-6.991-13.288-7.7-1.048-23.375-.874-27.961-1.042-30.888-1.142-92.985,5.033-90.289,5.5l-.953,17.937c0,3.912,3.275,6.028,6.907,7.486,9.882,3.964,25.4,4.375,41.991,2.7,16.721-1.69,31.736-.1,42.6-3.259l-8.065,43.5,22.675.1Z" transform="translate(20.052 114.266)" fill="#003757"/>
    <path id="パス_222" data-name="パス 222" d="M207.591,294.494c1.006-4.375-.842-8.534-4.133-9.292s-6.381,2.279-7.06,6.9c-.69,4.691,1.327,8.613,3.417,8.95C203.148,301.586,206.586,298.874,207.591,294.494Z" transform="translate(101.584 7.252)" fill="#462c1e"/>
    <path id="パス_223" data-name="パス 223" d="M265.561,311.385l-.016-.253a11.5,11.5,0,0,0-.505-2.748l-.016-.069v.011c-2.943-9.4-17.7-15.994-35.273-15.32-16.547.632-28.445,6.865-32.694,15.768a23.028,23.028,0,0,0-1.3,1.937,10.085,10.085,0,0,0-1.3,4.433c-.026.632-2.116,30.735-2.116,30.735l.037,3.864c-.279,4.07,2.206,4.665,5.633,4.422,0,0,41.17,7.887,62.329,1.927a8.653,8.653,0,0,0,2.5-1.158,2.706,2.706,0,0,0,.479-.342l.021-.021a8.97,8.97,0,0,0,3.08-4.5c1.553-3.77,1.722-8.355,2.111-12.835C268.957,332.318,266.63,317.719,265.561,311.385Z" transform="translate(84.884 40.828)" fill="#54c0f1"/>
    <path id="パス_224" data-name="パス 224" d="M249.451,315.678l-.005-.248a14.9,14.9,0,0,0-.39-2.753l-.011-.063-.005.011c-2.253-9.4-13.567-15.994-27.039-15.326-12.688.637-23.607,7.513-26.86,16.415l-.111.316a15.833,15.833,0,0,0-.874,4.7c-.016.632.116,29.108.116,29.108h0l-.132,1.085.042.005c-.211,4.064,1.048,7.371,3.222,8.018,0,0,31.83,9.408,48.051,3.448a6.128,6.128,0,0,0,1.911-1.164,1.8,1.8,0,0,0,.369-.337l.016-.021a9.4,9.4,0,0,0,2.364-4.5c1.19-3.764,1.316-8.355,1.616-12.83C252.057,336.61,250.277,322.016,249.451,315.678Z" transform="translate(92.539 59.136)" fill="#54c0f1"/>
    <path id="パス_225" data-name="パス 225" d="M198.162,297.614H213.7v-4.68a67.824,67.824,0,0,0-15.536,0Z" transform="translate(109.692 38.816)" fill="#b3e1f9"/>
    <path id="パス_226" data-name="パス 226" d="M209.171,300.4l1.632-5.459-7.292-.748.484,5.675a1.617,1.617,0,0,0,.748,1.111c-2.5,18.974-5.065,36.8-7.881,50.6l3.4,9.992,5.359-9.092c.521-15,1.432-32.336,2.6-51.146A1.631,1.631,0,0,0,209.171,300.4Z" transform="translate(104.148 46.077)" fill="#00337b"/>
    <path id="パス_227" data-name="パス 227" d="M337.035,307.825c-17.405-1.327-40.559-2.137-65.977-2.137s-48.567.811-65.977,2.137H173.1v6.054c0,4.522,43.855,8.192,97.955,8.192s97.96-3.669,97.96-8.192v-6.054Z" transform="translate(2.827 95.112)" fill="#513425"/>
    <ellipse id="楕円形_14" data-name="楕円形 14" cx="97.957" cy="8.19" rx="97.957" ry="8.19" transform="translate(175.931 394.749)" fill="#a06c4e"/>
    <path id="パス_228" data-name="パス 228" d="M218.943,313.327c-4.991,2.053-9.629,3.464-13.441,3.364l-2.69-10.724,13.446-3.37Z" transform="translate(129.522 81.93)" fill="#54c0f1"/>
    <path id="パス_229" data-name="パス 229" d="M225.707,287.692a4.588,4.588,0,0,0-1.1-.305,18.464,18.464,0,0,0-6.1-2.48,23.63,23.63,0,0,0-7.028.484,28.253,28.253,0,0,0-3.67-.053c-5.86.437-10.14,2.064-10.84,4.349-.132.437.195.895.558,1.311l-1.285,1.164c-.416,3,.979,7.249,1.016,9.713.253,15.178,7.228,18.879,19.611,17.216.084.053.158.11.242.158,3.949,2.159,9.5-.811,12.4-6.628a16.843,16.843,0,0,0,1.374-3.912l.005.011c.063-.232.116-.453.168-.679a18.471,18.471,0,0,0,2.016-5.9A13.361,13.361,0,0,0,225.707,287.692Z" transform="translate(101.168 6.019)" fill="#462c1e"/>
    <path id="パス_230" data-name="パス 230" d="M224.651,298.518a1.987,1.987,0,0,0-1.369.174c-1.521-6.9-7.839-12.082-13.872-12.082a13.9,13.9,0,0,0-2.274.184,5.462,5.462,0,0,0-1.39-.184c-4.2,0-8.36,4.633-8.36,9.224,0,1.232.205,1.869.253,3.006.079,1.848-1.153,4.259-.758,6.012,1.537,6.881,4.633,10.687,8.913,11.845a33.569,33.569,0,0,1-1.274,8.129l2.985,1.732,10.808-2.8a32.8,32.8,0,0,1-.895-9.282c2.99-1.653,3.933-3.517,5.18-6.87a3.107,3.107,0,0,0,2.153-2.259c.021-.063-.211.353.037-.184a10.41,10.41,0,0,0,1.458-2.432C226.742,300.75,226.031,298.86,224.651,298.518Z" transform="translate(103.892 13.747)" fill="#f9bb90"/>
    <path id="パス_231" data-name="パス 231" d="M213.241,302.165c-.226-2.511-2.037-3.67-2.89-.232a23.384,23.384,0,0,0-.427,3.243,1.781,1.781,0,0,0-.237.016,8.906,8.906,0,0,0-2.132-2.1,31.134,31.134,0,0,0-5.644-8.613s-3.169-2.09-4.017-1.532c-.337.221-.158.727.179,1.253-.816-.742-2.269-1.937-2.864-1.543-.853.558.984,3.475.984,3.475a46.865,46.865,0,0,1,2.827,4.138,33.651,33.651,0,0,0-2.906-3.675s-3.164-2.09-4.012-1.532,1.558,2.911,1.558,2.911a61.728,61.728,0,0,1,6.118,10.087l-.195.39c-1.421-1.732-2.49-3.59-4.538-4.928-.879-.574-3.306-1.758-4.054-1.069s1.369,2.106,2.016,2.622c2.917,2.348,4.838,6.107,7.523,9.845a6.25,6.25,0,0,0,.937,1.811,7.252,7.252,0,0,0,1.637,1.548V326l8.882-.442.732-11.5c.163-.779.311-1.569.374-2.111a11.522,11.522,0,0,0-.221-3.569A41.647,41.647,0,0,0,213.241,302.165Z" transform="translate(78.445 39.208)" fill="#f9bb90"/>
    <path id="パス_232" data-name="パス 232" d="M227,308.973l.032.005c.147-2.522-3.991-3.206-10.645-4.6a20.918,20.918,0,0,0-5.765-.711c-3.238.405-5.654,1.448-6.37,2.848,0,0-.884.816-1.827,1.658-1.448.368-3.022.974-2.353,1.637a1.384,1.384,0,0,0,.263.184,8.642,8.642,0,0,0-.663.584,4.261,4.261,0,0,0-1.158,1.69l-.405.268c-1.4,2-.816,2.7,1.242,2.417l1.327-.858c.005.379.284.642.842.789a2.412,2.412,0,0,0,1.416-.089c.005.421.637.684,2.538.611l9.592-4.033a19.7,19.7,0,0,0,3.227.684c4.67.6,8.608-.463,8.808-2.369A1.713,1.713,0,0,0,227,308.973Z" transform="translate(106.191 86.332)" fill="#f9bb90"/>
    <path id="パス_233" data-name="パス 233" d="M231.116,295.064c-.927-3.659-3.411-6.207-5.544-5.681-.721.179-9.3-2.248-9.3-2.248a21.4,21.4,0,0,0-9.139-1.706,31.552,31.552,0,0,1-7.465.474c-.821-.1-3.343,6.133-3.343,6.133.084,1.779-.453,4.422.816,5.707l3.854-4.754.837-.321c3.848,2.538,11,4.691,19.416,5.554.884.09,1.758.158,2.627.216,1.142,2.843,3.227,4.659,5.065,4.206C231.069,302.124,232.048,298.728,231.116,295.064Z" transform="translate(101.661 8.487)" fill="#462c1e"/>
    <path id="パス_234" data-name="パス 234" d="M197.949,296.031a18.545,18.545,0,0,0,0,8.055l6.707-3.032a14.144,14.144,0,0,1-3.7-8.482Z" transform="translate(106.898 39.177)" fill="#b3e1f9"/>
    <path id="パス_235" data-name="パス 235" d="M213.748,296.831a30.958,30.958,0,0,1-7.923,8.4.783.783,0,0,1-.921.016l-6.038-4.191c5.4-3.164,9.54-6.034,11.835-8.482Z" transform="translate(112.69 39.177)" fill="#b3e1f9"/>
    <path id="パス_236" data-name="パス 236" d="M205.655,307.44a31.212,31.212,0,0,1-12.993-1.174l.705-7.839a.709.709,0,0,1,.848-.627,49.1,49.1,0,0,0,11.419,1.042.7.7,0,0,1,.727.763Z" transform="translate(86.236 61.41)" fill="#b3e1f9"/>
    <path id="パス_237" data-name="パス 237" d="M202.641,311.992c.963-2.19.574-4.78-.648-7.618l6.591-.558c1.458,2.648,1.748,5.2.642,7.618Z" transform="translate(126.03 87.129)" fill="#b3e1f9"/>
    <path id="パス_238" data-name="パス 238" d="M232.082,309.448c-.29-.5-3.891.563-5.165.995-.879.3-2.238.79-3.738,1.343A47.368,47.368,0,0,0,228,309.716c.927-.5,2.9-2.132,2.574-2.7-.289-.5-3.891.563-5.17,1-1.116.379-3.011,1.074-4.991,1.806l-.026-.137a58.662,58.662,0,0,0,5.991-2.511c.927-.5,2.9-2.132,2.574-2.7-.289-.5-3.891.563-5.17,1-1.848.626-5.833,2.111-8.8,3.233l-4.665-.095c1.469-1.042,4.543-1.822,5.738-2.738,1.09-.837,2.448-3.954.979-4.67-.711-.347-3.269,2.48-4.875,3.19a62.674,62.674,0,0,0-11.909,7.423l-14.267,5.5,3.78,9.819,14.146-5.454c4.417-.547,9.429-.953,13.846-2.469a20.666,20.666,0,0,1,1.99-.611c2.975-.584,6.191-.695,7.808-1.1,1.021-.258,3.338-1.348,3.159-1.98-.153-.558-3.906-.416-5.249-.311-.942.074-2.411.216-4.038.384l-.021-.147a76.513,76.513,0,0,0,8.1-3.29C230.434,311.649,232.408,310.016,232.082,309.448Z" transform="translate(57.756 75.817)" fill="#f9bb90"/>
    <path id="パス_239" data-name="パス 239" d="M210.985,310.582a2.115,2.115,0,0,1-1.743-1.969,2.647,2.647,0,0,0-.963-.2,2.237,2.237,0,0,0-1.922-2.653c-.205-.026-.405-.047-.611-.068a3.145,3.145,0,0,0-2.227-2.638c-1.479-.279-2.053.674-3.28,2.211a4.359,4.359,0,0,0-.732,1.3c-2.19,2.39-4.391,6.444-6.591,11.582l.447.368a3.989,3.989,0,0,0,.516,3.569c1.032,1.316,3,1.648,5.159,1.079l1.511,1.232c4.933-3.517,9.7-7.028,11.045-10.456l-.042-.026a2.6,2.6,0,0,0,.316-.432A1.958,1.958,0,0,0,210.985,310.582Z" transform="translate(87.323 83.695)" fill="#f9bb90"/>
    <ellipse id="楕円形_15" data-name="楕円形 15" cx="6.706" cy="7.798" rx="6.706" ry="7.798" transform="translate(277.092 398.347) rotate(-30)" fill="#e0e0e0"/>
    <path id="パス_240" data-name="パス 240" d="M220.436,291.938c1.669,4.375-1.99,6.918-4.743,10.708-2.58,3.548-5.1,8.6-12.925,13.367-10.066,6.128-20.943-5.044-21.954-14.051s7.107-18.884,18.284-18.569C209.575,283.683,218.162,285.983,220.436,291.938Z" transform="translate(35.345)" fill="#1f1720"/>
    <path id="パス_241" data-name="パス 241" d="M218.883,310.841a9.287,9.287,0,0,0-1.19-2.827c-.237-.647-.184-1.216.453-2.822s.026-4.175-.558-6.97a20.623,20.623,0,0,0-2.648-5.912c-8.829-.864-13.588-4.091-18.01-7.513L186.285,292,180.3,309.983s3.385,5.47,5.823,9.782l-1.985,10.771,1.585.242-.126.142s.848.053,2.043.147l9.587,1.453,4.48,1.048s1.685-8.555,3.7-8.966,6.355.358,8.792-1.248,2.064-3.627,2.622-5.028C217.362,316.964,219.094,313.126,218.883,310.841Z" transform="translate(33.533 6.019)" fill="#f9bb90"/>
    <path id="パス_242" data-name="パス 242" d="M208.665,305.957c4.328-5.8,6.512-12.235,6.428-17.637l-6.918-4.875s-9.366-.258-21.864,6.065c-3.864,1.953-6.339,8.466-7.134,11.861-.942,3.991-.226,11.5.516,15.541.663,3.606,7.17,13.435,7.17,13.435l.026-.005c2.064,2.143,5.238,3.406,9.945,2.375,5.275-1.158,8.381-4.259,9.445-7.518l.142-.037.037-.59a8.189,8.189,0,0,0,.216-1.216,52.94,52.94,0,0,0,.263-5.507l.753-10.645C208.023,306.794,208.349,306.383,208.665,305.957Z" transform="translate(26.81 0.248)" fill="#1f1720"/>
    <ellipse id="楕円形_16" data-name="楕円形 16" cx="17.936" cy="13.995" rx="17.936" ry="13.995" transform="translate(206.034 333.331)" fill="#e0e0e0"/>
    <path id="パス_243" data-name="パス 243" d="M280.15,355.883c-2.153-3.727-6.5-5.249-9.7-3.4l-8.887-.342-1.332-14.294a70.836,70.836,0,0,0-8.044-23.491c-1.558-2.911-5.128-6.644-7.334-8.66-9.871-9.029-15.452-10.513-31.388-11.909-5.849-.511-13.751.321-18.289,1.953-14.394,5.159-20.3,18.611-20.3,38.3a41.154,41.154,0,0,0,.595,6.928h-.005l.021.09a39.5,39.5,0,0,0,1.49,5.875l9.44,37.248-1.974,19.195c16.542,5.5,36.695,6.844,61.4,2.132h0l5.786-.195a6.815,6.815,0,0,0,6.512-7.792l-3.706-22.154,23.191-9.06a5.716,5.716,0,0,0,.621-.311C281.445,364.138,282.3,359.616,280.15,355.883Z" transform="translate(10.367 43.717)" fill="#00467b"/>
    <path id="パス_244" data-name="パス 244" d="M192.369,293.949c1.1,4.08.063,8.923-2.453,8.576-1.39-.195-4.591-2.7-6.418-6.191-1.958-3.743,0-7.918,2.448-8.576S191.275,289.868,192.369,293.949Z" transform="translate(43.748 18.232)" fill="#f9bb90"/>
    <rect id="長方形_124" data-name="長方形 124" width="3.057" height="81.121" transform="translate(172.441 380.81) rotate(-5.976)" fill="#767676"/>
    <path id="パス_245" data-name="パス 245" d="M237.606,358.706c-20.422.669-39.153.137-55.132-2.343a5.31,5.31,0,0,1-4.317-4.343,387.589,387.589,0,0,1-5.37-45.65,3.962,3.962,0,0,1,3.833-4.312h53.974a5.252,5.252,0,0,1,5.054,4.217,235.861,235.861,0,0,1,5.717,48.324A3.986,3.986,0,0,1,237.606,358.706Z" transform="translate(1.439 79.632)" fill="#356f4e"/>
    <rect id="長方形_125" data-name="長方形 125" width="3.14" height="38.442" transform="translate(281.325 459.981)" fill="#767676"/>
    <rect id="長方形_126" data-name="長方形 126" width="3.14" height="38.983" transform="translate(180.811 459.439)" fill="#767676"/>
    <rect id="長方形_127" data-name="長方形 127" width="3.14" height="38.983" transform="translate(230.416 459.439)" fill="#767676"/>
    <path id="パス_246" data-name="パス 246" d="M267.323,316.038a511.452,511.452,0,0,1-79.249.274,17.36,17.36,0,0,0-6.207.505c-3.8,1.648-6.223,3.432-7.718,5.307-.216.274,2.306.5,5.507.5l59.364,1.7s36.921-1.9,37.706-2.185c5.159-1.89-2.259-5.1-4-5.617A11.793,11.793,0,0,0,267.323,316.038Z" transform="translate(7.227 138.873)" fill="#356f4e"/>
    <path id="パス_247" data-name="パス 247" d="M195.969,379.6h-3.547l-8.1-77.747,3.041-.318Z" transform="translate(50.686 77.381)" fill="#767676"/>
    <rect id="長方形_128" data-name="長方形 128" width="3.547" height="41.445" transform="translate(243.108 456.977)" fill="#767676"/>
  </g>
</svg>
