<svg xmlns="http://www.w3.org/2000/svg" width="211.295" height="245.844" viewBox="0 0 211.295 245.844">
  <g id="image-person-talking.svg" transform="translate(-1808.665 516.185)">
    <g id="グループ_275" data-name="グループ 275">
      <path id="パス_281" data-name="パス 281" d="M1985.658-282.563l-.828-8.758,8.787.211-.084,10.028Z" fill="#ffc99c" fill-rule="evenodd"/>
      <path id="パス_282" data-name="パス 282" d="M1985.227-283.3c-2.483,4.462-6.531,8.73-3.371,12.52h16.086c.026-.072.053-.151.078-.235a2.614,2.614,0,0,0,.4-2.636c-.932-3.529-3.672-8.953-4.613-9.232-1.867-.553-4.518,1.006-8.584-.417" fill="#0555a5" fill-rule="evenodd"/>
      <path id="パス_283" data-name="パス 283" d="M1980.657-273.734v.007a2.944,2.944,0,0,0,1.2,2.944h16.086c.83-.482,1.048-.814.482-2.871Z" fill="#1d3975" fill-rule="evenodd"/>
      <path id="パス_284" data-name="パス 284" d="M1958.717-403.949l9.414,38.237,4.806,22.764L1983.6-287.5a13.4,13.4,0,0,0,5.865.821,27.019,27.019,0,0,0,5.431-.742c.079-16.372.487-38.386.627-58.175.123-17.4.572-32.877.638-46.076.029-5.713-6.463-21.871-6.381-21.665Z" fill="#0f68b7" fill-rule="evenodd"/>
      <path id="パス_285" data-name="パス 285" d="M1946.822-282.563l.033-9.057,8.787.211-.945,10.328Z" fill="#ffc99c" fill-rule="evenodd"/>
      <path id="パス_286" data-name="パス 286" d="M1946.24-284.5s-13.8,5.672-17.666,7.568c-3.007,1.473-4.709,4.571-2.24,6.15h30.075c.026-.072.052-.15.078-.235.446-1.486,1.615-12.1-1.513-11.868a13.411,13.411,0,0,1-8.734-1.615" fill="#0555a5" fill-rule="evenodd"/>
      <path id="パス_287" data-name="パス 287" d="M1925.135-273.734v.007l-.02.66a2.742,2.742,0,0,0,1.226,2.284h30.213c.026-.072.052-.151.078-.235.087-.29.3-1.8.406-2.636Z" fill="#1d3975" fill-rule="evenodd"/>
      <path id="パス_288" data-name="パス 288" d="M1946.083-406.005c-3.242,40.935-1.567,80.426-.1,118.473a34.358,34.358,0,0,0,7.826.7c3.608-.209,2.95-.626,2.95-.626l8.445-60.359s1.91-13.744,6.379-24.456c3.228-7.735,7.186-9.964,6.6-18.953-.6-9.308.177-16.522-1.1-19.739s-7.676-1.925-7.676-1.925Z" fill="#0f68b7" fill-rule="evenodd"/>
      <path id="パス_289" data-name="パス 289" d="M1963.314-334.3l1.891-13.516a129.941,129.941,0,0,1,3.385-15.723h0l-1.789-12.809-3.716,32.124Z" fill="#0555a5" fill-rule="evenodd"/>
      <path id="パス_290" data-name="パス 290" d="M1959.847-456.016c-4.8,10.875-6.726,35.144-20.4,45.342-12.278,4.9-19.162,12.141-26.121,6.046-3.025-2.648-2.2-4.357-.985-5.424,5.465-4.306,23.181-18.59,24.324-19.88,3.3-3.728,12.314-40.748,22.275-44.5,1.178-.779,4.315,13.144.905,18.412" fill="#5fd2ff" fill-rule="evenodd"/>
      <path id="パス_291" data-name="パス 291" d="M1954.184-444.5c-3.358,5.243-1.347,25.61-14.735,33.825-4.921,2.124-16.075,10.218-23.449,7.925l.588-.174s15.423-7.285,21.846-12.041,14.932-38.85,14.932-38.85-.207,7.082.818,9.315" fill="#5fd2ff" fill-rule="evenodd"/>
      <path id="パス_292" data-name="パス 292" d="M1924.7-403.4c-2.539,1.242-2.551.733-5.126,1.967-2.629,1.259-10.007-3.135-8.243-7.377.918-1.495,2.971-3.192,6.693-6,3.2,1.854,5.695,7.128,6.676,11.406" fill="#94e6ff" fill-rule="evenodd"/>
      <path id="パス_293" data-name="パス 293" d="M1910.763-407.742c-1.223-.348-6.088-1.667-7.227-1.276-.582.2-.461.381-.317.679a2.319,2.319,0,0,0,1.034.843c.856.33,1.95,1.588,2.448,1.7-2.357,4.685-9.334,6.392-7.876,8.745.509.226,3.759.414,4.583.683,2.619.855,4,.995,12.128-5.545.384-.309,1.575-.929,1.988-1.27a9.074,9.074,0,0,0-3.7-4.868Z" fill="#ffc99c" fill-rule="evenodd"/>
      <path id="パス_294" data-name="パス 294" d="M1998.532-428.986c-1.577,10.437-2.229,22.876-1.333,39.138-21.034,3.613-39.769,2.88-52.331-1.12-.97-14.36-1.262-80.8,17.87-85.327,6.914-1.938,12.284-1.763,19.615-1.016,7.425.757,12.236,2.508,16.115,6.333,12.995,12.2,17.623,54.465,19.756,72.23.312,2.6-5.767,6.645-8.869,3.918a21.261,21.261,0,0,1-3.324-7.089c-2.874-9.645-6.024-24.561-7.5-27.067" fill="#5fd2ff" fill-rule="evenodd"/>
      <path id="パス_295" data-name="パス 295" d="M2017.638-403.508c.323,2.52.5,4.062.807,6.61.313,2.6-6.174,5.933-9.276,3.206-1.007-1.214-1.857-3.452-3.169-7.429,2.5-2.187,7.713-2.788,11.638-2.387" fill="#94e6ff" fill-rule="evenodd"/>
      <path id="パス_296" data-name="パス 296" d="M1998.574-428.913c-1.639,10.431-1.764,25.973-1.375,39.065-19.178,3.294-36.963,3.294-50.179-.539,8.454.98,40.75,1.491,43.272-6.613,1.441-4.633,1.765-28.2,4.391-41.726,1.852,2.036,2.713,6.593,3.891,9.813" fill="#5fd2ff" fill-rule="evenodd"/>
      <path id="パス_297" data-name="パス 297" d="M1963.051-487.477c1.479,2.944,3.071,5.094,5.382,6.2l-.079,4.278-.623.53c-2.438,2.612.551,6.221,3.327,6.056,10.917.538,7.662-4.392,9.484-7.414l-1.057-6.354c.363-.02,3.4-1.609,4.188-1.85a4.069,4.069,0,0,0,2.014-3.35c.077-1.6-2.39-1.079-2.39-1.079,2.988-4.09,6.372-7.43,1.984-11.112s-14.466-5.831-14.466-5.831l-6.066-2.1c.772,2.093-.26,9.076-1.818,13.436-1.4,3.912-1.865,4.639.12,8.592" fill="#ffc99c" fill-rule="evenodd"/>
      <path id="パス_298" data-name="パス 298" d="M1977.031-483.429s-3.431,5.884-6.249,6.417-1.378.139-2.429.014l.08-4.278c1.942.312,3.842.158,8.6-2.153" fill="#f2b486" fill-rule="evenodd"/>
      <path id="パス_299" data-name="パス 299" d="M1988.222-500.116c1.023-3.333-.067-6.84-3.353-9.407-6.81-5.32-12.659-2.379-15.185-1.76-1.746.429-2.925.383-4.642.741-4.293.9-4.658,9.827-1.563,12.761.307.291.784-3.8,1.129-3.537a7.5,7.5,0,0,0,1.2.863c5.044,2.584,10.851-.481,13.788,2.978,1.454,1.713,1.308,4.183-.321,8-.48,1.124-1.121,1.952.777,1.072.872-.4,2.307-.967,2.8-.571,1.091.881.541,2.734-.33,3.331-.388.266-1.124.664-1.124.664,8.017-1.52,9.891-12.755,6.822-15.132" fill="#563e27" fill-rule="evenodd"/>
      <path id="パス_300" data-name="パス 300" d="M2010.425-395.2c-.073,3.152-.292,4.534-.5,7.6-.046.678,1.063,1.949,1.948,2.8h6.742a.072.072,0,0,0,.025-.024c.938-.659,1.374-3.2,1.31-4.1a4.565,4.565,0,0,0-.379-1.3c-.457-1.26-1.166-3.031-1.291-3.383-.3-.835-.835-1.578-.664-2.477a9.831,9.831,0,0,0-7.19.881" fill="#ffc99c"/>
      <path id="パス_301" data-name="パス 301" d="M1971.225-471.544c1.3,1.506,3.578,3.911,4.872,5.417a26.546,26.546,0,0,0,6.963-10.593c-.63-.637-1.894-1.345-2.524-1.982-1.434,2.776-4.085,5.256-9.311,7.158" fill="#94e6ff" fill-rule="evenodd"/>
      <path id="パス_302" data-name="パス 302" d="M1960.623-419.723l4.657,8.961q3.12-4.537,6.243-9.075c-1.037-12.521-.1-30.77.027-46.273l2.145-2.47-2.477-2.977-2.912,2.056,1.247,3.347c-4.272,10.541-8.219,39.627-8.93,46.431" fill="#355298"/>
      <path id="パス_303" data-name="パス 303" d="M1971.225-471.544c-1.457,1.308-3.842,2.916-5.3,4.225a21.578,21.578,0,0,1,.78-9.627l1.6-.866c.117,2.4,1.487,4.433,2.918,6.268" fill="#94e6ff" fill-rule="evenodd"/>
      <path id="パス_304" data-name="パス 304" d="M1989.535-447.221l-12.105-1.066-.335,2.409,12.1,1.071Z" fill="#94e6ff" fill-rule="evenodd"/>
    </g>
    <g id="image-person">
      <path id="パス_305" data-name="パス 305" d="M1840.552-282.638l.865-9.142-9.173.22.088,10.468Z" fill="#ffc99c" fill-rule="evenodd"/>
      <path id="パス_306" data-name="パス 306" d="M1841-283.41c1.778,6.347,6.817,9.113,3.518,13.069h-16.792c-.027-.075-.055-.158-.081-.245-.163-.543-.946-.768-.422-2.752.973-3.684,3.833-9.345,4.816-9.636,1.949-.578,4.716,1.05,8.961-.436" fill="#355298" fill-rule="evenodd"/>
      <path id="パス_307" data-name="パス 307" d="M1845.594-273.422v.008l.02.689a2.86,2.86,0,0,1-1.273,2.384h-16.613a2.38,2.38,0,0,1-.5-3Z" fill="#1d3975" fill-rule="evenodd"/>
      <path id="パス_308" data-name="パス 308" d="M1868.675-409.349l-9.827,39.915-5.016,23.762L1842.7-287.794a13.981,13.981,0,0,1-6.122.858,28.253,28.253,0,0,1-5.669-.775c-.082-17.09,0-38.792,1.848-60.6,1.55-18.278-2.146-33.58-1.026-53.739.33-5.955,4.6-17.314,4.518-17.1Z" fill="#0555a5" fill-rule="evenodd"/>
      <path id="パス_309" data-name="パス 309" d="M1881.092-282.638l-.035-9.455-9.172.22.987,10.781Z" fill="#ffc99c" fill-rule="evenodd"/>
      <path id="パス_310" data-name="パス 310" d="M1881.7-284.661c4.552,5.4,14.345,6.55,18.442,7.9,3.319,1.094,4.915,4.771,2.338,6.42h-31.394c-.028-.075-.055-.157-.081-.245-.466-1.552-1.687-12.635,1.578-12.388a14,14,0,0,0,9.117-1.687" fill="#355298" fill-rule="evenodd"/>
      <path id="パス_311" data-name="パス 311" d="M1903.73-273.422v.008l.021.689a2.862,2.862,0,0,1-1.273,2.384h-31.394c-.028-.075-.055-.157-.081-.245-.091-.3-.313-1.879-.423-2.752Z" fill="#1d3975" fill-rule="evenodd"/>
      <path id="パス_312" data-name="パス 312" d="M1881.864-411.5l1,15.163c2.966,30.613,1.669,69.958-.9,108.509a35.9,35.9,0,0,1-8.169.731c-3.767-.218-3.079-.654-3.079-.654l-8.817-63.006s-1.993-14.348-6.659-25.529c-3.369-8.074-7.5-10.4-6.891-19.785.632-9.716-.185-17.247,1.152-20.605s8.012-2.009,8.012-2.009Z" fill="#0555a5" fill-rule="evenodd"/>
      <path id="パス_313" data-name="パス 313" d="M1863.876-336.644l-1.974-14.109a135.764,135.764,0,0,0-3.533-16.414h0l1.868-13.37,3.878,33.533Z" fill="#0555a5" fill-rule="evenodd"/>
      <path id="パス_314" data-name="パス 314" d="M1867.92-454.052c5.358,11.76,7.365,24.565,22.7,26.851,10.851.3,33.139-15.371,31.671-19.113-1.6-4.068,4.093-7.291-2.141-7.174-8.285-.025-28.567,8.074-30.437,7.943-1.769-.125-8.622-26.309-19.5-30.257-1.29-.831-6.071,16.068-2.3,21.75" fill="#0555a5" fill-rule="evenodd"/>
      <path id="パス_315" data-name="パス 315" d="M1919.212-453.521c.521-1.28,2.649-6.328,3.747-7.042.56-.365.635-.139.794.184a2.532,2.532,0,0,1,.03,1.449c-.292.955.052,2.734-.186,3.234,5.589,1.12,11.723-3.71,12.761-.886-.148.588-2.163,3.495-2.485,4.381-1.021,2.815-1.827,4.092-12.869,6.669-.522.122-1.85.728-2.419.852a9.872,9.872,0,0,1-1.691-6.425Z" fill="#ffc99c" fill-rule="evenodd"/>
      <path id="パス_316" data-name="パス 316" d="M1816.839-454.011c-11.171,31.016-10.232,34.771-1.183,54.647.8,1.747,1.419,3.591,4.093,3.591.938,0,3.755-1.877,5.632-3.754a3.432,3.432,0,0,0,1.369-2.374c-.43-7.014-6.481-17.394-2.462-23.962,9.031-14.757,17.731-29.073,12.933-38.53-.227-1.328-18.942,4.572-20.382,10.382" fill="#0f68b7" fill-rule="evenodd"/>
      <path id="パス_317" data-name="パス 317" d="M1828.573-435.784a219.02,219.02,0,0,1,2.2,44.982c20.965,3.6,40.98,2.462,53.5-1.525-.586-13.834,3.5-80.217-17-84.614-13.869-3.887-32.47-2.658-40.153,4.919l-.066.062c-5.872,5.5-13.127,23.635-16.543,36.774-6.816,26.216,12.376,11.651,18.061-.6" fill="#0f68b7" fill-rule="evenodd"/>
      <path id="パス_318" data-name="パス 318" d="M1861.89-478.281c2.517,11.424,3.392,50,3.126,62.743-.488-.959-21.834-54.068-23.64-62.885,5.853-1.665,14.065-1.44,20.514.142" fill="#fff" fill-rule="evenodd"/>
      <path id="パス_319" data-name="パス 319" d="M1865.867-437.236l-.851,21.7-9.475-19.95-.569-28.273-2.222-3.111,2.385-2.623,2.947,1.582-.983,3.58c2.913,7.762,6.829,21.048,8.768,27.1" fill="#e60000"/>
      <path id="パス_320" data-name="パス 320" d="M1828.573-435.784c1.633,10.4,2.59,31.934,2.2,44.982,5.5-13.628,2.58-49.3,1.514-54.791a68.36,68.36,0,0,1-3.716,9.809" fill="#0f68b7" fill-rule="evenodd"/>
      <path id="パス_321" data-name="パス 321" d="M1863.418-488.687a13.574,13.574,0,0,1-5.842,6.3l.079,4.264.621.528c2.429,2.6-.2,7.949-2.969,7.784-7,.345-12.369-5.393-10.265-8.507l.913-1.018.2-6.035c-.361-.021-2.989-1.514-3.771-1.754a4.06,4.06,0,0,1-2.007-3.339c-.077-1.591,2.382-1.076,2.382-1.076-2.978-4.076-6.351-7.4-1.978-11.075s14.419-5.812,14.419-5.812l6.046-2.1c-.77,2.086.259,9.046,1.811,13.392,1.392,3.9,2.337,4.5.359,8.444" fill="#ffc99c" fill-rule="evenodd"/>
      <path id="パス_322" data-name="パス 322" d="M1849.006-484.533c1.984,3.4,4.3,6.928,8.649,6.41l-.079-4.264c-1.935.311-3.83.158-8.57-2.146" fill="#f2b486" fill-rule="evenodd"/>
      <path id="パス_323" data-name="パス 323" d="M1860.187-501.5c-5.027,2.575-10.815-.48-13.742,2.967-1.45,1.708-1.3,4.17.319,7.971.479,1.12,1.118,1.945-.774,1.069-.869-.4-2.3-.964-2.788-.57-1.087.878-.538,2.726.329,3.32.387.266,1.12.662,1.12.662-6.761-1.282-9.578-7.382-9.483-12.293a20.944,20.944,0,0,1,.534-4.462,4.88,4.88,0,0,1-.214-1.436,4.662,4.662,0,0,1,3.218-4.5,4.536,4.536,0,0,1,4.408-3.926,4.28,4.28,0,0,1,1.872.43l.223-.058a4.711,4.711,0,0,1,4.078-2.333,4.716,4.716,0,0,1,3.173,1.218,6.447,6.447,0,0,1,5.18-2.743c3.71,0,6.718,3.382,6.718,7.553a7.836,7.836,0,0,1-2.97,6.269,7.514,7.514,0,0,1-1.2.861" fill="#333" fill-rule="evenodd"/>
      <path id="パス_324" data-name="パス 324" d="M1865.016-415.539h0l5.849-47.816-4.738-4,3-3.553-2.943-6.328c-1.21.022-2.858-.787-4.293-1.047,2.517,11.424,3.392,49.995,3.126,62.742" fill="#105cb5" fill-rule="evenodd"/>
      <path id="パス_325" data-name="パス 325" d="M1865.015-415.539v0l-28.855-44.333,3.36-5.209-3.907-2.521,1.4-9.694a38.424,38.424,0,0,1,4.375-1.074c1.877,8.967,23.128,61.841,23.627,62.829" fill="#0555a5" fill-rule="evenodd"/>
      <path id="パス_326" data-name="パス 326" d="M1825.8-399.394l4.493,4.109c.647.346,4.49,6.2,2.642,6.157-1.3-.028-2.7-1.674-2.754-1.557-.668,1.53.738,6.961.682,7.105-.775,2.023-3.11-2.792-3.543-3.591-.114-.209.868,3.673.645,3.633a1.811,1.811,0,0,1-1.447-1.038c-.559-1.094-1.213-3.122-1.5-3.207s.686,3.671.416,3.568a1.6,1.6,0,0,1-.97-.923c-.548-1.15-1.034-3.064-1.317-3.231s.571,2.477.317,2.3c-.2-.141-.566.066-.684-.137-3.175-5.476-.316-6.717-2.351-10.786C1822.565-401.4,1825.8-399.394,1825.8-399.394Z" fill="#ffc99c" fill-rule="evenodd"/>
    </g>
  </g>
</svg>
