<svg xmlns="http://www.w3.org/2000/svg" xmlns:xlink="http://www.w3.org/1999/xlink" width="69" height="239.307" viewBox="0 0 69 239.307">
  <defs>
    <clipPath id="clip-path">
      <rect id="長方形_267" data-name="長方形 267" width="69" height="239.307" fill="none"/>
    </clipPath>
    <clipPath id="clip-path-2">
      <rect id="長方形_266" data-name="長方形 266" width="69" height="41" transform="translate(0 198.307)" fill="none"/>
    </clipPath>
  </defs>
  <g id="グループ_514" data-name="グループ 514" clip-path="url(#clip-path)">
    <g id="グループ_513" data-name="グループ 513" style="isolation: isolate">
      <g id="グループ_512" data-name="グループ 512">
        <g id="グループ_511" data-name="グループ 511" clip-path="url(#clip-path-2)">
          <path id="パス_797" data-name="パス 797" d="M69,218.807c0,11.322-15.446,20.5-34.5,20.5S0,230.129,0,218.807s15.446-20.5,34.5-20.5,34.5,9.178,34.5,20.5" fill="#e4e4e4"/>
        </g>
      </g>
    </g>
    <path id="パス_798" data-name="パス 798" d="M47.457,211.649H42.824c-.779,0-1.407,1.543-1.407,2.321v3.814a1.419,1.419,0,0,0,1.415,1.415h4.634a1.419,1.419,0,0,0,1.415-1.415V213.97c0-.778-.646-2.321-1.424-2.321" fill="#313c5b"/>
    <path id="パス_799" data-name="パス 799" d="M41.5,207.119l.259,6.083-.1,8.9,7.238-.221-.23-15.284Z" fill="#a8b0cb"/>
    <path id="パス_800" data-name="パス 800" d="M48.835,214.648l-.383,5.464-6.2.739-.831-6.57a43.655,43.655,0,0,1-1.1,7.163,40.562,40.562,0,0,0-1.041,4.63,6.955,6.955,0,0,0,2.938,6.339,5.6,5.6,0,0,0,6.771-.527c1.695-1.667,1.964-4.282,1.93-6.659-.045-3.233-1.8-7.071-2.082-10.579" fill="#333"/>
    <path id="パス_801" data-name="パス 801" d="M46.208,217.616H44.272a2.393,2.393,0,0,0,0,4.785h1.936a2.393,2.393,0,1,0,0-4.785" fill="#333"/>
    <path id="パス_802" data-name="パス 802" d="M43.535,67.766,32.289,71.017s-.111,4.412-.111,4.693l-3.283,1.8.934,3.124c1.639,1.249,1.839,4.022,3.478,5.272a2.924,2.924,0,0,0,2.208.838,2.789,2.789,0,0,0,1.152-.639c1.27-1,10.542-2.67,10.542-2.67l.562-5.2L43.316,75.71c0-.281.219-7.663.219-7.944" fill="#f2b486"/>
    <path id="パス_803" data-name="パス 803" d="M35.372,79.4a5.917,5.917,0,0,1-4.622-2.971s-2,.954-3.631,1.716l-4.155,54.208S42.935,138.162,52,140.307l-4.347-62.23S39.23,79.809,35.372,79.4" fill="#fff"/>
    <path id="パス_804" data-name="パス 804" d="M31.633,50.805l-3.7,4.774.364,6.432.655,6.256c1.15,6.571,5.707,6.585,7.867,6.5,3.494-.14,7.381-3.328,7.774-9.611a38.375,38.375,0,0,1,.942-5.576L41.609,52.89Z" fill="#ffc99c"/>
    <path id="パス_805" data-name="パス 805" d="M40.159,47.06c-3.483-.743-6.433,1.032-9.224,3.245a9.143,9.143,0,0,0-2.723,3.308c-.9,1.991,1.837-.639,2.582-1.359,1.275-1.232,5.135-1.556,6.74-1.276,1.54.269,5.622,1.381,6.649,2.6.788.933-.772,4.356-.772,4.356l-.392.3a40.44,40.44,0,0,0,2.119,6.61,16.5,16.5,0,0,0,1.885-4.634c.654-2.234,1.107-6.315.079-8.4-1.8-3.664-3.46-4-6.943-4.745" fill="#333"/>
    <path id="パス_806" data-name="パス 806" d="M43.756,60.9l-.193,6.224c5.657.153,5.287-7.619.193-6.224" fill="#ffc99c"/>
    <path id="パス_807" data-name="パス 807" d="M30.344,77.45l5.536,4.892V77.836L30.988,75Z" fill="#fff"/>
    <path id="パス_808" data-name="パス 808" d="M32.6,84.433a71.53,71.53,0,0,0-4.8,14.3l2.515,10.1,6.656-11.41C36.662,93.368,36.8,88.8,35.7,84.583Z" fill="#2c4181"/>
    <path id="パス_809" data-name="パス 809" d="M42.629,50.929A2.054,2.054,0,0,0,41.5,49.866l-.721-.08a7.334,7.334,0,0,0-3.514-2.157c-1.609-.423-3.275.236-4.823.869s-3.235,1.258-4.828.77a4.366,4.366,0,0,0,1.9,1.388,2.378,2.378,0,0,0-2.241,1.456,5.329,5.329,0,0,0-.35,2.9A33.367,33.367,0,0,0,28.2,59.482c-.356-3.618,10.6-3.758,11.816-5.018-.181,1.148.034.822.674,1.767s1.97,5.548,1.765,6.693c.275-.521,1.406-2.117,1.745-2.691a13.648,13.648,0,0,0,1.249-6.922c-.067-.543-2.578-1.9-2.821-2.382" fill="#333"/>
    <path id="パス_810" data-name="パス 810" d="M25.1,204.421l-3.654,5.468,12.964-2.206.164-10.109-9.077.632Z" fill="#a8b0cb"/>
    <path id="パス_811" data-name="パス 811" d="M23.01,175.8l12.634-17.627c-.044-2.938-.082-5.872-.114-8.75l.619.2.737-19.259-16.762-.641c1.1,11.6,2.106,30.448,2.886,46.082" fill="#0f68b7"/>
    <path id="パス_812" data-name="パス 812" d="M33.034,130.632V149.9l3,.821C37.044,171.475,39.2,214.2,39.2,214.2s7.91,3.706,12.017-.3c0,0,1.789-53.606,1.526-76.974Z" fill="#0f68b7"/>
    <path id="パス_813" data-name="パス 813" d="M28.381,212.7c.094.466-.211,1.434-.117,1.9,1.72,2.023,5.241.872,6.539-.8a16.509,16.509,0,0,0,.82-3.891Z" fill="#6b7489"/>
    <path id="パス_814" data-name="パス 814" d="M35.235,206.478a7.025,7.025,0,0,0-.531-.951c-.61-.259-.246.738-.35.792a14.09,14.09,0,0,1-3.986,1.774c-1.622.307-3.568.524-4.981-.331A7.193,7.193,0,0,1,24,205.981s-2.346,2.006-2.952,2.677L16.133,212.2c-1.471.619-1.541.8-2.987,1.474a4.356,4.356,0,0,0-2.287,3.1c-.12,1.676,2.05,2.716,3.447,2.891a9.065,9.065,0,0,0,3.622-.427c5.673-1.642,9.073-4.932,14.8-6.363,1.135-.284,2.4-.528,3.112-1.459a3.1,3.1,0,0,0,.433-2.523,9.188,9.188,0,0,0-1.04-2.417" fill="#333"/>
    <path id="パス_815" data-name="パス 815" d="M35.623,77.837l.257,4.506,11.047-3.829-1.649-5.44Z" fill="#fff"/>
    <path id="パス_816" data-name="パス 816" d="M32.3,84.234a5.946,5.946,0,0,0,2.9.5c1.4-.2,1.5-1.7,2.2-4.487L33,79.041a9.371,9.371,0,0,0-.7,5.193" fill="#2c4181"/>
    <path id="パス_817" data-name="パス 817" d="M46.495,77.252c-3.551,5.592-16.253,27.9-16.253,27.9a2.921,2.921,0,0,0-.11.71C29.439,101.773,27,90.622,27.6,87.03c.7-4.194,3.828-11.965,3.828-11.965a38.3,38.3,0,0,0-7.4,1.256c-2.165.784-2.711,3.03-3.769,5.26a15.524,15.524,0,0,0-1.223,3.768,45.773,45.773,0,0,0-.36,8.7c0,3.693.075,7.386.075,11.079s-.231,7.469.088,11.139c.514,6.774-.074,16.615.89,18.181,1.118,1.817,6.419.8,8.806-.559a1.482,1.482,0,0,0,.571-.714c-.008.28-.012.434-.012.434s8.985,5.076,11.043,6.01a13.56,13.56,0,0,0,2.308.691,287.558,287.558,0,0,1,16.479-37.349,81.755,81.755,0,0,0,3.823-8.738c-.113-4.44-.721-7.4-2.594-9.371-2.187-2.3-13.665-7.6-13.665-7.6" fill="#0f68b7"/>
    <path id="パス_818" data-name="パス 818" d="M58.931,102.959a287.435,287.435,0,0,0-16.479,37.35c3.635.834,9.964,1.559,12.828.092,3.087-1.582,1.818-12.666,1.747-17.233l4.617-13.627c.069-1.324.935-5.331.969-6.364.113-3.508.2-6.463.141-8.956a81.579,81.579,0,0,1-3.823,8.738" fill="#02518c"/>
    <path id="パス_819" data-name="パス 819" d="M23.01,175.8c.73,14.63.717,28.346.949,28.769.48.875,2.588,1.769,6.052,1.9a8.864,8.864,0,0,0,6-2.426s-.045-23.974-.37-45.872Z" fill="#02518c"/>
    <path id="パス_820" data-name="パス 820" d="M20.644,103.579l1.538-25.52C13.86,87.641,13.507,93.5,9.932,100.388c-1.569,3.022-4.207,8.439-.51,10.71A87.574,87.574,0,0,0,35.1,121.686c.286-.914,2.35-8.791,2.29-8.808-7.076-1.935-9.669-7.364-16.745-9.3" fill="#0f68b7"/>
    <path id="パス_821" data-name="パス 821" d="M43.209,111,37.8,112.38c-2.771,1.078-4.247,3.894-4.1,4.764.228,1.329,1.811,1.973,3.158,1.932s2.681-.51,4.02-.347c1.986.242,3.511,1.789,5.1,3.011s3.794,2.191,5.519,1.178a3.658,3.658,0,0,0,1.651-3.076A6.568,6.568,0,0,0,52.1,116.4a11.265,11.265,0,0,0-8.89-5.4" fill="#ffc99c"/>
    <path id="パス_822" data-name="パス 822" d="M41.978,77.622a11.972,11.972,0,0,1-.169-3.489,9.87,9.87,0,0,0,.043-2.4c-.174-1.17-1.455-1.653-2.091-.407-.96,1.885-.269,5.89-2.941,4.7C31.43,73.616,25,68.564,23.461,70.54c-1.376,1.769,6.706,4.444,6.026,6.648-1.367,4.437.836,8.29,6.158,9.685C36.993,88.2,41.794,98.4,41.794,98.4s6.982-4.648,6.695-5.02C42.4,85.463,44.151,81.56,41.978,77.622" fill="#ffc99c"/>
    <path id="パス_823" data-name="パス 823" d="M58.238,84.154,51.5,87.376l4.13,12.668L46.664,88.461l-8.135,5.818s5.861,21.921,9.216,25.709c1.038,1.171,8.894,3.574,10.1-.4,1.436-4.738,12.861-29.268.4-35.438" fill="#0f68b7"/>
    <path id="パス_824" data-name="パス 824" d="M36.873,29.227l-1.818,1.022,1.761-1.023a1.913,1.913,0,0,0-1.93-.189l-2.8,1.625.005,0,.049-.025c.015-.008.03-.017.045-.024l.052-.022.047-.02.054-.017a.4.4,0,0,1,.049-.016c.018-.006.037-.009.055-.014s.034-.009.052-.012l.057-.01.053-.008.059,0,.055,0h.118l.064,0,.056,0,.067.009.057.007.068.012.058.011c.024.005.047.012.071.018s.039.009.058.015.048.014.073.022l.059.019c.025.008.049.018.074.027l.06.022.082.036.054.023c.029.013.058.028.088.043l.051.025c.046.024.093.049.14.076l.049-.028a5.955,5.955,0,0,1,2.619,4.706c0,.106-.008.208-.019.306v0q-.016.146-.045.279v0a2.256,2.256,0,0,1-.069.252l0,.006a1.886,1.886,0,0,1-.091.225l0,.007a1.869,1.869,0,0,1-.112.2l-.005.007a1.5,1.5,0,0,1-.132.169l-.006.007a1.409,1.409,0,0,1-.149.141l-.009.007a1.3,1.3,0,0,1-.165.112l-.007,0,2.82-1.585a1.9,1.9,0,0,0,.815-1.726,5.953,5.953,0,0,0-2.634-4.717" fill="#a9ebff"/>
    <path id="パス_825" data-name="パス 825" d="M35.042,17.173c.124-.069.241-.137.356-.2.185-.106.359-.209.52-.309l-1.09.634c.07-.041.141-.082.214-.121" fill="#c1cbdf"/>
    <path id="パス_826" data-name="パス 826" d="M34.019,30.851c-.047-.027-.094-.053-.14-.077l-.051-.025c-.029-.014-.058-.029-.087-.042l-.055-.024-.081-.035-.061-.023-.073-.027c-.02-.007-.04-.012-.06-.018l-.072-.023-.059-.015-.07-.017-.058-.011-.069-.013-.057-.007-.067-.008c-.018,0-.037,0-.055,0l-.065,0h-.117l-.055,0-.059,0-.054.009-.057.009-.051.013-.056.013-.049.016-.054.018-.047.02-.051.022-.046.023-.049.026a1.892,1.892,0,0,0-.8,1.741A5.956,5.956,0,0,0,34,37.079a1.91,1.91,0,0,0,1.935.184,1.308,1.308,0,0,0,.164-.115l.008-.007A1.329,1.329,0,0,0,36.256,37l.006-.007a1.5,1.5,0,0,0,.129-.171l.005-.007a1.642,1.642,0,0,0,.109-.2l0-.007a1.879,1.879,0,0,0,.088-.225l0-.007a2.318,2.318,0,0,0,.066-.252v-.005a2.655,2.655,0,0,0,.041-.28v0a3.021,3.021,0,0,0,.015-.307,5.953,5.953,0,0,0-2.7-4.678" fill="#3aaded"/>
    <path id="パス_827" data-name="パス 827" d="M39.762,8.62A15.606,15.606,0,0,0,34.107,2.8Q30.76.863,28.539,2.123t-2.4,5.128l3.877,2.915c.017-.1.035-.2.054-.3.006-.032.013-.062.02-.094.013-.063.026-.127.039-.188.009-.036.017-.071.026-.107.013-.054.025-.109.039-.161.009-.037.02-.072.029-.108s.027-.1.041-.147L30.3,8.96l.042-.135.036-.1c.015-.042.029-.084.045-.124s.026-.066.039-.1.03-.077.046-.115l.042-.093c.016-.036.033-.072.049-.107l.045-.088c.017-.033.034-.066.052-.1s.031-.055.047-.083l.054-.09.05-.076.057-.083c.017-.024.035-.047.053-.07s.039-.051.06-.076l.054-.064.063-.068.057-.057.066-.061.06-.051c.022-.019.045-.036.068-.053s.041-.031.062-.045.048-.032.072-.047a2.01,2.01,0,0,1,1.712-.133,4.893,4.893,0,0,1,.995.449,7.177,7.177,0,0,1,2.615,2.7,7.082,7.082,0,0,1,1.03,3.621,3.136,3.136,0,0,1-.409,1.732,5.416,5.416,0,0,1-1.542,1.222q-.241.149-.519.309c-.115.067-.233.134-.356.2a5.429,5.429,0,0,0-2.437,2.318,9.983,9.983,0,0,0-.638,4.054l.015,1.363,3.842,2.219a9.828,9.828,0,0,1,.294-3.239,3.822,3.822,0,0,1,1.672-1.551q.817-.474,1.458-.925A7.02,7.02,0,0,0,41.2,19.534a6.061,6.061,0,0,0,.8-3.229A15.046,15.046,0,0,0,39.762,8.62" fill="#3aaded"/>
    <path id="パス_828" data-name="パス 828" d="M31.517,7.075l-.072.046-.062.045-.068.053-.06.052-.066.06-.057.058-.063.068-.054.064c-.021.024-.04.049-.06.075s-.035.047-.053.071-.038.054-.057.082l-.05.077-.054.09c-.016.027-.032.054-.047.082s-.035.065-.052.1-.03.058-.044.088-.034.07-.05.106l-.042.094c-.015.037-.031.076-.046.115s-.027.065-.039.1-.03.083-.045.125l-.036.1L30.3,8.96c-.011.036-.022.07-.033.107s-.027.1-.041.147c-.009.035-.019.071-.029.107-.013.053-.026.108-.039.162-.009.036-.017.07-.025.106-.014.062-.027.125-.04.189-.007.031-.014.061-.02.093-.019.1-.037.195-.054.3l2.8-1.626a8.475,8.475,0,0,1,.415-1.6,2.006,2.006,0,0,0-1.712.133" fill="#a9ebff"/>
    <path id="パス_829" data-name="パス 829" d="M42.559,6.995A15.606,15.606,0,0,0,36.9,1.17Q33.558-.762,31.335.5l-2.8,1.625q2.223-1.26,5.569.672A15.614,15.614,0,0,1,39.762,8.62a15.055,15.055,0,0,1,2.243,7.685,6.064,6.064,0,0,1-.8,3.23,7.035,7.035,0,0,1-1.955,1.877q-.641.45-1.459.924h0l.122-.071-.123.071a3.825,3.825,0,0,0-1.671,1.552,9.789,9.789,0,0,0-.294,3.238l2.8-1.625a9.789,9.789,0,0,1,.294-3.238,3.814,3.814,0,0,1,1.671-1.552A9.776,9.776,0,0,0,44,17.909a6.06,6.06,0,0,0,.8-3.229,15.046,15.046,0,0,0-2.243-7.685" fill="#a9ebff"/>
  </g>
</svg>
