<svg xmlns="http://www.w3.org/2000/svg" width="93.986" height="101.417" viewBox="0 0 93.986 101.417">
  <g id="グループ_253" data-name="グループ 253" transform="translate(-172.441 -283.386)">
    <path id="パス_215" data-name="パス 215" d="M225.3,299.195c-9.628-.315-18.457-.64-25.988.531a2.5,2.5,0,0,0-2.032,2.047,181.615,181.615,0,0,0-2.531,21.514,1.864,1.864,0,0,0,1.8,2.032H222a2.474,2.474,0,0,0,2.382-1.985,105.631,105.631,0,0,0,2.695-22.2A1.878,1.878,0,0,0,225.3,299.195Z" transform="translate(33.045 22.984)" fill="#356f4e"/>
    <rect id="長方形_120" data-name="長方形 120" width="1.495" height="37.124" transform="translate(259.684 322.691) rotate(8.421)" fill="#767676"/>
    <path id="パス_216" data-name="パス 216" d="M223.8,318.131c-9.6.665-18.41,1.283-25.943,1.484a3.555,3.555,0,0,1-2.057-.34,13.246,13.246,0,0,1-2.829-4.72c-.087-.243.727-.506,1.774-.571l25.39-1.571a4.437,4.437,0,0,1,2.407.3c1.8,1.63,2.809,3.166,3,4.866C225.568,317.818,224.794,318.061,223.8,318.131Z" transform="translate(30.405 42.974)" fill="#356f4e"/>
    <rect id="長方形_121" data-name="長方形 121" width="1.599" height="27.66" transform="translate(254.48 357.142)" fill="#767676"/>
    <path id="パス_217" data-name="パス 217" d="M221.481,309.074c-1.831-.067-14.3-.571-21.921.479-6.814.94-8.95,3.514-8.95,3.514l-2.045,5.164,7.139,28.715h8.333L200.724,330a15.5,15.5,0,0,1,.213-3.834c.278-1.417.551-2.132,1.28-2.166s1.077.653,1.5,2.04c.34,1.129,1.422,2.161,1.476,3.5l5.042,17.467,7.122-.045s2.241-12.144,2.846-16.216c.39-2.615,1.28-10.5,1.28-10.5,4.238,0,8.082-2.672,7.673-5.588C228.635,310.982,229.312,309.362,221.481,309.074Z" transform="translate(23.886 37.79)" fill="#00337b"/>
    <path id="パス_218" data-name="パス 218" d="M201.366,309.329l7.974-.673.576,4.563h-8.55Z" transform="translate(42.849 37.437)" fill="#00337b"/>
    <rect id="長方形_122" data-name="長方形 122" width="4.323" height="39.453" transform="translate(218.095 345.287)" fill="#1a1311"/>
    <rect id="長方形_123" data-name="長方形 123" width="6.004" height="0.961" transform="translate(243.686 320.956) rotate(5.877)" fill="#b3e1f9"/>
    <path id="パス_219" data-name="パス 219" d="M213.977,309.838H180.62l-1.328,7.514,43.924.015-2.628-3.973A7.922,7.922,0,0,0,213.977,309.838Z" transform="translate(10.149 39.187)" fill="#002f4b"/>
    <path id="パス_220" data-name="パス 220" d="M202.785,310.826h-12.3l2.366,33.259,9.931.054Z" transform="translate(26.735 40.651)" fill="#002f4b"/>
    <path id="パス_221" data-name="パス 221" d="M236.623,317c.548-2.963-.308-5.856-3.3-6.263-3.63-.494-11.018-.412-13.179-.491-14.558-.538-43.827,2.372-42.556,2.593l-.449,8.454c0,1.844,1.543,2.841,3.256,3.529,4.658,1.869,11.973,2.062,19.792,1.273,7.881-.8,14.958-.047,20.077-1.536l-3.8,20.5,10.687.047Z" transform="translate(6.966 39.693)" fill="#003757"/>
    <path id="パス_222" data-name="パス 222" d="M201.6,289.52c.474-2.062-.4-4.022-1.948-4.38s-3.007,1.074-3.328,3.253c-.325,2.211.625,4.059,1.61,4.218C199.507,292.863,201.127,291.585,201.6,289.52Z" transform="translate(35.287 2.519)" fill="#462c1e"/>
    <path id="パス_223" data-name="パス 223" d="M226.854,301.644l-.007-.119a5.422,5.422,0,0,0-.238-1.3l-.007-.032v0c-1.387-4.429-8.342-7.539-16.625-7.221-7.8.3-13.407,3.236-15.41,7.432a10.856,10.856,0,0,0-.613.913,4.754,4.754,0,0,0-.61,2.089c-.012.3-1,14.487-1,14.487l.017,1.821c-.132,1.918,1.04,2.2,2.655,2.084,0,0,19.4,3.717,29.378.908a4.078,4.078,0,0,0,1.176-.546,1.275,1.275,0,0,0,.226-.161l.01-.01a4.228,4.228,0,0,0,1.452-2.119,21.132,21.132,0,0,0,1-6.05C228.455,311.51,227.358,304.629,226.854,301.644Z" transform="translate(29.486 14.182)" fill="#54c0f1"/>
    <path id="パス_224" data-name="パス 224" d="M220.21,305.937l0-.117a7.023,7.023,0,0,0-.184-1.3l0-.03,0,0c-1.062-4.432-6.395-7.539-12.745-7.223-5.98.3-11.127,3.541-12.66,7.737l-.052.149a7.463,7.463,0,0,0-.412,2.213c-.007.3.055,13.72.055,13.72h0l-.062.511.02,0c-.1,1.916.494,3.474,1.519,3.779,0,0,15,4.434,22.648,1.625a2.889,2.889,0,0,0,.9-.548.847.847,0,0,0,.174-.159l.007-.01a4.431,4.431,0,0,0,1.114-2.122,27.1,27.1,0,0,0,.762-6.047C221.438,315.8,220.6,308.924,220.21,305.937Z" transform="translate(32.145 20.542)" fill="#54c0f1"/>
    <path id="パス_225" data-name="パス 225" d="M198.162,294.9h7.323V292.7a31.969,31.969,0,0,0-7.323,0Z" transform="translate(38.104 13.483)" fill="#b3e1f9"/>
    <path id="パス_226" data-name="パス 226" d="M202.664,297.116l.769-2.573L200,294.19l.228,2.675a.762.762,0,0,0,.352.524c-1.176,8.943-2.387,17.345-3.715,23.851l1.6,4.71,2.526-4.285c.246-7.069.675-15.241,1.223-24.107A.769.769,0,0,0,202.664,297.116Z" transform="translate(36.178 16.006)" fill="#00337b"/>
    <path id="パス_227" data-name="パス 227" d="M250.37,306.7c-8.2-.625-19.117-1.007-31.1-1.007s-22.891.382-31.1,1.007H173.1v2.854c0,2.132,20.67,3.861,46.169,3.861s46.172-1.729,46.172-3.861V306.7Z" transform="translate(0.982 33.039)" fill="#513425"/>
    <ellipse id="楕円形_14" data-name="楕円形 14" cx="46.17" cy="3.86" rx="46.17" ry="3.86" transform="translate(174.086 335.875)" fill="#a06c4e"/>
    <path id="パス_228" data-name="パス 228" d="M210.415,307.654a16.758,16.758,0,0,1-6.335,1.586l-1.268-5.055,6.338-1.588Z" transform="translate(44.992 28.46)" fill="#54c0f1"/>
    <path id="パス_229" data-name="パス 229" d="M210.088,286.162a2.162,2.162,0,0,0-.519-.144,8.7,8.7,0,0,0-2.876-1.169,11.137,11.137,0,0,0-3.313.228,13.312,13.312,0,0,0-1.73-.025c-2.762.206-4.779.973-5.109,2.05-.062.206.092.422.263.618l-.605.548c-.2,1.414.462,3.417.479,4.578.119,7.154,3.407,8.9,9.243,8.114.04.025.074.052.114.074,1.861,1.017,4.476-.382,5.844-3.124a7.938,7.938,0,0,0,.648-1.844l0,.005c.03-.109.055-.213.079-.32a8.706,8.706,0,0,0,.95-2.782A6.3,6.3,0,0,0,210.088,286.162Z" transform="translate(35.143 2.091)" fill="#462c1e"/>
    <path id="パス_230" data-name="パス 230" d="M209.928,292.222a.936.936,0,0,0-.645.082c-.717-3.253-3.695-5.695-6.539-5.695a6.553,6.553,0,0,0-1.072.087,2.575,2.575,0,0,0-.655-.087c-1.978,0-3.941,2.184-3.941,4.347,0,.581.1.881.119,1.417.037.871-.543,2.007-.357,2.834.725,3.243,2.184,5.037,4.2,5.583a15.822,15.822,0,0,1-.6,3.831l1.407.816,5.094-1.318a15.46,15.46,0,0,1-.422-4.375,5.027,5.027,0,0,0,2.442-3.238,1.464,1.464,0,0,0,1.015-1.065c.01-.03-.1.166.017-.087a4.907,4.907,0,0,0,.687-1.146C210.914,293.274,210.579,292.383,209.928,292.222Z" transform="translate(36.089 4.775)" fill="#f9bb90"/>
    <path id="パス_231" data-name="パス 231" d="M201.4,297.1c-.107-1.184-.96-1.73-1.362-.109a11.023,11.023,0,0,0-.2,1.529.842.842,0,0,0-.112.007,4.2,4.2,0,0,0-1-.99,14.675,14.675,0,0,0-2.66-4.06s-1.494-.985-1.893-.722c-.159.1-.074.342.084.591-.385-.35-1.07-.913-1.35-.727-.4.263.464,1.638.464,1.638a22.087,22.087,0,0,1,1.333,1.95,15.86,15.86,0,0,0-1.37-1.732s-1.491-.985-1.891-.722.734,1.372.734,1.372a29.094,29.094,0,0,1,2.883,4.754l-.092.184a9.745,9.745,0,0,0-2.139-2.323c-.414-.27-1.558-.829-1.911-.5s.645.993.95,1.236c1.375,1.107,2.28,2.878,3.546,4.64a2.946,2.946,0,0,0,.442.854,3.419,3.419,0,0,0,.772.73v3.638l4.186-.208.345-5.422c.077-.367.146-.739.176-.995a5.431,5.431,0,0,0-.1-1.682A19.628,19.628,0,0,0,201.4,297.1Z" transform="translate(27.249 13.62)" fill="#f9bb90"/>
    <path id="パス_232" data-name="パス 232" d="M211.319,306.148l.015,0c.069-1.189-1.881-1.511-5.017-2.166a9.861,9.861,0,0,0-2.717-.335c-1.526.191-2.665.682-3,1.342,0,0-.417.385-.861.782-.682.174-1.424.459-1.109.772a.651.651,0,0,0,.124.087,4.071,4.071,0,0,0-.313.275,2.009,2.009,0,0,0-.546.8l-.191.127c-.658.943-.385,1.273.586,1.139l.625-.4c0,.179.134.3.4.372a1.137,1.137,0,0,0,.668-.042c0,.2.3.323,1.2.288l4.521-1.9a9.285,9.285,0,0,0,1.521.323c2.2.283,4.057-.218,4.151-1.117A.807.807,0,0,0,211.319,306.148Z" transform="translate(36.887 29.989)" fill="#f9bb90"/>
    <path id="パス_233" data-name="パス 233" d="M212.7,289.942c-.437-1.725-1.608-2.926-2.613-2.677a41.826,41.826,0,0,1-4.385-1.06,10.086,10.086,0,0,0-4.308-.8,14.872,14.872,0,0,1-3.519.223c-.387-.047-1.576,2.891-1.576,2.891.04.839-.213,2.084.385,2.69l1.816-2.241.395-.151c1.814,1.2,5.184,2.211,9.151,2.618.417.042.829.074,1.238.1.538,1.34,1.521,2.2,2.387,1.983C212.676,293.27,213.138,291.669,212.7,289.942Z" transform="translate(35.314 2.948)" fill="#462c1e"/>
    <path id="パス_234" data-name="パス 234" d="M197.715,294.2a8.741,8.741,0,0,0,0,3.8l3.161-1.429a6.667,6.667,0,0,1-1.744-4Z" transform="translate(37.133 13.609)" fill="#b3e1f9"/>
    <path id="パス_235" data-name="パス 235" d="M205.88,294.579a14.591,14.591,0,0,1-3.735,3.958.369.369,0,0,1-.434.007l-2.846-1.975a26.628,26.628,0,0,0,5.578-4Z" transform="translate(39.145 13.609)" fill="#b3e1f9"/>
    <path id="パス_236" data-name="パス 236" d="M198.786,302.336a14.711,14.711,0,0,1-6.124-.553l.333-3.695a.334.334,0,0,1,.4-.3,23.138,23.138,0,0,0,5.382.491.332.332,0,0,1,.342.36Z" transform="translate(29.956 21.332)" fill="#b3e1f9"/>
    <path id="パス_237" data-name="パス 237" d="M202.3,307.67a4.489,4.489,0,0,0-.305-3.591l3.107-.263a3.839,3.839,0,0,1,.3,3.591Z" transform="translate(43.779 30.266)" fill="#b3e1f9"/>
    <path id="パス_238" data-name="パス 238" d="M207.711,305.068c-.137-.236-1.834.266-2.434.469-.414.142-1.055.372-1.762.633a22.325,22.325,0,0,0,2.273-.975c.437-.236,1.367-1.005,1.213-1.273-.136-.236-1.834.266-2.437.469-.526.179-1.419.506-2.352.851l-.012-.065a27.653,27.653,0,0,0,2.824-1.184c.437-.236,1.367-1,1.213-1.273-.136-.236-1.834.266-2.437.469-.871.3-2.749,1-4.149,1.524l-2.2-.045c.692-.491,2.141-.859,2.7-1.29.514-.395,1.154-1.864.462-2.2-.335-.164-1.541,1.169-2.3,1.5a29.541,29.541,0,0,0-5.613,3.5l-6.725,2.593,1.782,4.628,6.668-2.571a32.67,32.67,0,0,0,6.526-1.164,9.732,9.732,0,0,1,.938-.288c1.4-.275,2.918-.328,3.68-.519.481-.122,1.573-.635,1.489-.933-.072-.263-1.841-.2-2.474-.146-.444.035-1.137.1-1.9.181l-.01-.07a36.069,36.069,0,0,0,3.819-1.551C206.935,306.105,207.865,305.336,207.711,305.068Z" transform="translate(20.063 26.336)" fill="#f9bb90"/>
    <path id="パス_239" data-name="パス 239" d="M201.433,306.58a1,1,0,0,1-.821-.928,1.247,1.247,0,0,0-.454-.092,1.054,1.054,0,0,0-.906-1.251c-.1-.012-.191-.022-.288-.032a1.482,1.482,0,0,0-1.05-1.243c-.7-.131-.968.318-1.546,1.042a2.054,2.054,0,0,0-.345.61,20.416,20.416,0,0,0-3.107,5.459l.211.174a1.88,1.88,0,0,0,.243,1.682,2.268,2.268,0,0,0,2.432.509l.712.581c2.325-1.658,4.573-3.313,5.206-4.928l-.02-.012a1.225,1.225,0,0,0,.149-.2A.923.923,0,0,0,201.433,306.58Z" transform="translate(30.334 29.073)" fill="#f9bb90"/>
    <ellipse id="楕円形_15" data-name="楕円形 15" cx="3.161" cy="3.675" rx="3.161" ry="3.675" transform="translate(221.767 337.571) rotate(-30)" fill="#e0e0e0"/>
    <path id="パス_240" data-name="パス 240" d="M199.444,287.417c.787,2.062-.938,3.261-2.236,5.047-1.216,1.672-2.4,4.055-6.092,6.3-4.744,2.888-9.871-2.377-10.348-6.623s3.35-8.9,8.618-8.752C194.325,283.526,198.372,284.61,199.444,287.417Z" transform="translate(12.278)" fill="#1f1720"/>
    <path id="パス_241" data-name="パス 241" d="M198.488,297.073a4.377,4.377,0,0,0-.561-1.332c-.112-.305-.087-.573.213-1.33a6.847,6.847,0,0,0-.263-3.285,9.72,9.72,0,0,0-1.248-2.787,14.907,14.907,0,0,1-8.489-3.541l-5.017,3.395-2.819,8.477s1.6,2.578,2.744,4.61l-.935,5.077.747.114-.06.067s.4.025.963.069l4.519.685,2.112.494s.794-4.032,1.742-4.226,3,.169,4.144-.588.973-1.71,1.236-2.37A9.8,9.8,0,0,0,198.488,297.073Z" transform="translate(11.648 2.091)" fill="#f9bb90"/>
    <path id="パス_242" data-name="パス 242" d="M192.838,294.055a14.086,14.086,0,0,0,3.03-8.313l-3.261-2.3A23.7,23.7,0,0,0,182.3,286.3c-1.821.921-2.988,3.99-3.362,5.591a22.733,22.733,0,0,0,.243,7.325c.313,1.7,3.38,6.333,3.38,6.333l.012,0a4.7,4.7,0,0,0,4.687,1.119,5.673,5.673,0,0,0,4.452-3.544l.067-.017.017-.278a3.86,3.86,0,0,0,.1-.573,24.952,24.952,0,0,0,.124-2.6l.355-5.017C192.535,294.449,192.689,294.256,192.838,294.055Z" transform="translate(9.313 0.086)" fill="#1f1720"/>
    <ellipse id="楕円形_16" data-name="楕円形 16" cx="8.454" cy="6.596" rx="8.454" ry="6.596" transform="translate(188.274 306.927)" fill="#e0e0e0"/>
    <path id="パス_243" data-name="パス 243" d="M224.493,322.975a3.448,3.448,0,0,0-4.573-1.6l-4.189-.161-.628-6.737a33.387,33.387,0,0,0-3.792-11.072,18.956,18.956,0,0,0-3.457-4.082c-4.653-4.256-7.283-4.955-14.794-5.613a23.574,23.574,0,0,0-8.62.921c-6.784,2.432-9.568,8.772-9.568,18.05a19.4,19.4,0,0,0,.28,3.266h0l.01.042a18.62,18.62,0,0,0,.7,2.769l4.449,17.556-.931,9.047c7.8,2.591,17.3,3.226,28.938,1h0l2.727-.092a3.212,3.212,0,0,0,3.07-3.672l-1.747-10.442,10.931-4.271a2.692,2.692,0,0,0,.293-.146A3.449,3.449,0,0,0,224.493,322.975Z" transform="translate(3.601 15.186)" fill="#00467b"/>
    <path id="パス_244" data-name="パス 244" d="M187.257,290.624c.516,1.923.03,4.206-1.156,4.042a5.951,5.951,0,0,1-3.025-2.918c-.923-1.764,0-3.732,1.154-4.042S186.741,288.7,187.257,290.624Z" transform="translate(15.197 6.333)" fill="#f9bb90"/>
    <rect id="長方形_124" data-name="長方形 124" width="1.441" height="38.235" transform="translate(172.441 329.305) rotate(-5.976)" fill="#767676"/>
    <path id="パス_245" data-name="パス 245" d="M203.334,328.758a143.288,143.288,0,0,1-25.985-1.1,2.5,2.5,0,0,1-2.035-2.047,182.684,182.684,0,0,1-2.531-21.516,1.868,1.868,0,0,1,1.806-2.032h25.44a2.476,2.476,0,0,1,2.382,1.988,111.17,111.17,0,0,1,2.695,22.777A1.879,1.879,0,0,1,203.334,328.758Z" transform="translate(0.5 27.662)" fill="#356f4e"/>
    <rect id="長方形_125" data-name="長方形 125" width="1.48" height="18.119" transform="translate(223.762 366.621)" fill="#767676"/>
    <rect id="長方形_126" data-name="長方形 126" width="1.48" height="18.374" transform="translate(176.386 366.366)" fill="#767676"/>
    <rect id="長方形_127" data-name="長方形 127" width="1.48" height="18.374" transform="translate(199.766 366.366)" fill="#767676"/>
    <path id="パス_246" data-name="パス 246" d="M218.058,315.991a241.065,241.065,0,0,1-37.353.129,8.183,8.183,0,0,0-2.926.238,9.181,9.181,0,0,0-3.638,2.5,6.6,6.6,0,0,0,2.6.236l27.98.8s17.4-.893,17.772-1.03c2.432-.891-1.065-2.4-1.886-2.648A5.558,5.558,0,0,0,218.058,315.991Z" transform="translate(2.51 48.24)" fill="#356f4e"/>
    <path id="パス_247" data-name="パス 247" d="M189.814,338.325h-1.672l-3.816-36.645,1.433-.15Z" transform="translate(17.607 26.88)" fill="#767676"/>
    <rect id="長方形_128" data-name="長方形 128" width="1.672" height="19.534" transform="translate(205.749 365.205)" fill="#767676"/>
  </g>
</svg>
