<svg xmlns="http://www.w3.org/2000/svg" xmlns:xlink="http://www.w3.org/1999/xlink" width="160" height="160" viewBox="0 0 160 160">
  <defs>
    <clipPath id="clip-path">
      <circle id="楕円形_45" data-name="楕円形 45" cx="80" cy="80" r="80" fill="none"/>
    </clipPath>
  </defs>
  <g id="mission02.svg" transform="translate(-1174 -153)">
    <circle id="楕円形_43" data-name="楕円形 43" cx="80" cy="80" r="80" transform="translate(1174 153)" fill="#e3f7ff"/>
    <g id="グループ_443" data-name="グループ 443" transform="translate(1174 153)">
      <g id="グループ_442" data-name="グループ 442" clip-path="url(#clip-path)">
        <g id="グループ_441" data-name="グループ 441" transform="translate(4.923 6.487)">
          <rect id="長方形_202" data-name="長方形 202" width="187.907" height="147.354" rx="30.038" transform="translate(44.709)" fill="#02518c"/>
          <rect id="長方形_203" data-name="長方形 203" width="168.063" height="127.334" rx="14.187" transform="translate(54.657 9.948)" fill="#c7e9ef"/>
          <path id="パス_706" data-name="パス 706" d="M1204.488,395.4l.371-3.927-3.94.095.038,4.5Z" transform="translate(-1189.276 -251.206)" fill="#ffc99c" fill-rule="evenodd"/>
          <path id="パス_707" data-name="パス 707" d="M1203.286,397.311c.764,2.726,2.928,3.914,1.511,5.614h-7.212q-.018-.049-.035-.105a1.174,1.174,0,0,1-.181-1.182c.418-1.582,1.646-4.014,2.068-4.139.837-.248,2.026.451,3.849-.187" transform="translate(-1187.881 -253.453)" fill="#355298" fill-rule="evenodd"/>
          <path id="パス_708" data-name="パス 708" d="M1205.22,404.283v0l.009.3a1.229,1.229,0,0,1-.547,1.025h-7.135a1.022,1.022,0,0,1-.216-1.287Z" transform="translate(-1187.844 -256.135)" fill="#1d3975" fill-rule="evenodd"/>
          <path id="パス_709" data-name="パス 709" d="M1216.2,306.778l-4.221,17.144-2.154,10.206-4.783,24.86a6.009,6.009,0,0,1-2.63.369,12.135,12.135,0,0,1-2.434-.333c-.036-7.34,0-16.662.793-26.03.667-7.85-.921-14.423-.441-23.082.142-2.558,1.978-7.437,1.941-7.344Z" transform="translate(-1188.911 -217.013)" fill="#02518c" fill-rule="evenodd"/>
          <path id="パス_710" data-name="パス 710" d="M1232.542,395.312l-.015-4.061-3.94.095.424,4.63Z" transform="translate(-1199.918 -251.122)" fill="#ffc99c" fill-rule="evenodd"/>
          <path id="パス_711" data-name="パス 711" d="M1232.4,396.438c1.955,2.318,6.162,2.814,7.921,3.393,1.425.47,2.111,2.049,1,2.758h-13.484q-.018-.049-.035-.105c-.2-.666-.724-5.427.678-5.321a6.012,6.012,0,0,0,3.916-.724" transform="translate(-1199.517 -253.117)" fill="#355298" fill-rule="evenodd"/>
          <path id="パス_712" data-name="パス 712" d="M1241.915,404.283v0l.009.3a1.23,1.23,0,0,1-.546,1.025h-13.484c-.012-.033-.024-.068-.035-.105-.039-.13-.134-.807-.182-1.182Z" transform="translate(-1199.568 -256.135)" fill="#1d3975" fill-rule="evenodd"/>
          <path id="パス_713" data-name="パス 713" d="M1226.54,305.911l.43,6.513c1.274,13.149.717,30.048-.385,46.606a15.445,15.445,0,0,1-3.509.314c-1.618-.094-1.322-.281-1.322-.281L1217.966,332a52.225,52.225,0,0,0-2.86-10.965c-1.447-3.468-3.222-4.468-2.96-8.5.271-4.173-.079-7.407.495-8.85s3.441-.863,3.441-.863Z" transform="translate(-1193.584 -217.068)" fill="#02518c" fill-rule="evenodd"/>
          <path id="パス_714" data-name="パス 714" d="M1221.519,348.372l-.847-6.06a58.375,58.375,0,0,0-1.518-7.05h0l.8-5.743,1.666,14.4Z" transform="translate(-1196.29 -227.379)" fill="#1d3975" fill-rule="evenodd"/>
          <path id="パス_715" data-name="パス 715" d="M1223.781,269.562c2.087,4.58,4.063,4.29,10.036,5.18,4.215.389,9.729-15.334,9.474-16.836-.285-1.678-3.51-.189-4.342.967-.548,3.128-5.174,8.474-5.9,8.423-.689-.049-3.942-3.969-8.177-5.506-.5-.324-2.558,5.559-1.089,7.772" transform="translate(-1197.869 -199.546)" fill="#5fd2ff" fill-rule="evenodd"/>
          <path id="パス_716" data-name="パス 716" d="M1194.531,267.164c-1.99,2.964,4.7,16.682,3.053,31.777,9.3,1.6,17.4,1.02,22.951-.75,0-6-.172-28.943-6.859-34.087-6.619-1.855-16.42-1-19.145,3.06" transform="translate(-1186.676 -201.861)" fill="#5fd2ff" fill-rule="evenodd"/>
          <path id="パス_717" data-name="パス 717" d="M1196.555,284.588c.913,5.188,2.71,14.884,1.951,21.782.326.056,1.046.17,1.37.221,1.462-4.447-.372-19.32-1.409-24.107l-1.06.922Z" transform="translate(-1187.598 -209.289)" fill="#3aaded" fill-rule="evenodd"/>
          <path id="パス_718" data-name="パス 718" d="M1216.235,250.161a6.023,6.023,0,0,1-2.592,2.8l.034,1.892.276.234c1.078,1.155-.089,3.527-1.317,3.454-3.105.153-5.489-2.393-4.556-3.775l.405-.452.089-2.678c-.161-.009-1.326-.672-1.673-.779a1.8,1.8,0,0,1-.891-1.482c-.034-.706,1.057-.477,1.057-.477-1.322-1.809-2.818-3.286-.878-4.915s6.4-2.579,6.4-2.579l2.683-.93c-.342.926.115,4.014.8,5.943.617,1.73,1.037,2,.159,3.747" transform="translate(-1190.946 -193.13)" fill="#ffc99c"/>
          <path id="パス_719" data-name="パス 719" d="M1212.7,259.213s1.518,2.6,2.764,2.838.61.061,1.074.006l-.035-1.892c-.859.138-1.7.07-3.8-.952" transform="translate(-1193.808 -200.339)" fill="#f2b486" fill-rule="evenodd"/>
          <path id="パス_720" data-name="パス 720" d="M1220.225,288.5l-1.541,5.09-2.718-4.2.179-16.769-.777-1.369.939-.9.963.823-.332,1.474c1.126,3,2.618,11.916,3.286,15.846" transform="translate(-1194.833 -204.623)" fill="#fff" fill-rule="evenodd"/>
          <path id="パス_721" data-name="パス 721" d="M1213.589,242.721c-2.261,1.158-4.864-.216-6.181,1.335-.652.768-.587,1.875.144,3.585.215.5.5.875-.349.481-.39-.181-1.034-.434-1.254-.257a1.012,1.012,0,0,0,.148,1.494c.174.119.5.3.5.3a5.357,5.357,0,0,1-4.265-5.529,2.047,2.047,0,0,1,.674-1.62c-.959-9.62,16.854-6.6,11.119-.174a3.418,3.418,0,0,1-.54.388" transform="translate(-1189.821 -191.548)" fill="#333" fill-rule="evenodd"/>
          <path id="パス_722" data-name="パス 722" d="M1190.736,267.842c-4.948,3.193-9.669,14.7-8.578,17.978,1.135,3.287,9.544,9.938,12.37,8.756,1.327-.555,2.884-2.782,1.452-3.415-2.548-1.831-6.977-6.937-7.149-7.753-.381-2.841,2.227-4.668,4.063-6.7,2.781-3.077,2.48-10.771-2.158-8.866" transform="translate(-1182 -203.542)" fill="#5fd2ff" fill-rule="evenodd"/>
          <path id="パス_723" data-name="パス 723" d="M1275.43,193.6c-6.484-3.66-16.015.063-21.649,8.606s-5.305,18.769.612,23.289c.1.057.2.113.308.167s.21.107.316.158a12.819,12.819,0,0,0,9.776.223q.186-.064.372-.133c.124-.046.247-.093.371-.142s.247-.1.37-.151.247-.106.37-.161a23.184,23.184,0,0,0,9.218-7.769q.14-.2.276-.4t.272-.4c.089-.135.177-.272.264-.409s.171-.273.254-.41a23.178,23.178,0,0,0,3.513-11.532c0-.135,0-.27,0-.4s0-.267-.007-.4-.009-.265-.016-.4-.015-.263-.024-.394a12.817,12.817,0,0,0-4.053-8.9c-.088-.078-.178-.153-.27-.228s-.182-.146-.275-.217" transform="translate(-1208.057 -174.564)" fill="#e7f4f7" fill-rule="evenodd"/>
          <path id="パス_724" data-name="パス 724" d="M1267.635,227.223a14.44,14.44,0,0,1-4.076.554l.633-33.782a21.314,21.314,0,0,1,4.107-2.246Zm5.749-2.712a21.882,21.882,0,0,1-2.551,1.482l.639-35.2q.7-.136,1.394-.2l1.134.022Z" transform="translate(-1213.369 -173.947)" fill="#fff" fill-rule="evenodd"/>
          <path id="パス_725" data-name="パス 725" d="M1274.459,192.369c5.917,4.519,6.246,14.747.612,23.289s-15.166,12.266-21.649,8.606c-5.917-4.52-6.246-14.747-.612-23.289s15.165-12.265,21.649-8.606m2.707-1.58c7.513,5.233,8.308,17.4,1.722,27.387s-18.086,14.044-25.854,9.2l0,0-1.767-1.166.179-.271c-5.626-5.857-5.707-16.674.249-25.7s15.931-13.214,23.531-10.347l.179-.271,1.768,1.166Z" transform="translate(-1207.086 -173.332)" fill="#050505" fill-rule="evenodd"/>
          <path id="パス_726" data-name="パス 726" d="M1237.2,246.309h0a2.875,2.875,0,0,1,.814,3.971l-25.838,39.173a2.875,2.875,0,0,1-3.971.815h0a2.875,2.875,0,0,1-.815-3.971l25.839-39.173a2.875,2.875,0,0,1,3.971-.815" transform="translate(-1191.582 -195.194)" fill="#050505" fill-rule="evenodd"/>
          <path id="パス_727" data-name="パス 727" d="M1207.48,289.467a2.462,2.462,0,0,1-.48-2.993l26.656-40.412a2.056,2.056,0,1,1,3.42,2.255l-26.656,40.413a2.462,2.462,0,0,1-2.94.737" transform="translate(-1191.492 -194.925)" fill="#333" fill-rule="evenodd"/>
          <path id="パス_728" data-name="パス 728" d="M1272.943,191.369c5.917,4.519,6.246,14.747.612,23.289s-15.166,12.266-21.649,8.606c-5.917-4.52-6.246-14.747-.612-23.289s15.166-12.265,21.649-8.606m.943-2.75c7.769,5.124,8.663,17.47,2,27.575s-18.366,14.143-26.135,9.018-8.663-17.47-2-27.575S1266.117,183.495,1273.886,188.619Z" transform="translate(-1205.57 -172.332)" fill="#333" fill-rule="evenodd"/>
          <path id="パス_729" data-name="パス 729" d="M1254.072,225.227l-.132-.066.132.066m.329.159c-.048-.023-.1-.044-.144-.067C1254.3,225.342,1254.353,225.363,1254.4,225.386Zm.328.144c-.051-.022-.1-.042-.153-.064C1254.627,225.488,1254.678,225.509,1254.729,225.53Zm.329.132-.157-.06Zm.331.12-.161-.055Zm.334.109c-.054-.017-.109-.033-.163-.05C1255.615,225.858,1255.669,225.874,1255.724,225.891Zm.339.1-.167-.046Zm.34.087c-.056-.014-.113-.026-.169-.041C1256.29,226.05,1256.347,226.063,1256.4,226.077Zm.344.077-.171-.036Zm.346.066-.172-.031Zm.35.055-.173-.026Zm.352.045-.174-.021Zm.354.034-.175-.015Zm.357.024-.177-.01Zm.359.014-.177-.006Zm.362,0h0Zm.364-.007c-.06,0-.12,0-.18,0C1259.471,226.393,1259.531,226.392,1259.591,226.389Zm.364-.017-.18.009Zm.366-.026-.18.014Zm.368-.036-.181.019Zm.369-.047-.18.024Zm.37-.056-.18.028Zm.371-.066-.181.033Zm.371-.076-.18.038Zm.372-.086-.179.042Zm.372-.095-.178.046Zm.372-.1-.173.049Zm.373-.114-.172.053Zm.372-.123-.164.055Zm.373-.133-.151.054Zm.371-.142-.086.033Zm.5-.206-.126.055Zm.4-.177c-.051.023-.1.048-.154.071C1265.567,224.933,1265.618,224.909,1265.669,224.885Zm.378-.178-.162.079Zm.372-.185-.166.084Zm.37-.194-.169.09Zm.367-.2-.171.1Zm.364-.21-.171.1Zm.362-.219-.17.105Zm.359-.228-.17.11Zm.357-.236-.169.113Zm.355-.245-.168.118Zm.352-.254-.167.122Zm.349-.262-.166.126Zm.346-.27-.165.13Zm.343-.279-.164.135Zm.34-.286-.162.138Zm.337-.295-.16.142Zm.333-.3-.159.146Zm.329-.311-.157.15Zm.326-.319-.156.153Zm.321-.327-.152.156Zm.318-.335-.15.159Zm.313-.343-.148.162Zm.308-.35-.144.164Zm.3-.359c-.046.056-.093.111-.14.166C1273.478,218.808,1273.525,218.753,1273.571,218.7Zm.3-.366-.135.166Zm.294-.374-.13.166Zm.288-.381c-.041.055-.083.108-.123.163C1274.368,217.685,1274.41,217.632,1274.451,217.577Zm.283-.39-.116.159Zm.276-.4-.091.131Zm.62-.948-.084.135Zm.271-.443c-.034.056-.066.113-.1.169C1275.835,215.514,1275.868,215.457,1275.9,215.4Zm.247-.422c-.034.059-.067.119-.1.177C1276.081,215.1,1276.114,215.038,1276.148,214.979Zm.237-.422c-.034.062-.067.124-.1.185C1276.318,214.681,1276.351,214.619,1276.385,214.557Zm.226-.422-.1.19Zm.217-.423c-.033.065-.064.13-.1.194C1276.764,213.843,1276.8,213.778,1276.828,213.713Zm.207-.423c-.031.066-.063.132-.095.2C1276.972,213.422,1277,213.356,1277.035,213.29Zm.2-.423-.091.2Zm.188-.423-.087.2Zm.179-.424-.083.2Zm.17-.426c-.026.068-.053.135-.08.2C1277.717,211.729,1277.744,211.661,1277.77,211.593Zm.161-.425c-.025.068-.05.136-.076.2C1277.882,211.3,1277.906,211.236,1277.932,211.168Zm.152-.425c-.023.068-.047.136-.071.2C1278.036,210.879,1278.06,210.811,1278.083,210.743Zm.143-.425q-.033.1-.067.2Q1278.194,210.419,1278.227,210.318Zm.134-.426q-.031.1-.063.2Q1278.331,209.993,1278.361,209.892Zm.125-.425c-.019.068-.039.135-.058.2C1278.448,209.6,1278.468,209.534,1278.487,209.467Zm.117-.425c-.018.068-.036.135-.055.2C1278.567,209.177,1278.586,209.11,1278.6,209.042Zm.108-.425c-.016.068-.033.135-.05.2C1278.678,208.752,1278.695,208.685,1278.711,208.617Zm.1-.423c-.015.067-.03.134-.046.2C1278.78,208.328,1278.795,208.261,1278.81,208.194Zm.09-.423q-.02.1-.042.2Q1278.88,207.872,1278.9,207.771Zm.081-.422c-.012.066-.025.133-.037.2C1278.956,207.483,1278.969,207.416,1278.981,207.35Zm.073-.421c-.01.066-.022.133-.034.2C1279.031,207.062,1279.043,207,1279.053,206.929Zm.063-.418c-.009.066-.02.132-.03.2C1279.1,206.643,1279.108,206.576,1279.117,206.51Zm.055-.417c-.008.066-.017.131-.025.2C1279.155,206.224,1279.164,206.159,1279.172,206.093Zm.045-.415c-.006.065-.013.129-.021.194C1279.2,205.807,1279.211,205.742,1279.217,205.678Zm.038-.413c-.006.063-.011.127-.017.191C1279.244,205.392,1279.249,205.328,1279.255,205.265Zm.028-.411c0,.062-.008.124-.012.186C1279.274,204.977,1279.279,204.915,1279.282,204.854Zm.02-.409c0,.06-.005.12-.008.18C1279.3,204.565,1279.3,204.5,1279.3,204.445Zm.011-.406c0,.056,0,.113,0,.169C1279.31,204.151,1279.312,204.094,1279.313,204.038Zm0-.4c0,.046,0,.091,0,.137C1279.314,203.726,1279.315,203.681,1279.315,203.635Zm-.01-.492c0,.031,0,.061,0,.092C1279.307,203.2,1279.306,203.174,1279.3,203.144Zm-.022-.465c0,.053.007.106.01.16C1279.29,202.785,1279.286,202.731,1279.282,202.678Zm-.029-.407c0,.057.01.115.015.173C1279.264,202.386,1279.258,202.328,1279.253,202.271Zm-.038-.4c.006.06.014.119.019.179C1279.229,201.993,1279.222,201.934,1279.216,201.874Zm-.046-.388c.008.06.016.119.023.179C1279.186,201.605,1279.178,201.546,1279.17,201.486Zm-.055-.386c.009.06.019.121.028.182C1279.134,201.221,1279.124,201.161,1279.115,201.1Zm-.064-.379c.011.06.022.121.033.181C1279.073,200.842,1279.062,200.782,1279.051,200.721Zm-.072-.375c.012.06.025.119.036.18C1279,200.466,1278.991,200.406,1278.979,200.347Zm-.081-.37c.014.06.028.119.041.179C1278.926,200.1,1278.912,200.036,1278.9,199.976Zm-.089-.364c.015.059.03.118.045.177C1278.839,199.729,1278.824,199.671,1278.809,199.612Zm-.1-.361c.016.058.033.117.049.175C1278.744,199.368,1278.727,199.309,1278.711,199.251Zm-.107-.355c.019.058.036.115.054.174C1278.64,199.011,1278.622,198.953,1278.6,198.9Zm-.115-.35c.02.057.039.114.058.171C1278.527,198.659,1278.508,198.6,1278.488,198.545Zm-.124-.345c.021.056.042.113.062.169C1278.406,198.313,1278.385,198.256,1278.364,198.2Zm-.133-.34c.023.055.045.111.067.167C1278.276,197.972,1278.254,197.916,1278.231,197.861Zm-.141-.334c.024.055.047.11.071.164C1278.138,197.637,1278.114,197.582,1278.09,197.527Zm-.15-.327c.025.053.05.106.075.161C1277.991,197.306,1277.966,197.253,1277.941,197.2Zm-.159-.322c.027.052.053.1.079.158C1277.835,196.982,1277.809,196.93,1277.782,196.878Zm-.167-.316c.028.052.055.1.083.155C1277.671,196.665,1277.644,196.613,1277.615,196.561Zm-.176-.31c.03.05.059.1.088.153C1277.5,196.353,1277.469,196.3,1277.439,196.252Zm-.184-.3c.031.049.061.1.092.149C1277.317,196.048,1277.287,196,1277.255,195.949Zm-.193-.3c.033.048.064.1.1.145C1277.127,195.75,1277.1,195.7,1277.063,195.653Zm-.2-.29.1.143Zm-.21-.282.1.139Zm-.218-.274c.037.044.073.09.108.135C1276.506,194.9,1276.47,194.851,1276.433,194.806Zm-.227-.268.111.13Zm-.235-.26c.039.041.076.084.115.126C1276.048,194.362,1276.01,194.32,1275.971,194.278Zm-.244-.252.118.121Zm-.252-.244c.04.038.079.076.119.115C1275.555,193.858,1275.516,193.819,1275.476,193.782Zm-.261-.236c.04.035.079.071.118.106C1275.293,193.617,1275.255,193.581,1275.215,193.545Zm-.27-.228.112.095Zm-.868-.639q.306.2.593.422c-6.484-3.66-16.015.063-21.649,8.606s-5.305,18.769.612,23.289q-.315-.178-.621-.38c-6.482-4.276-7.022-14.891-1.2-23.71S1267.595,188.4,1274.077,192.678Z" transform="translate(-1207.297 -174.063)" fill="#050505" fill-rule="evenodd"/>
          <path id="パス_730" data-name="パス 730" d="M1251.225,258.232s-1.706-.409-1.5-.78,1.572-.275,1.572-.275l-1.289-1.1s-.046-.407.494-.391a7.277,7.277,0,0,1,1.358.244l-1.2-1.29s.084-.344.345-.238a11.231,11.231,0,0,1,1.073.657l-.992-1.167a.536.536,0,0,1,.649-.09,8.91,8.91,0,0,1,1.023.57c2.5,1.721-.964,4.27-1.532,3.861" transform="translate(-1208.042 -198.232)" fill="#ffc99c"/>
          <path id="パス_731" data-name="パス 731" d="M1203.084,306.76l1.212.589,2.3-.266c.336-.1,2.468-.293,1.825.312-.452.425-1.75,1.047-1.727,1.1.284.745,3.983,2.318,4.012,2.386.412.95-2,.088-2.41-.039a15.649,15.649,0,0,1,1.436,1.023.87.87,0,0,1-.841.13,10.6,10.6,0,0,0-1.583-.593c-.13.07,1.462,1.023,1.335,1.078a.762.762,0,0,1-.64.009,14.616,14.616,0,0,0-1.53-.661c-.157.039,1.023.654.876.677-.115.018-.171.212-.279.182-2.914-.806-2.05-2.159-5.412-2.992-1.87-.463.731-2.737,1.424-2.939" transform="translate(-1189.306 -218.626)" fill="#ffc99c"/>
          <path id="パス_732" data-name="パス 732" d="M1366.376,201.432h-46.964a3.709,3.709,0,0,0-3.51,3.881v7.61a3.709,3.709,0,0,0,3.51,3.881h4.249v3.932l4.6-3.932h38.114a3.709,3.709,0,0,0,3.51-3.881v-7.61A3.709,3.709,0,0,0,1366.376,201.432Z" transform="translate(-1233.5 -178.115)" fill="#fff"/>
          <rect id="長方形_204" data-name="長方形 204" width="45.046" height="1.788" transform="translate(85.977 27.865)" fill="#5fd2ff"/>
          <rect id="長方形_205" data-name="長方形 205" width="34.32" height="1.788" transform="translate(85.977 32.671)" fill="#5fd2ff"/>
          <path id="パス_733" data-name="パス 733" d="M1338.23,241.87h46.964a3.71,3.71,0,0,1,3.51,3.881v13.764a3.71,3.71,0,0,1-3.51,3.881h-4.249v3.933l-4.6-3.933H1338.23a3.709,3.709,0,0,1-3.51-3.881V245.751A3.709,3.709,0,0,1,1338.23,241.87Z" transform="translate(-1240.739 -193.668)" fill="#fff"/>
          <rect id="長方形_206" data-name="長方形 206" width="45.046" height="1.788" transform="translate(143.423 54.537) rotate(180)" fill="#5fd2ff"/>
          <rect id="長方形_207" data-name="長方形 207" width="34.32" height="1.788" transform="translate(132.698 59.343) rotate(180)" fill="#5fd2ff"/>
          <rect id="長方形_208" data-name="長方形 208" width="39.859" height="1.788" transform="translate(138.237 64.266) rotate(180)" fill="#5fd2ff"/>
          <path id="長方形_209" data-name="長方形 209" d="M0,0H168.12a0,0,0,0,1,0,0V44.007A13.691,13.691,0,0,1,154.43,57.7H13.691A13.691,13.691,0,0,1,0,44.007V0A0,0,0,0,1,0,0Z" transform="translate(54.547 79.708)" fill="#f0faff"/>
          <g id="グループ_440" data-name="グループ 440" transform="translate(85.201 94.132)">
            <path id="パス_734" data-name="パス 734" d="M1339.559,332.175a15.64,15.64,0,0,1,6.114-12.415,15.668,15.668,0,1,0,0,24.829A15.637,15.637,0,0,1,1339.559,332.175Z" transform="translate(-1320.451 -316.507)" fill="#5fd2ff"/>
            <path id="パス_735" data-name="パス 735" d="M1370.99,316.507a15.6,15.6,0,0,0-9.554,3.254,15.66,15.66,0,0,1,0,24.829,15.667,15.667,0,1,0,9.554-28.082Z" transform="translate(-1336.215 -316.507)" fill="#3aaded"/>
            <ellipse id="楕円形_44" data-name="楕円形 44" cx="6.114" cy="12.414" rx="6.114" ry="12.414" transform="translate(19.107 3.254)" fill="#0f68b7"/>
          </g>
          <path id="パス_736" data-name="パス 736" d="M1378.363,318.168l-.68-.726,7.311-6.846h8.208v.995h-7.815Z" transform="translate(-1257.263 -220.101)" fill="#02518c"/>
          <path id="パス_737" data-name="パス 737" d="M1321.743,337.821l-7.025-6.578h-7.2v-.995h7.593l7.311,6.846Z" transform="translate(-1230.276 -227.66)" fill="#02518c"/>
          <rect id="長方形_210" data-name="長方形 210" width="12.074" height="6.466" transform="translate(63.003 101.593)" fill="#5fd2ff"/>
          <rect id="長方形_211" data-name="長方形 211" width="6.708" height="1.492" transform="translate(63.003 110.049)" fill="#5fd2ff"/>
          <rect id="長方形_212" data-name="長方形 212" width="17.906" height="6.466" transform="translate(138.381 90.415)" fill="#5fd2ff"/>
          <rect id="長方形_213" data-name="長方形 213" width="9.948" height="1.492" transform="translate(138.381 98.87)" fill="#5fd2ff"/>
        </g>
      </g>
    </g>
  </g>
</svg>
