<svg id="icon1" xmlns="http://www.w3.org/2000/svg" width="86.695" height="78.226" viewBox="0 0 86.695 78.226">
  <g id="グループ_264" data-name="グループ 264" transform="translate(-305 -2727.774)">
    <g id="パス_265" data-name="パス 265" transform="translate(321.938 2744.939)" fill="#e5f5fd">
      <path d="M 26.060791015625 51.12158203125 C 22.67716026306152 51.12158203125 19.3952808380127 50.45912170410156 16.30631065368652 49.15259170532227 C 13.32220077514648 47.89042282104492 10.64200115203857 46.08330917358398 8.340130805969238 43.78145217895508 C 6.038270950317383 41.47957992553711 4.231161117553711 38.79938125610352 2.968991041183472 35.81526947021484 C 1.662461042404175 32.72629928588867 1.000001072883606 29.44442176818848 1.000001072883606 26.060791015625 C 1.000001072883606 22.67716026306152 1.662461042404175 19.3952808380127 2.968991041183472 16.30631065368652 C 4.231161117553711 13.32220077514648 6.038270950317383 10.64200115203857 8.340130805969238 8.340130805969238 C 10.64200115203857 6.038270950317383 13.32220077514648 4.231161117553711 16.30631065368652 2.968991041183472 C 19.3952808380127 1.662461042404175 22.67716026306152 1.000001072883606 26.060791015625 1.000001072883606 C 29.44442176818848 1.000001072883606 32.72629928588867 1.662461042404175 35.81526947021484 2.968991041183472 C 38.79938125610352 4.231161117553711 41.47957992553711 6.038270950317383 43.78145217895508 8.340130805969238 C 46.08330917358398 10.64200115203857 47.89042282104492 13.32220077514648 49.15259170532227 16.30631065368652 C 50.45912170410156 19.3952808380127 51.12158203125 22.67716026306152 51.12158203125 26.060791015625 C 51.12158203125 29.44442176818848 50.45912170410156 32.72629928588867 49.15259170532227 35.81526947021484 C 47.89042282104492 38.79938125610352 46.08330917358398 41.47957992553711 43.78145217895508 43.78145217895508 C 41.47957992553711 46.08330917358398 38.79938125610352 47.89042282104492 35.81526947021484 49.15259170532227 C 32.72629928588867 50.45912170410156 29.44442176818848 51.12158203125 26.060791015625 51.12158203125 Z" stroke="none"/>
      <path d="M 26.060791015625 2 C 22.81172180175781 2 19.6609001159668 2.635890960693359 16.69586181640625 3.889991760253906 C 13.83095169067383 5.101749420166016 11.25759124755859 6.836891174316406 9.0472412109375 9.0472412109375 C 6.836891174316406 11.25759124755859 5.101749420166016 13.83095169067383 3.889991760253906 16.69586181640625 C 2.635890960693359 19.6609001159668 2 22.81172180175781 2 26.060791015625 C 2 29.30986022949219 2.635890960693359 32.4606819152832 3.889991760253906 35.42572021484375 C 5.101749420166016 38.29063034057617 6.836891174316406 40.86399078369141 9.0472412109375 43.0743408203125 C 11.25759124755859 45.28469085693359 13.83095169067383 47.01983261108398 16.69586181640625 48.23159027099609 C 19.6609001159668 49.48569107055664 22.81172180175781 50.12158203125 26.060791015625 50.12158203125 C 29.30986022949219 50.12158203125 32.4606819152832 49.48569107055664 35.42572021484375 48.23159027099609 C 38.29063034057617 47.01983261108398 40.86399078369141 45.28469085693359 43.0743408203125 43.0743408203125 C 45.28469085693359 40.86399078369141 47.01983261108398 38.29063034057617 48.23159027099609 35.42572021484375 C 49.48569107055664 32.4606819152832 50.12158203125 29.30986022949219 50.12158203125 26.060791015625 C 50.12158203125 22.81172180175781 49.48569107055664 19.6609001159668 48.23159027099609 16.69586181640625 C 47.01983261108398 13.83095169067383 45.28469085693359 11.25759124755859 43.0743408203125 9.0472412109375 C 40.86399078369141 6.836891174316406 38.29063034057617 5.101749420166016 35.42572021484375 3.889991760253906 C 32.4606819152832 2.635890960693359 29.30986022949219 2 26.060791015625 2 M 26.060791015625 0 C 40.45376968383789 0 52.12158203125 11.66781234741211 52.12158203125 26.060791015625 C 52.12158203125 40.45376968383789 40.45376968383789 52.12158203125 26.060791015625 52.12158203125 C 11.66781234741211 52.12158203125 0 40.45376968383789 0 26.060791015625 C 0 11.66781234741211 11.66781234741211 0 26.060791015625 0 Z" stroke="none" fill="#91dcff"/>
    </g>
    <g id="パス_266" data-name="パス 266" transform="translate(331.352 2754.353)" fill="#e5f5fd">
      <path d="M 16.647216796875 32.29443740844727 C 12.46769714355469 32.29443740844727 8.538336753845215 30.66683769226074 5.582966804504395 27.71146774291992 C 2.627596855163574 24.75609588623047 0.9999967813491821 20.82673645019531 0.9999967813491821 16.647216796875 C 0.9999967813491821 12.46769714355469 2.627596855163574 8.538336753845215 5.582966804504395 5.582966804504395 C 8.538336753845215 2.627596855163574 12.46769714355469 0.9999967813491821 16.647216796875 0.9999967813491821 C 20.82673645019531 0.9999967813491821 24.75609588623047 2.627596855163574 27.71146774291992 5.582966804504395 C 30.66683769226074 8.538336753845215 32.29443740844727 12.46769714355469 32.29443740844727 16.647216796875 C 32.29443740844727 20.82673645019531 30.66683769226074 24.75609588623047 27.71146774291992 27.71146774291992 C 24.75609588623047 30.66683769226074 20.82673645019531 32.29443740844727 16.647216796875 32.29443740844727 Z" stroke="none"/>
      <path d="M 16.647216796875 1.999996185302734 C 12.73480606079102 1.999996185302734 9.05656623840332 3.523576736450195 6.290067672729492 6.290067672729492 C 3.523576736450195 9.05656623840332 1.999996185302734 12.73480606079102 1.999996185302734 16.647216796875 C 1.999996185302734 20.55962753295898 3.523576736450195 24.23786544799805 6.290067672729492 27.00436782836914 C 9.05656623840332 29.7708568572998 12.73480606079102 31.29443740844727 16.647216796875 31.29443740844727 C 20.55962753295898 31.29443740844727 24.23786544799805 29.7708568572998 27.00436782836914 27.00436782836914 C 29.7708568572998 24.23786544799805 31.29443740844727 20.55962753295898 31.29443740844727 16.647216796875 C 31.29443740844727 12.73480606079102 29.7708568572998 9.05656623840332 27.00436782836914 6.290067672729492 C 24.23786544799805 3.523576736450195 20.55962753295898 1.999996185302734 16.647216796875 1.999996185302734 M 16.647216796875 -3.814697265625e-06 C 25.84121704101562 -3.814697265625e-06 33.29443740844727 7.453216552734375 33.29443740844727 16.647216796875 C 33.29443740844727 25.84121704101562 25.84121704101562 33.29443740844727 16.647216796875 33.29443740844727 C 7.453216552734375 33.29443740844727 -3.814697265625e-06 25.84121704101562 -3.814697265625e-06 16.647216796875 C -3.814697265625e-06 7.453216552734375 7.453216552734375 -3.814697265625e-06 16.647216796875 -3.814697265625e-06 Z" stroke="none" fill="#91dcff"/>
    </g>
    <g id="パス_267" data-name="パス 267" transform="translate(339.527 2762.529)" fill="#e5f5fd">
      <path d="M 8.470947265625 15.94189739227295 C 4.351447105407715 15.94189739227295 0.9999972581863403 12.59044742584229 0.9999972581863403 8.470947265625 C 0.9999972581863403 4.351447105407715 4.351447105407715 0.9999972581863403 8.470947265625 0.9999972581863403 C 12.59044742584229 0.9999972581863403 15.94189739227295 4.351447105407715 15.94189739227295 8.470947265625 C 15.94189739227295 12.59044742584229 12.59044742584229 15.94189739227295 8.470947265625 15.94189739227295 Z" stroke="none"/>
      <path d="M 8.470947265625 1.999997138977051 C 4.902856826782227 1.999997138977051 1.999997138977051 4.902856826782227 1.999997138977051 8.470947265625 C 1.999997138977051 12.03903770446777 4.902856826782227 14.94189739227295 8.470947265625 14.94189739227295 C 12.03903770446777 14.94189739227295 14.94189739227295 12.03903770446777 14.94189739227295 8.470947265625 C 14.94189739227295 4.902856826782227 12.03903770446777 1.999997138977051 8.470947265625 1.999997138977051 M 8.470947265625 -1.9073486328125e-06 C 13.14931678771973 -1.9073486328125e-06 16.94189643859863 3.792567253112793 16.94189643859863 8.470947265625 C 16.94189643859863 13.14931678771973 13.14931678771973 16.94189643859863 8.470947265625 16.94189643859863 C 3.792567253112793 16.94189643859863 -1.9073486328125e-06 13.14931678771973 -1.9073486328125e-06 8.470947265625 C -1.9073486328125e-06 3.792567253112793 3.792567253112793 -1.9073486328125e-06 8.470947265625 -1.9073486328125e-06 Z" stroke="none" fill="#91dcff"/>
    </g>
  </g>
  <g id="グループ_451" data-name="グループ 451" transform="translate(0)">
    <path id="パス_253" data-name="パス 253" d="M200.039,130.628a11.856,11.856,0,0,1,23.712,0Z" transform="translate(-168.549 -106.541)" fill="#1ca8ea"/>
    <path id="パス_254" data-name="パス 254" d="M256.862,118.793v11.851h11.674A11.854,11.854,0,0,0,256.862,118.793Z" transform="translate(-213.332 -106.557)" fill="#0f68b7"/>
    <circle id="楕円形_18" data-name="楕円形 18" cx="5.34" cy="5.34" r="5.34" transform="translate(38.195)" fill="#1ca8ea"/>
    <path id="パス_255" data-name="パス 255" d="M256.871,61.047h-.009V71.728h.009a5.341,5.341,0,0,0,0-10.681Z" transform="translate(-213.332 -61.045)" fill="#0f68b7"/>
    <path id="パス_256" data-name="パス 256" d="M200.039,386.162a11.856,11.856,0,0,1,23.712,0Z" transform="translate(-168.549 -307.936)" fill="#1ca8ea"/>
    <path id="パス_257" data-name="パス 257" d="M256.862,374.327v11.851h11.674A11.854,11.854,0,0,0,256.862,374.327Z" transform="translate(-213.332 -307.953)" fill="#0f68b7"/>
    <circle id="楕円形_19" data-name="楕円形 19" cx="5.34" cy="5.34" r="5.34" transform="translate(38.195 54.139)" fill="#1ca8ea"/>
    <path id="パス_258" data-name="パス 258" d="M256.871,316.583h-.009v10.681h.009a5.341,5.341,0,0,0,0-10.681Z" transform="translate(-213.332 -262.442)" fill="#0f68b7"/>
    <path id="パス_259" data-name="パス 259" d="M51.4,258.395a11.856,11.856,0,0,1,23.713,0Z" transform="translate(-51.402 -207.238)" fill="#39424b"/>
    <path id="パス_260" data-name="パス 260" d="M108.225,246.56v11.851H119.9A11.855,11.855,0,0,0,108.225,246.56Z" transform="translate(-96.188 -207.255)"/>
    <circle id="楕円形_20" data-name="楕円形 20" cx="5.34" cy="5.34" r="5.34" transform="translate(6.707 27.071)" fill="#39424b"/>
    <path id="パス_261" data-name="パス 261" d="M108.234,188.814h-.009v10.681h.009a5.341,5.341,0,0,0,0-10.681Z" transform="translate(-96.188 -161.743)"/>
    <path id="パス_262" data-name="パス 262" d="M348.677,258.395a11.856,11.856,0,0,1,23.713,0Z" transform="translate(-285.695 -207.238)" fill="#39424b"/>
    <path id="パス_263" data-name="パス 263" d="M405.5,246.56v11.851h11.674A11.854,11.854,0,0,0,405.5,246.56Z" transform="translate(-330.479 -207.255)"/>
    <circle id="楕円形_21" data-name="楕円形 21" cx="5.34" cy="5.34" r="5.34" transform="translate(69.691 27.071)" fill="#39424b"/>
    <path id="パス_264" data-name="パス 264" d="M405.508,188.814H405.5v10.681h.009a5.341,5.341,0,0,0,0-10.681Z" transform="translate(-330.479 -161.743)"/>
  </g>
</svg>
