<svg id="icon3" xmlns="http://www.w3.org/2000/svg" width="96.905" height="52.285" viewBox="0 0 96.905 52.285">
  <path id="合体_1" data-name="合体 1" d="M40.1,42.508a2.6,2.6,0,0,1-1.046-.22l-.1-.045c-.052-.026-.1-.053-.154-.083L0,19.733l0,0H0L9.865,0l3.528,1.34a16.534,16.534,0,0,0,6.788,1.046l17.4-.975L69.7,29.6a2.594,2.594,0,0,1-.151,4.027l-.535.4a2.6,2.6,0,0,1-3.174-.042L42.921,15.78a.922.922,0,0,0-1.224.067l-.347.351a.918.918,0,0,0,.064,1.358l18.317,15.1a2.6,2.6,0,0,1-3.23,4.066l-19.4-14.808a.919.919,0,0,0-1.119,1.457L51.532,35.36a2.6,2.6,0,0,1-.046,4.148l-.143.1a2.528,2.528,0,0,1-.3.193l-.056.029a2.581,2.581,0,0,1-1.154.284h-.051a2.6,2.6,0,0,1-1.122-.267h0a2.644,2.644,0,0,1-.406-.25L32.406,27.77a1,1,0,0,0-.128-.081l-.062-.029,0,0-.032-.013h0a.919.919,0,0,0-.877,1.594l10.749,8.179a2.6,2.6,0,0,1,.372,3.786l-.38.429a2.587,2.587,0,0,1-1.675.862,2.547,2.547,0,0,1-.271.014Z" transform="translate(9.57 9.278)" fill="#f9bb90" stroke="rgba(0,0,0,0)" stroke-miterlimit="10" stroke-width="1"/>
  <path id="合体_2" data-name="合体 2" d="M45.325,32.637,20.662,11.144,5.224,17.114A3.839,3.839,0,0,1,2.2,10.064L22.728.329a3.379,3.379,0,0,1,2.916,0L37.829,6.153a5.666,5.666,0,0,0,4.29.241l7.67-3.234,4.933,9.1h0l5.636,10.4Z" transform="translate(30.039 1.697)" fill="#f9bb90" stroke="#fff" stroke-miterlimit="10" stroke-width="2"/>
  <rect id="長方形_133" data-name="長方形 133" width="26.541" height="11.273" transform="translate(0 26.446) rotate(-61.967)" fill="#39424b"/>
  <g id="グループ_266" data-name="グループ 266" transform="translate(0.002)">
    <path id="パス_272" data-name="パス 272" d="M49.931,213.708l9.952,5.3,6.3-11.836-9.741-5.695Z" transform="translate(-49.931 -187.34)"/>
    <rect id="長方形_134" data-name="長方形 134" width="11.273" height="26.541" transform="matrix(0.826, -0.564, 0.564, 0.826, 72.619, 6.361)" fill="#1ca8ea"/>
  </g>
  <path id="パス_273" data-name="パス 273" d="M407.942,210.811l-7.4-10.831-9.654,5.857,7.749,11.337Z" transform="translate(-311.037 -188.902)" fill="#0f68b7"/>
</svg>
