<svg xmlns="http://www.w3.org/2000/svg" width="63.792" height="73.812" viewBox="0 0 63.792 73.812">
  <g id="image-matching02.svg" transform="translate(-651 -2727.774)">
    <path id="パス_274" data-name="パス 274" d="M652.51,874.459a1.441,1.441,0,0,0-.472,1.09v23.243h-32.45l-.016-7.237a1.571,1.571,0,0,0-.5-1.123,1.463,1.463,0,0,0-1.171-.341l-8.523-.045a4.826,4.826,0,0,1-4.717-4.815V874.154a1.486,1.486,0,0,0-1.481-1.481h-2.862a2.437,2.437,0,0,1-2.18-.862,2.47,2.47,0,0,1,.244-2.326l6.1-10.333a1.415,1.415,0,0,0,.162-.683v-4.977a28.531,28.531,0,0,1,16.461-25.78,28.461,28.461,0,0,1,40.63,25.731,28.6,28.6,0,0,1-9.222,21.015Z" transform="translate(53.061 1902.794)" fill="#1ca8ea"/>
    <path id="交差_2" data-name="交差 2" d="M16128.5,77.586V3.776a28.49,28.49,0,0,1,19.069,49.477,1.443,1.443,0,0,0-.471,1.091V77.586Z" transform="translate(-15442 2724)" fill="#0f68b7"/>
    <g id="グループ_270" data-name="グループ 270">
      <g id="グループ_268" data-name="グループ 268" transform="translate(674.949 2740.292)">
        <path id="パス_275" data-name="パス 275" d="M264.881,1188.2" transform="translate(-260.33 -1169.773)" fill="#fff"/>
        <path id="パス_276" data-name="パス 276" d="M284.371,1179.646a2.515,2.515,0,0,0-4.411-1.653l-4.976-2.881a2.517,2.517,0,1,0-4.9-.81,2.473,2.473,0,0,0,.135.8l-4.975,2.882a2.516,2.516,0,1,0-2.437,4.111l.006,5.646a2.516,2.516,0,1,0,2.4,4.143l4.991,2.882a2.478,2.478,0,0,0-.123.778,2.517,2.517,0,1,0,5.034,0,2.478,2.478,0,0,0-.123-.778l4.991-2.882a2.516,2.516,0,1,0,2.356-4.154v-5.625a2.506,2.506,0,0,0,2.034-2.464Zm-2.516-1.545a1.546,1.546,0,1,1-1.547,1.545,1.546,1.546,0,0,1,1.547-1.545Zm-9.253-5.341a1.548,1.548,0,0,1,1.364,2.276.194.194,0,0,0-.027.037l-.017.033a1.545,1.545,0,1,1-1.32-2.346Zm-10.8,6.886a1.546,1.546,0,1,1,1.547,1.546,1.546,1.546,0,0,1-1.547-1.546Zm1.547,12.108a1.546,1.546,0,1,1,1.546-1.546,1.546,1.546,0,0,1-1.546,1.546Zm9.252,5.341a1.546,1.546,0,1,1,1.546-1.546,1.546,1.546,0,0,1-1.546,1.546Zm1.916-3.172a2.505,2.505,0,0,0-3.832,0l-4.97-2.865a2.476,2.476,0,0,0,.15-.849,2.52,2.52,0,0,0-2.077-2.479l-.006-5.609a2.519,2.519,0,0,0,1.949-3.29l4.975-2.881a2.515,2.515,0,0,0,3.795,0l4.975,2.881a2.519,2.519,0,0,0,1.895,3.28v5.625a2.517,2.517,0,0,0-2.028,2.469,2.477,2.477,0,0,0,.149.847Zm8.883-3.714a1.546,1.546,0,1,1-1.546-1.546,1.545,1.545,0,0,1,1.546,1.546Zm0,0" transform="translate(-260.826 -1171.783)" fill="#fff"/>
      </g>
      <g id="グループ_269" data-name="グループ 269" transform="translate(681.336 2727.774) rotate(30)">
        <path id="パス_275-2" data-name="パス 275" d="M0,0" transform="translate(6.764 27.38)" fill="#fff"/>
        <path id="パス_276-2" data-name="パス 276" d="M34.989,11.684a3.737,3.737,0,0,0-6.555-2.457L21.04,4.946a3.741,3.741,0,1,0-7.282-1.2,3.671,3.671,0,0,0,.2,1.2L6.565,9.221a3.739,3.739,0,1,0-3.621,6.11l.008,8.39a3.738,3.738,0,1,0,3.564,6.156l7.417,4.283a3.683,3.683,0,0,0-.183,1.156,3.74,3.74,0,1,0,7.481,0,3.682,3.682,0,0,0-.183-1.156l7.417-4.283a3.739,3.739,0,1,0,3.5-6.173V15.345a3.724,3.724,0,0,0,3.022-3.661Zm-3.74-2.3a2.3,2.3,0,1,1-2.3,2.3,2.3,2.3,0,0,1,2.3-2.3ZM17.5,1.451a2.3,2.3,0,0,1,2.027,3.383.288.288,0,0,0-.04.055l-.025.048A2.3,2.3,0,1,1,17.5,1.451ZM1.451,11.684a2.3,2.3,0,1,1,2.3,2.3,2.3,2.3,0,0,1-2.3-2.3Zm2.3,17.992a2.3,2.3,0,1,1,2.3-2.3,2.3,2.3,0,0,1-2.3,2.3ZM17.5,37.613a2.3,2.3,0,1,1,2.3-2.3,2.3,2.3,0,0,1-2.3,2.3ZM20.346,32.9a3.723,3.723,0,0,0-5.694,0L7.266,28.641a3.678,3.678,0,0,0,.224-1.261A3.744,3.744,0,0,0,4.4,23.7L4.4,15.361a3.743,3.743,0,0,0,2.9-4.889L14.683,6.19a3.737,3.737,0,0,0,5.639,0l7.392,4.282a3.743,3.743,0,0,0,2.816,4.874V23.7a3.74,3.74,0,0,0-3.014,3.669,3.678,3.678,0,0,0,.222,1.259Zm13.2-5.519a2.3,2.3,0,1,1-2.3-2.3,2.3,2.3,0,0,1,2.3,2.3Zm0,0" transform="translate(0 0)" fill="#fff"/>
      </g>
    </g>
  </g>
</svg>
