<svg xmlns="http://www.w3.org/2000/svg" xmlns:xlink="http://www.w3.org/1999/xlink" width="160" height="160" viewBox="0 0 160 160">
  <defs>
    <clipPath id="clip-path">
      <circle id="楕円形_47" data-name="楕円形 47" cx="80" cy="80" r="80" fill="none"/>
    </clipPath>
  </defs>
  <g id="mission03.svg" transform="translate(-1481 -172)">
    <circle id="楕円形_46" data-name="楕円形 46" cx="80" cy="80" r="80" transform="translate(1481 172)" fill="#e3f7ff"/>
    <g id="グループ_448" data-name="グループ 448" transform="translate(1481 172)">
      <g id="グループ_447" data-name="グループ 447" clip-path="url(#clip-path)">
        <g id="グループ_445" data-name="グループ 445" transform="translate(74.497 29.252)">
          <path id="パス_738" data-name="パス 738" d="M1688.771,446.253l-.51-5.389,5.408.13-.052,6.171Z" transform="translate(-1635.213 -304.661)" fill="#ffc99c" fill-rule="evenodd"/>
          <path id="パス_739" data-name="パス 739" d="M1686.917,448.882c-1.528,2.746-4.018,5.372-2.074,7.7h9.9c.017-.044.033-.093.048-.145a1.607,1.607,0,0,0,.249-1.622c-.573-2.172-2.26-5.51-2.839-5.681-1.149-.341-2.78.619-5.282-.257" transform="translate(-1633.625 -307.745)" fill="#0555a5" fill-rule="evenodd"/>
          <path id="パス_740" data-name="パス 740" d="M1684.086,458.451v0a1.812,1.812,0,0,0,.738,1.812h9.9c.511-.3.645-.5.3-1.767Z" transform="translate(-1633.606 -311.425)" fill="#1d3975" fill-rule="evenodd"/>
          <path id="パス_741" data-name="パス 741" d="M1662.149,324.624l5.793,23.53,2.957,14.009,6.564,34.121a8.248,8.248,0,0,0,3.61.505,16.623,16.623,0,0,0,3.342-.457c.049-10.075.3-23.622.386-35.8.076-10.71.352-20.232.393-28.354.017-3.516-3.978-13.459-3.927-13.332Z" transform="translate(-1625.17 -257.731)" fill="#0f68b7" fill-rule="evenodd"/>
          <path id="パス_742" data-name="パス 742" d="M1650.253,446.138l.021-5.574,5.407.13-.582,6.355Z" transform="translate(-1620.595 -304.546)" fill="#ffc99c" fill-rule="evenodd"/>
          <path id="パス_743" data-name="パス 743" d="M1641.56,447.684s-8.49,3.49-10.872,4.657c-1.85.906-2.9,2.813-1.378,3.785h18.507c.016-.044.032-.092.048-.145.274-.914.995-7.449-.931-7.3a8.256,8.256,0,0,1-5.374-.994" transform="translate(-1612.259 -307.284)" fill="#0555a5" fill-rule="evenodd"/>
          <path id="パス_744" data-name="パス 744" d="M1628.559,458.451v0l-.012.406a1.686,1.686,0,0,0,.754,1.406h18.593c.016-.044.032-.093.048-.145.054-.178.185-1.107.25-1.622Z" transform="translate(-1612.246 -311.425)" fill="#1d3975" fill-rule="evenodd"/>
          <path id="パス_745" data-name="パス 745" d="M1648.8,323.434c-2,25.191-.964,49.493-.061,72.906a21.144,21.144,0,0,0,4.816.431c2.22-.129,1.815-.385,1.815-.385l5.2-37.144a71.641,71.641,0,0,1,3.926-15.05c1.986-4.759,4.422-6.132,4.062-11.663-.372-5.728.11-10.167-.679-12.147s-4.724-1.185-4.724-1.185Z" transform="translate(-1619.594 -257.806)" fill="#0f68b7" fill-rule="evenodd"/>
          <path id="パス_746" data-name="パス 746" d="M1666.658,381.712l1.164-8.318a80.022,80.022,0,0,1,2.083-9.676h0l-1.1-7.882-2.286,19.769Z" transform="translate(-1626.85 -271.958)" fill="#0555a5" fill-rule="evenodd"/>
          <path id="パス_747" data-name="パス 747" d="M1644.586,269.075c-2.956,6.692-4.139,21.627-12.553,27.9-7.556,3.017-11.791,7.471-16.074,3.721-1.861-1.63-1.351-2.681-.606-3.338,3.363-2.65,14.265-11.44,14.968-12.234,2.033-2.294,7.578-25.076,13.708-27.382.725-.479,2.656,8.089.557,11.33" transform="translate(-1606.912 -234.223)" fill="#5fd2ff" fill-rule="evenodd"/>
          <path id="パス_748" data-name="パス 748" d="M1642.929,284.1c-2.066,3.226-.828,15.76-9.068,20.815-3.028,1.308-9.892,6.288-14.43,4.877l.362-.107s9.492-4.483,13.444-7.41,9.189-23.908,9.189-23.908-.127,4.358.5,5.732" transform="translate(-1608.74 -242.164)" fill="#5fd2ff" fill-rule="evenodd"/>
          <path id="パス_749" data-name="パス 749" d="M1622.886,324.394c-1.562.764-1.57.45-3.155,1.21-1.618.775-6.158-1.929-5.073-4.54.565-.92,1.829-1.964,4.119-3.69,1.969,1.141,3.505,4.386,4.109,7.02" transform="translate(-1606.841 -257.165)" fill="#94e6ff" fill-rule="evenodd"/>
          <path id="パス_750" data-name="パス 750" d="M1609.526,323.925c-.753-.214-3.746-1.026-4.447-.785-.358.122-.284.234-.2.418a1.434,1.434,0,0,0,.636.519c.527.2,1.2.977,1.507,1.045-1.451,2.883-5.745,3.934-4.847,5.382.313.139,2.313.255,2.82.42,1.612.526,2.463.612,7.464-3.412.237-.19.97-.572,1.224-.782a5.586,5.586,0,0,0-2.276-3Z" transform="translate(-1602.058 -259.365)" fill="#ffc99c" fill-rule="evenodd"/>
          <path id="パス_751" data-name="パス 751" d="M1681.188,284.411a116.761,116.761,0,0,0-.82,24.085c-12.944,2.223-24.473,1.772-32.2-.689-.6-8.837-.776-49.721,11-52.509,4.254-1.193,7.559-1.085,12.071-.625,4.569.466,7.53,1.543,9.917,3.9,8,7.505,10.844,33.517,12.157,44.449.193,1.6-3.549,4.09-5.457,2.411a13.058,13.058,0,0,1-2.045-4.362c-1.769-5.935-3.708-15.114-4.615-16.657" transform="translate(-1619.708 -232.925)" fill="#5fd2ff" fill-rule="evenodd"/>
          <path id="パス_752" data-name="パス 752" d="M1716.593,328.632c.2,1.551.309,2.5.5,4.068.193,1.6-3.8,3.651-5.708,1.973-.62-.747-1.143-2.124-1.95-4.572,1.54-1.346,4.746-1.716,7.161-1.469" transform="translate(-1643.356 -261.467)" fill="#94e6ff" fill-rule="evenodd"/>
          <path id="パス_753" data-name="パス 753" d="M1682.177,299.5c-1.009,6.419-1.085,15.984-.846,24.04-11.8,2.027-22.746,2.027-30.879-.332,5.2.6,25.077.918,26.629-4.07.887-2.851,1.086-17.354,2.7-25.678,1.14,1.253,1.67,4.057,2.394,6.039" transform="translate(-1620.671 -247.967)" fill="#5fd2ff" fill-rule="evenodd"/>
          <path id="パス_754" data-name="パス 754" d="M1665.97,236.236a7.719,7.719,0,0,0,3.312,3.816l-.049,2.633-.383.326c-1.5,1.607.34,3.828,2.047,3.727,6.718.331,4.715-2.7,5.836-4.562l-.651-3.91c.223-.012,2.094-.99,2.577-1.138a2.5,2.5,0,0,0,1.239-2.062c.047-.982-1.47-.664-1.47-.664,1.839-2.517,3.921-4.572,1.221-6.838s-8.9-3.588-8.9-3.588l-3.733-1.294c.475,1.288-.16,5.585-1.119,8.268-.859,2.407-1.148,2.855.074,5.287" transform="translate(-1626.325 -220.744)" fill="#ffc99c" fill-rule="evenodd"/>
          <path id="パス_755" data-name="パス 755" d="M1677.125,248.756s-2.111,3.621-3.846,3.949-.848.086-1.494.009l.049-2.633c1.2.192,2.364.1,5.291-1.325" transform="translate(-1628.876 -230.773)" fill="#f2b486" fill-rule="evenodd"/>
          <path id="パス_756" data-name="パス 756" d="M1681.353,227.248a5.225,5.225,0,0,0-2.063-5.789c-4.191-3.274-7.79-1.464-9.344-1.083-1.075.264-1.8.236-2.857.456-2.642.553-2.867,6.047-.963,7.853.19.179.482-2.337.695-2.177a4.655,4.655,0,0,0,.742.532c3.1,1.59,6.677-.3,8.485,1.832.9,1.055.806,2.574-.2,4.921-.3.692-.691,1.2.478.66.536-.249,1.419-.6,1.721-.352a1.389,1.389,0,0,1-.2,2.05c-.239.164-.691.409-.691.409,4.933-.935,6.087-7.849,4.2-9.312" transform="translate(-1626.218 -219.534)" fill="#563e27" fill-rule="evenodd"/>
          <path id="パス_757" data-name="パス 757" d="M1713.663,336.522c-.046,1.94-.18,2.79-.309,4.676-.028.417.654,1.2,1.2,1.726h4.149a.042.042,0,0,0,.015-.015,3.818,3.818,0,0,0,.806-2.524,2.787,2.787,0,0,0-.233-.8c-.281-.775-.718-1.865-.794-2.082-.182-.514-.513-.971-.408-1.524a6.049,6.049,0,0,0-4.425.542" transform="translate(-1644.864 -264.243)" fill="#ffc99c"/>
          <path id="パス_758" data-name="パス 758" d="M1674.657,257.888c.8.927,2.2,2.407,3,3.334a16.336,16.336,0,0,0,4.285-6.519c-.387-.392-1.166-.828-1.552-1.22-.883,1.709-2.515,3.235-5.73,4.4" transform="translate(-1629.981 -232.591)" fill="#94e6ff" fill-rule="evenodd"/>
          <path id="パス_759" data-name="パス 759" d="M1664.054,292.526l2.866,5.514,3.842-5.585c-.638-7.705-.064-18.935.017-28.475l1.32-1.521-1.524-1.832-1.791,1.265.767,2.06c-2.63,6.487-5.058,24.386-5.5,28.574" transform="translate(-1625.903 -235.339)" fill="#355298"/>
          <path id="パス_760" data-name="パス 760" d="M1672.522,258.23c-.9.8-2.365,1.794-3.261,2.6a13.28,13.28,0,0,1,.48-5.924l.986-.533a7.02,7.02,0,0,0,1.8,3.857" transform="translate(-1627.846 -232.934)" fill="#94e6ff" fill-rule="evenodd"/>
          <path id="パス_761" data-name="パス 761" d="M1688.182,284.553l-7.449-.656-.206,1.483,7.449.659Z" transform="translate(-1632.239 -244.289)" fill="#94e6ff" fill-rule="evenodd"/>
        </g>
        <g id="グループ_446" data-name="グループ 446" transform="translate(19.136 27.077)">
          <path id="パス_762" data-name="パス 762" d="M1540.788,446.031l.532-5.626-5.645.135.054,6.442Z" transform="translate(-1521.165 -302.31)" fill="#ffc99c" fill-rule="evenodd"/>
          <path id="パス_763" data-name="パス 763" d="M1539.067,448.775c1.095,3.906,4.2,5.608,2.165,8.042H1530.9c-.017-.046-.034-.1-.051-.151a1.681,1.681,0,0,1-.26-1.694c.6-2.267,2.359-5.751,2.964-5.93,1.2-.356,2.9.646,5.514-.268" transform="translate(-1519.166 -305.529)" fill="#355298" fill-rule="evenodd"/>
          <path id="パス_764" data-name="パス 764" d="M1541.838,458.763v0l.013.424a1.762,1.762,0,0,1-.784,1.467h-10.223a1.465,1.465,0,0,1-.31-1.844Z" transform="translate(-1519.112 -309.37)" fill="#1d3975" fill-rule="evenodd"/>
          <path id="パス_765" data-name="パス 765" d="M1557.571,319.065l-6.047,24.563-3.087,14.623-6.852,35.618a8.613,8.613,0,0,1-3.768.527,17.388,17.388,0,0,1-3.489-.477c-.05-10.517,0-23.872,1.137-37.294.954-11.248-1.32-20.665-.631-33.07.2-3.665,2.834-10.655,2.781-10.522Z" transform="translate(-1520.642 -253.32)" fill="#0555a5" fill-rule="evenodd"/>
          <path id="パス_766" data-name="パス 766" d="M1580.982,445.911l-.021-5.818-5.645.135.607,6.634Z" transform="translate(-1536.411 -302.189)" fill="#ffc99c" fill-rule="evenodd"/>
          <path id="パス_767" data-name="パス 767" d="M1580.781,447.524c2.8,3.321,8.828,4.031,11.349,4.862,2.042.673,3.025,2.936,1.439,3.951h-19.319c-.017-.046-.034-.1-.05-.151-.287-.955-1.038-7.775.972-7.623a8.617,8.617,0,0,0,5.61-1.038" transform="translate(-1535.837 -305.048)" fill="#355298" fill-rule="evenodd"/>
          <path id="パス_768" data-name="パス 768" d="M1594.412,458.763v0l.013.424a1.76,1.76,0,0,1-.783,1.467h-19.319c-.017-.046-.034-.1-.05-.151-.056-.186-.193-1.156-.26-1.694Z" transform="translate(-1535.91 -309.37)" fill="#1d3975" fill-rule="evenodd"/>
          <path id="パス_769" data-name="パス 769" d="M1572.383,317.823l.616,9.331c1.825,18.839,1.026,43.051-.553,66.775a22.092,22.092,0,0,1-5.027.45c-2.318-.134-1.895-.4-1.895-.4L1560.1,355.2a74.828,74.828,0,0,0-4.1-15.71c-2.073-4.969-4.616-6.4-4.241-12.175.389-5.979-.114-10.614.709-12.68s4.93-1.236,4.93-1.236Z" transform="translate(-1527.337 -253.399)" fill="#0555a5" fill-rule="evenodd"/>
          <path id="パス_770" data-name="パス 770" d="M1565.19,378.659l-1.215-8.682a83.47,83.47,0,0,0-2.174-10.1h0l1.149-8.228,2.387,20.636Z" transform="translate(-1531.213 -268.172)" fill="#0555a5" fill-rule="evenodd"/>
          <path id="パス_771" data-name="パス 771" d="M1570.8,269.756c3.3,7.237,4.532,15.118,13.97,16.524,6.677.185,20.393-9.459,19.49-11.762-.982-2.5,2.519-4.487-1.317-4.415-5.1-.015-17.58,4.969-18.73,4.888-1.089-.077-5.307-16.19-12-18.62-.794-.511-3.737,9.888-1.415,13.385" transform="translate(-1534.339 -231.521)" fill="#0555a5" fill-rule="evenodd"/>
          <path id="パス_772" data-name="パス 772" d="M1621.738,275.883c.321-.788,1.631-3.894,2.306-4.334.345-.225.391-.086.489.113a1.553,1.553,0,0,1,.018.892c-.179.587.032,1.682-.115,1.99,3.44.689,7.215-2.283,7.853-.545-.09.362-1.331,2.151-1.529,2.7-.629,1.732-1.125,2.518-7.919,4.1-.322.074-1.139.447-1.489.524a6.068,6.068,0,0,1-1.041-3.954Z" transform="translate(-1553.709 -237.321)" fill="#ffc99c" fill-rule="evenodd"/>
          <path id="パス_773" data-name="パス 773" d="M1517.127,274.108c-6.875,19.087-6.3,21.4-.729,33.629.49,1.075.873,2.21,2.519,2.21.578,0,2.311-1.155,3.466-2.31a2.112,2.112,0,0,0,.842-1.461c-.265-4.316-3.988-10.7-1.515-14.746,5.558-9.081,10.911-17.891,7.958-23.711-.14-.817-11.656,2.814-12.542,6.389" transform="translate(-1512.096 -235.847)" fill="#0f68b7" fill-rule="evenodd"/>
          <path id="パス_774" data-name="パス 774" d="M1524.5,279.744a134.791,134.791,0,0,1,1.354,27.681c12.9,2.216,25.218,1.515,32.924-.938-.361-8.514,2.155-49.365-10.463-52.071-8.535-2.392-19.981-1.636-24.71,3.027l-.041.038c-3.613,3.385-8.078,14.545-10.18,22.63-4.194,16.134,7.617,7.17,11.115-.368" transform="translate(-1512.25 -230.266)" fill="#0f68b7" fill-rule="evenodd"/>
          <path id="パス_775" data-name="パス 775" d="M1557.431,253.407c1.549,7.03,2.088,30.769,1.924,38.612-.3-.591-13.436-33.273-14.548-38.7a26.982,26.982,0,0,1,12.624.087" transform="translate(-1524.677 -230.081)" fill="#fff" fill-rule="evenodd"/>
          <path id="パス_776" data-name="パス 776" d="M1564.253,282.542l-.524,13.353-5.831-12.277-.349-17.4-1.367-1.914,1.468-1.614,1.813.974-.6,2.2c1.792,4.777,4.2,12.953,5.4,16.674" transform="translate(-1529.052 -233.958)" fill="#e60000"/>
          <path id="パス_777" data-name="パス 777" d="M1532.005,292.628c1,6.4,1.593,19.652,1.354,27.681,3.383-8.386,1.588-30.337.932-33.718a42.126,42.126,0,0,1-2.286,6.036" transform="translate(-1519.753 -243.151)" fill="#0f68b7" fill-rule="evenodd"/>
          <path id="パス_778" data-name="パス 778" d="M1557.338,235.1a8.353,8.353,0,0,1-3.6,3.877l.049,2.624.382.325c1.5,1.6-.124,4.892-1.827,4.79-4.307.212-7.612-3.319-6.318-5.235l.562-.626.124-3.714c-.222-.013-1.839-.932-2.321-1.079a2.5,2.5,0,0,1-1.235-2.055c-.047-.979,1.466-.662,1.466-.662-1.833-2.508-3.908-4.557-1.217-6.815s8.873-3.577,8.873-3.577l3.721-1.29c-.473,1.284.159,5.567,1.115,8.241.856,2.4,1.438,2.772.22,5.2" transform="translate(-1523.644 -218.178)" fill="#ffc99c" fill-rule="evenodd"/>
          <path id="パス_779" data-name="パス 779" d="M1552.437,247.652c1.221,2.093,2.646,4.263,5.323,3.945l-.049-2.624c-1.191.191-2.356.1-5.274-1.321" transform="translate(-1527.612 -228.174)" fill="#f2b486" fill-rule="evenodd"/>
          <path id="パス_780" data-name="パス 780" d="M1553.995,225.036c-3.094,1.585-6.656-.3-8.457,1.826-.892,1.051-.8,2.566.2,4.905.294.689.687,1.2-.477.658-.535-.247-1.415-.593-1.715-.351a1.384,1.384,0,0,0,.2,2.043c.238.164.69.407.69.407a7.329,7.329,0,0,1-5.836-7.565,12.853,12.853,0,0,1,.328-2.746,3,3,0,0,1-.132-.884,2.869,2.869,0,0,1,1.98-2.769,2.793,2.793,0,0,1,2.713-2.416,2.622,2.622,0,0,1,1.152.265l.137-.036a2.915,2.915,0,0,1,4.463-.686,3.965,3.965,0,0,1,3.187-1.688,4.414,4.414,0,0,1,4.134,4.648,4.821,4.821,0,0,1-1.827,3.858,4.64,4.64,0,0,1-.74.53" transform="translate(-1522.289 -216)" fill="#333" fill-rule="evenodd"/>
          <path id="パス_781" data-name="パス 781" d="M1567.245,292.514h0l3.6-29.425-2.916-2.46,1.846-2.186-1.811-3.895a18.123,18.123,0,0,1-2.642-.644c1.549,7.03,2.087,30.766,1.924,38.61" transform="translate(-1532.567 -230.578)" fill="#105cb5" fill-rule="evenodd"/>
          <path id="パス_782" data-name="パス 782" d="M1557.139,292.481h0L1539.382,265.2l2.068-3.206-2.4-1.551.861-5.966a23.656,23.656,0,0,1,2.692-.661c1.155,5.518,14.233,38.056,14.54,38.664" transform="translate(-1522.461 -230.545)" fill="#0555a5" fill-rule="evenodd"/>
          <path id="パス_783" data-name="パス 783" d="M1527.161,332.615l2.766,2.529c.4.213,2.763,3.813,1.626,3.789-.8-.017-1.664-1.03-1.7-.958-.411.941.454,4.283.42,4.372-.478,1.245-1.915-1.718-2.181-2.21a20.385,20.385,0,0,1,.4,2.236,1.115,1.115,0,0,1-.891-.639,13.712,13.712,0,0,0-.921-1.974c-.182-.054.422,2.259.256,2.2a.98.98,0,0,1-.6-.568,18.892,18.892,0,0,0-.811-1.988c-.18-.106.351,1.524.2,1.414-.122-.087-.349.041-.422-.084-1.953-3.37-.194-4.134-1.447-6.637C1525.173,331.378,1527.161,332.615,1527.161,332.615Z" transform="translate(-1516.62 -260.744)" fill="#ffc99c" fill-rule="evenodd"/>
        </g>
      </g>
    </g>
  </g>
</svg>
