<svg xmlns="http://www.w3.org/2000/svg" xmlns:xlink="http://www.w3.org/1999/xlink" width="160" height="160" viewBox="0 0 160 160">
  <defs>
    <clipPath id="clip-path">
      <circle id="楕円形_42" data-name="楕円形 42" cx="80" cy="80" r="80" fill="none"/>
    </clipPath>
  </defs>
  <g id="mission01.svg" transform="translate(-867 -153.004)">
    <circle id="楕円形_41" data-name="楕円形 41" cx="80" cy="80" r="80" transform="translate(867 153.004)" fill="#e3f7ff"/>
    <g id="グループ_438" data-name="グループ 438" transform="translate(867 153.004)">
      <g id="グループ_437" data-name="グループ 437" transform="translate(0 0)" clip-path="url(#clip-path)">
        <g id="グループ_436" data-name="グループ 436" transform="translate(8.382 23.996)">
          <path id="パス_679" data-name="パス 679" d="M906.371,323.861h-1.849V325h.643v1.566h1.206Z" transform="translate(-889.813 -242.714)" fill="#092978" fill-rule="evenodd"/>
          <path id="パス_680" data-name="パス 680" d="M895.653,315.786c.122,1.008.5,1.475.268,2.454a9.577,9.577,0,0,0,.2,2.511c.045.577-.071,2.983.917,2.94a.356.356,0,0,0,.271-.13c.183.441.854.033,1.09-.116.23.417.975.113,1.182-.148.279.7,2.5-.3,2.034-1.025.536-.516.263-.572.139-1.148a42.417,42.417,0,0,0-1.333-4.706c-.267-.512-.68-.942-.655-1.54Z" transform="translate(-886.402 -239.259)" fill="#ffc99c"/>
          <path id="パス_681" data-name="パス 681" d="M894.662,323.861h1.849V325h-.643v1.566h-1.206Z" transform="translate(-886.021 -242.714)" fill="#092978" fill-rule="evenodd"/>
          <path id="パス_682" data-name="パス 682" d="M883.207,328.054h5.317a2.6,2.6,0,0,1,2.587,2.587v22.148a2.6,2.6,0,0,1-2.587,2.587h-5.317a2.594,2.594,0,0,1-2.587-2.587V330.641a2.594,2.594,0,0,1,2.587-2.587" transform="translate(-880.62 -244.326)" fill="#5fd2ff" fill-rule="evenodd"/>
          <path id="パス_683" data-name="パス 683" d="M891.661,328.054h14.257a1.677,1.677,0,0,1,1.673,1.673V353.7a1.677,1.677,0,0,1-1.673,1.673H891.661a1.677,1.677,0,0,1-1.673-1.673V329.727a1.677,1.677,0,0,1,1.673-1.673" transform="translate(-884.223 -244.326)" fill="#3aaded" fill-rule="evenodd"/>
          <path id="パス_684" data-name="パス 684" d="M1020.876,242.82c1.295,4.011-1.318,13.26-10.3,20.688-5.609,4.637-9.552,8.529-13.344,6.083-2.044-1.319-1.21-4.424.432-4.814,2.5-2.243,9.519-8.735,9.948-8.972.865-.478,8.52-21.079,14.51-22.657.718-.462.854,6.51-1.246,9.672" transform="translate(-925.005 -207.817)" fill="#3aaded" fill-rule="evenodd"/>
          <path id="パス_685" data-name="パス 685" d="M914.036,243.942c1.371-2.895.316-8.565-2.588-9.838-.768-.337-2.931-1.4-4.344-.591-4.988,2.84-11.9,20.852-12.678,27.482-.639,5.439-2.092,21.355.549,25.814.814,1.372,3.144.392,3.822-.028,1.7-.6,2.012-12.616,5.415-24.228,2.8-9.575,8.593-16.011,9.824-18.61" transform="translate(-885.554 -207.852)" fill="#0f68b7"/>
          <path id="パス_686" data-name="パス 686" d="M941.1,282.886c4.167,7.392-4.44,48.09-5.985,73.562l.242-.023a4.277,4.277,0,0,0,1.856,3.119c1.663.923,7.784,1.679,8.768,2.635.709.689,1.891,3.462-7.83,3.2-6.9-.185-10.238.418-10.977-.72-.571-.874-.37-5.18-.248-7.113h-.041c-.895-17.41.354-31.316-3-51.785-2.654,12.037-5.463,22.509-7.222,28.883-1.061,3.844-7.256,20.85-6.736,24.652.116.846,4.023,1.228,5.672,2.572.688.668,1.969,3.464-4.726,3.4s-9.923.406-10.64-.7c-.672-1.03,4.339-29.713,4.73-33.76,1.728-17.874,2.267-37.635,4.578-49.279l0,0c1.193-48.55,26.6-36.038,24.317-6.646-.259,3.321,6.084,3.412,7.233,7.992" transform="translate(-888.143 -213.902)" fill="#02518c" fill-rule="evenodd"/>
          <path id="パス_687" data-name="パス 687" d="M910.909,428.751c1.294.486,3.547.955,4.7,1.894.688.668,1.969,3.464-4.726,3.4s-9.923.406-10.64-.7a16.3,16.3,0,0,1,.273-4.143c1.38.7,4.071.95,9.216-.2Zm25.6-.977a3.05,3.05,0,0,0,.711.547c1.663.923,7.784,1.679,8.768,2.635.709.689,1.891,3.462-7.83,3.2-6.9-.185-10.238.418-10.978-.72-.362-.555-.413-2.489-.372-4.324C927.792,429.406,930.326,429.58,936.506,427.774Z" transform="translate(-888.143 -282.678)" fill="#355298" fill-rule="evenodd"/>
          <path id="パス_688" data-name="パス 688" d="M931.4,194.884s6.607-2.505,9.654,2.6c.762,1.278,1.951,1.477,1.927,3.211a18.081,18.081,0,0,0,.188,2.979c.156.924.858,2.292,1.007,3.038.186.93-1.18,1.428-1.209,1.837-.231,3.244.231,5.119-1.239,5.673-3.714.529-9.587.444-11.293-2.75s-3.245-7.813-3.171-10.9,2.4-4.8,4.133-5.689" transform="translate(-898.559 -192.873)" fill="#ffc99c"/>
          <path id="パス_689" data-name="パス 689" d="M940.491,222.066a5.717,5.717,0,0,0,.174,2.624c.441.867-8.31.889-8.31.889a59.2,59.2,0,0,0-2.057-8.69c-1.348-3.98,10.194,5.177,10.194,5.177" transform="translate(-899.684 -201.187)" fill="#ffc99c"/>
          <path id="パス_690" data-name="パス 690" d="M931.51,212.033a8.833,8.833,0,0,0,4.541-2.512c.484-.542,1.259-5.192,1.529-5.288,1.03-.366,1.522,3.23,1.522,3.23.153-.188.7-.342.821-.938.055-.265-.292-1.748-.067-2.125.166-.276,1.287-1.257,1.531-1.625,1.985-2.993,4.256-6.231,1.573-8.544a3.088,3.088,0,0,0-1.7-.638,6.1,6.1,0,0,1-2.585-.672c-6.508-3.124-19.259,1.647-12.533,14.993.942,1.869,3.828,3.957,5.372,4.118" transform="translate(-897.394 -192)" fill="#333" fill-rule="evenodd"/>
          <path id="パス_691" data-name="パス 691" d="M941.555,228.614s-.028-1.655-.766-1.814-8.631-.679-9.539-.318l-.1,2.105s2.322.711,10.4.026" transform="translate(-900.054 -205.214)" fill="#5fd2ff"/>
          <path id="パス_692" data-name="パス 692" d="M946.138,212.4c-.138-.588-1.561-2.993-2.125-1.194s.852,4.219,1.642,4.012.833-1.327.483-2.819" transform="translate(-904.951 -199.135)" fill="#ffc99c"/>
          <path id="パス_693" data-name="パス 693" d="M991.007,293.167a3.29,3.29,0,0,1-.6-.858s-1.054-.708-1.185-1.146a3.228,3.228,0,0,0-.116-.333c-.14-.313.367-.873.238-1.719s-.493-4.641-.493-4.641l2.392.406a5.1,5.1,0,0,1,5.832,3.378c.02.076.037.151.048.224a7.831,7.831,0,0,1-.058,1.583c.007.132-.012,1.451-.315,1.7a1.255,1.255,0,0,1-1.2.294,3.014,3.014,0,0,1-1.562.6,1.867,1.867,0,0,1-1.638.309s-.847.532-1.344.209" transform="translate(-922.246 -227.564)" fill="#ffc99c"/>
          <path id="パス_694" data-name="パス 694" d="M923.283,229.229c-3.386,0-8.217,1.05-10.267,3.487-2.937,3.494-2.211,46.1-1.315,51.542,2.921,8.147,27.768,5,35.3.676l-1.378-49.206c-5.166-8-14.307-6.5-22.338-6.5" transform="translate(-892.27 -206.275)" fill="#0f68b7"/>
          <path id="パス_695" data-name="パス 695" d="M1042.88,321.413a9.955,9.955,0,0,0,.066,1.2c.007,12.849,9.011,27.653,12.056,40.627.1.43-.666,4.51-.578,4.936,1.352,1.446,5.206,3.486,5.619-3.182-1.724-11.2-3.867-29.308-8.3-42.937l.134-.649Zm-11.885,0,2.673,40.982q-.158.215-.313.422c-.08.11-.16.215-.241.319-.192.252-.381.492-.571.714-.085.1-.171.2-.259.3a8.476,8.476,0,0,1-4.721,2.292,3.377,3.377,0,0,0-2.828,1.964.8.8,0,0,0-.059.146.88.88,0,0,0,.866,1.124l13.682-.428a1.323,1.323,0,0,0,1.283-1.452l-.913-5.972a.219.219,0,0,0,0-.025c.316-11.1,2.721-27.117,1.087-40.38Zm5.683-57.741-1.232,10.191h7.032C1039.311,268.282,1036.678,263.672,1036.678,263.672Z" transform="translate(-936.01 -219.565)" fill="#ffc99c"/>
          <path id="パス_696" data-name="パス 696" d="M1027.424,284.652c-2.96,9.824-1.411,28.684.124,44.823,11.112,2.853,27.466,2.079,31.551-1.372-2.726-21.05-4.113-41.276-8.468-45-9.176-21.442-21.862-3.9-23.207,1.548" transform="translate(-936.435 -223.045)" fill="#0f68b7" fill-rule="evenodd"/>
          <path id="パス_697" data-name="パス 697" d="M1058.034,234.966c2.614,10.663-7.853,12-5.482,33.526-7.841,1.089-18.178,1.391-24.92-.268,1.078-7.921-1.748-18.565.04-24.679,1.173-4.012,4.385-10.686,6.387-11.5,9.456-2.65,20.082-2.881,23.975,2.924" transform="translate(-936.942 -206.712)" fill="#5fd2ff" fill-rule="evenodd"/>
          <path id="パス_698" data-name="パス 698" d="M1045.276,216.835l-.047,2.586-.377.321c-1.473,1.579.123,4.821,1.8,4.721,4.244.209,7.5-3.271,6.227-5.16l-.554-.618-.122-3.66c.219-.012,1.813-.919,2.287-1.064a2.461,2.461,0,0,0,1.217-2.025c.046-.965-1.444-.652-1.444-.652,1.806-2.472,3.852-4.492,1.2-6.717s-8.745-3.526-8.745-3.526l-3.667-1.271c.466,1.265-.157,5.486-1.1,8.123-1.338,3.747-.6,7.063,3.326,8.942" transform="translate(-942.432 -194.988)" fill="#ffc99c" fill-rule="evenodd"/>
          <path id="パス_699" data-name="パス 699" d="M1052.9,225.385c-1.2,2.063-2.608,4.2-5.246,3.887l.048-2.586c1.174.188,2.323.1,5.2-1.3" transform="translate(-944.863 -204.84)" fill="#f2b486" fill-rule="evenodd"/>
          <path id="パス_700" data-name="パス 700" d="M1071.848,234.161c14.142,5.864,10.77,38.219,9.043,44.692-.544,2.038-4.7-.135-4.458-1.3.444-3.309-3.027-26.828-4.473-29.438-2.088-3.771-5.593-14.818-.113-13.953" transform="translate(-953.04 -208.197)" fill="#5fd2ff" fill-rule="evenodd"/>
          <path id="パス_701" data-name="パス 701" d="M1080.1,304.912l-.094,1.6-1.8,2.963c-.3.292-1.464,4.1-.461,3.786.7-.223,1.21-1.346,1.257-1.29.609.729.708,3.921.761,3.991.746.981,1.254-2.022,1.363-2.528a18.845,18.845,0,0,0,.228,2.088,1.031,1.031,0,0,0,.625-.8,12.7,12.7,0,0,1,.307-1.991c.148-.095.212,2.115.342,2.016a.906.906,0,0,0,.383-.659,17.45,17.45,0,0,1,.2-1.975c.132-.141.083,1.444.193,1.305.085-.108.32-.054.351-.184.86-3.5-1.063-3.3.03-7.279.608-2.214-3.075-1.647-3.689-1.045" transform="translate(-956.282 -235.218)" fill="#ffc99c" fill-rule="evenodd"/>
          <path id="パス_702" data-name="パス 702" d="M1049.549,204.362s-5.262.178-7.225-1.523c-4.114-3.536-1.609-11.97,8.908-8.848,8.369,2.486,5.463,10.76,16.219,14.574,7.032,2.494,11.255,7.512,6.482,17.676-.02.014-2.28-4.362-4.515-4.646,2.788,4.16,1.121,8.477.366,9.152-2.217-9.552-11.44-14.69-17.545-13.922-3.888-2.852,3.242-11.574-2.691-12.463" transform="translate(-942.089 -192.504)" fill="#563e27" fill-rule="evenodd"/>
          <path id="パス_703" data-name="パス 703" d="M1027.226,429.022s-4.764,1.319-4.55,2.788c.432,2.966,16.785,1.007,16.873.9.579-.721.648-4.068-.132-5.066-.581-.743-6.979,3.23-12.191,1.379" transform="translate(-935.252 -282.592)" fill="#355298" fill-rule="evenodd"/>
          <path id="パス_704" data-name="パス 704" d="M1070.59,433.5c.1,1.9,7.139,1.287,8.173.716,1.539-.85-.26-5.013-1.072-6.1,0,0-1.793,2.823-3.915,2.254s-1.377-1.2-1.739-.485c-.679,1.338-1.542,1.863-1.448,3.619" transform="translate(-953.679 -282.808)" fill="#355298" fill-rule="evenodd"/>
          <path id="パス_705" data-name="パス 705" d="M966.72,266.314c4.168,2.092,11.432,9.037,12.464,5.435s-.38-5.162-.38-5.162-5.081-9.165-6.679-9.7c-1.206-.407-6.929-16.06-9.975-20.108-5.061-4.691-9.819,19.7,4.57,29.539" transform="translate(-910.05 -208.992)" fill="#0f68b7"/>
        </g>
      </g>
    </g>
  </g>
</svg>
